/* XPM */
static char *back1647023165[] = {
/* columns rows colors chars-per-pixel */
"70 70 22 1 ",
"  c #D6D6D7",
". c #D6D7DA",
"X c #D8D7DC",
"o c #D7D8DC",
"O c #D9DADE",
"+ c #DDDEE2",
"@ c #E0DFE4",
"# c #DFE0E4",
"$ c #E2E2E6",
"% c #E5E6EA",
"& c #E8E7EC",
"* c #E7E8EC",
"= c #E9EAEE",
"- c #ECEDF1",
"; c #F0EFF4",
": c #EFF0F3",
"> c #F2F3F5",
", c #F9F9F7",
"< c #F5F6F9",
"1 c #F8F7FC",
"2 c #F7F8FA",
"3 c #FAFBFC",
/* pixels */
"=*=:*+++%====-<1,333,3,=====-**=-*=-&=++%=*%%#oo%-=====%%%-***---%+o+o",
"%*-<+..o+&==-132,333,3,====-**-*%#*-=&%+=**=-*%#*=*-*=*+oo%====***%+++",
"+$-$++=#++==23233333,3>=&-==*--*+.#=&*===-**%-<:*-=-*=%o+o#=--*--*=-=%",
"+#-++&=+o+==233333,,3,=*&&-=-*-$+.*=%+%-==*++-<>****=*%Oooo##%*=-=*=**",
"+%--*-*+%*=-3333,,3,,,==-&=-=-$Xo+*=*++&==*%##$-*=*%+++++ooooo+*====*:",
"*-*+#==-:===1333,,,3,,-*====&&++o+%==**=*-**%#$----$oOoooo+o++%*##=*##",
"***++#%*-*-*:333,,,,,=%=;=&&<<$Xo+*========**-**%#**+O+$%*+oo%*#+###oO",
"*-******-**-=:23,::-==:,3<&;>&+++%=======*--*=*-$o#%oo#-*-+o+%*+#O##O#",
"$%#+**===:-=-=====*=*=:,3:#oooOo@====-**--**-**-=#=%oo$=*=#o#*=####=#=",
"OOoo#====<-=======--==*::=#oO+#*======*-***-$O+*-==::-:===%o#==**#===:",
"OO+o#:===-=-==========***%%%**=*%%==*=-***-%+oo*=**:<<:=*-*$*-*=======",
"#OoO#===*##===========**>>:===*$##%=-=*=--*%#O#=*-==::-=====*=========",
"=%OO+#-*#+#%==========*:333%==*###%*====*--***--*-**====-=============",
"==#o+#=*#++*====**=**=%=332====+++%=====****---=-*=-=========**=*-====",
"==%##*===%#==*===**=*==$:<:%=-&%@%%=====-***->=*===========*==-*===#==",
"#=*%==*=====***==*===*=%#====&==**=*====*---*-%=-==========*:<<-=:##*-",
"-###%==*=======,,<>**=>>===================-=======***======233>==##--",
"###+#=*===&$$:33322:%>3,*=======%O@&=====-======*=*-,>===-==233:==-===",
"=##O#=====#OO#,3233>-33:=**=====+OOO=$+$======*=::<<33,===-%=>:=======",
"=###%==*=,OOOO-3333><33-========OoOO@OO#======>2222<,,,-*====*======-=",
"==%*====>,# OOO$%-,-33<$%==***%*+OOOOOO ===*=2,322,33,,=&=--======*=-=",
"*==-===++#OO OOO  =>33&O$**=*ooOOOo+ OO+*=**,3,3323333,*&=**==========",
"======*O    $$OO+,>=,:++O*-**+oOo+$+ O+=====23,,<333,,**-&-*=-=====***",
"=======$+*:,,%+O$,===$+++%-**%#%**-%+ #=====23:+O#,3%O$*=&========*###",
"========*,333=#O%,%===%%%*====-=***%+.#-==**,3#   =3#++&=&&&---*==%#+#",
"=========*-,2=oo%==&===========$+$-*+.**===*:,OO%O=3*+#===%%$$-====##*",
"=*=========***o+==============*$++*-++**===**>:+$:::-=====$+.X@*======",
"*=3>==*=====-=#===============**#%****--=====*-+ %*=*===&&%+++++===--=",
"*->,3<=====================*=**==&=&*======*===*&=======&&-#.+.+=*====",
",,:-33<=======:===========%=:=*=====*===*%**===============+..+#======",
"-:3==><======:*#===========,,*$$&==-====+ooo$=============*+.++*=*====",
" +,==:3>======##==========*,3*O$#=======#o#o+=-===========*++**===*-==",
"$>,==:3<========-====&&-&-&;3&@@#======-***+oO#%-===========--*====*==",
"=3>=**-=-=======&===--&&&&&&3&+@%======@$--%#oO%**==========*=====*==*",
"=3>=*==*============&&&;;<;<3;@&&======o+*-**%*-====================%$",
"-3,=============-=&-&-&>13313;&;&&==*===*--**-*========-=-==*=====**#+",
":3,%***%-===%*==&&-&-&&;311<<&&&@+%=$%==%$-*=========-=$##==-***%==%+#",
">3,=*=>,-==-%&==-&&-&@&-;;;&&&&@oo+*-==*%$*-==========$ooO==*-=-:===##",
":33-=>333=%=*==*&&&-&&=&@&&&-&@+O+O#%%%%=========-===*o+OO#::<<<%:3:=$",
":3,-=13,3>%===**=-=&=-==;;-&&--@OooO%%%%#======::*%===#ooO=<2<<# :33-=",
"=:==>,,,,>==*=%%-=*-***>333=&=-&@++o###+o%**==%-,$$===%###:33>O *,,:*=",
"====,,3,,=====%&==-*==*,333-&&&&&**@%*+++%-*=*#$&&=-====<222>=+%=*%*==",
"===-233,;*=-====--***&;,331-=-&&==*&*%+oo#**::#*======*:232====%======",
"====>33>==%$===&*&*-=;,232:*=-&-====*#ooo+-*:<-======*:,33:==$#O#=====",
"=##*==:#+-$ +*$++*->,,$@1==*=-===&***=%++#-***-=======,,,,*%OO O#-%##*",
"$OO$==%O+--+O%+#+*-33& +1-=*&===&%@***=%+*-*-*=-======,,,-%   %,22#.o#",
"OOO%==* +->*$*#+#*-3; O%:=======*#@*=*-%#*****:2,======-:*=$ O,,3>o+#o",
"OOO$===$+$*-$+****->+OO=-*=%*=*=%@%=--=***-**#:2,====&&**:,,$ ,,21#.o+",
"OO#**-*-$**-#.+-*=+.++o=<::-+###=#*=#==--=**=#:2:&===*=*-,33$O,3,3>##*",
"%%====*---*-*++%-*%++..++##=*<=*-===#*====#*==*=&==*====,,33,,3333:==:",
"=$%=-**-*-**=*+.+%%-++..+++o+<:====-==-=*###============,,,,3,,333-**=",
"%+$====+--*%==*+.++%*+++o#+++::===-#+===#####==-========,,3,,3,,22:*==",
"=======$#==#*==*+++$=+.O.-1::<=====**#=-*###+#-==*#OO#==:33,333322--==",
"========-=>1-*&*++X#=$oO+=--=======-=%==*#+O+#===$oOoo$==>,,3-,2>=#=*=",
"========-=<3:%&&#++%=**%&-**=======*===**#+O#%==%OoOOO+-%%=:-&****====",
"==========---==-**--====================**%#*===*OOOOO+%+===&**%%*=%%=",
"*=========**=*::========--========*=--=*=23<=**==#oOO =-$==*===**=*o+*",
"*=========:*==-*&====-===##=======-***=*:323:===###O+*33,-*===*===%.+=",
"O*========1<-:===-===*========-=-:-*=:<22333,**====*>333,,:==*=*===#%*",
"  %====&=-13<1-==-===&**=====*#%####:2223323:*=======-,%o$3-**-=====%%",
"##=======-,3333-=*=*%%*==*===###+OO #3333<3<=**-=====%+  O,:*=====*=##",
"==-=**====232333>--::,:==*===###OO+O=2::33>=*=*-=====+ OO+,-=======#o#",
"&>,,&*&--*>3,333333333,##*=-*##++O O=%##:,-===-####=-=OO %,*=======###",
"=,,>===&&&-3,333,3,3333=*=*==*%%=%#%%O#o#=%===*####*-3#o+,=========***",
"%%--=$$$#==>33333333231======-======%##+#=====*++##*->%o<<#*======*=*=",
"+O%==$++#*-*:,<222>>:-*====*==**====%%#$%-===*=%##$**-#o:<>====##%*-**",
"$$-==$++#*-==*========-===**:>**==========%*====***===%o$<-=-=###+****",
"=$%=%&#+#*===**--===-=======<<*-===%$===-====-====-=*=%+o-===*##++%-==",
"*OO*==========*=*=-=========--=====$%===$$$+#$+$-**-===**===++O+++*---",
"*O#==============:3>*=======**=========#oOoo+#o#========-==*OOO#*****="
};
