/* XPM */
static char *V2VicC5uZXQtcmVzaXplaW1hZ2U_[] = {
/* columns rows colors chars-per-pixel */
"70 70 218 2 ",
"   c #7F1719",
".  c #7E191A",
"X  c #752527",
"o  c #83161A",
"O  c #81191D",
"+  c #8C1A1D",
"@  c #881415",
"#  c #941A1D",
"$  c #98181A",
"%  c #A31719",
"&  c #A41A1D",
"*  c #AC191C",
"=  c #B31A1D",
"-  c #861C21",
";  c #8D1C20",
":  c #951D21",
">  c #9D1E23",
",  c #A41D23",
"<  c #AB1E24",
"1  c #A51F2A",
"2  c #B41D24",
"3  c #BC1E23",
"4  c #BF1F29",
"5  c #872729",
"6  c #9E252B",
"7  c #972528",
"8  c #952F33",
"9  c #9B2C31",
"0  c #9F2730",
"q  c #873134",
"w  c #993639",
"e  c #882D32",
"r  c #A52027",
"t  c #AC2124",
"y  c #A2242A",
"u  c #AB2229",
"i  c #A72A2E",
"p  c #B42325",
"a  c #BC2025",
"s  c #B3242C",
"d  c #BC232A",
"f  c #B1282E",
"g  c #BC292C",
"h  c #A22C31",
"j  c #AD2C32",
"k  c #BC2C32",
"l  c #BD2730",
"z  c #A43034",
"x  c #AB3135",
"c  c #A4343A",
"v  c #AE323A",
"b  c #AC393E",
"n  c #BC3236",
"m  c #B4353B",
"M  c #BD343B",
"N  c #B2383D",
"B  c #CE1E26",
"V  c #CE1E28",
"C  c #D11E26",
"Z  c #D11F29",
"A  c #CD2126",
"S  c #C5242B",
"D  c #CB232A",
"F  c #C4292D",
"G  c #C8262A",
"H  c #D2242B",
"J  c #D5282E",
"K  c #D02023",
"L  c #C42C32",
"P  c #C82730",
"I  c #D52A32",
"U  c #D72932",
"Y  c #C4353D",
"T  c #CC353D",
"R  c #C7383E",
"E  c #CC393F",
"W  c #C73036",
"Q  c #DC3237",
"!  c #D5353D",
"~  c #DA333B",
"^  c #D3393F",
"/  c #E0343C",
"(  c #9B3D42",
")  c #A63E44",
"_  c #AA3D43",
"`  c #B23A42",
"'  c #B93540",
"]  c #CB3741",
"[  c #CC3941",
"{  c #C43941",
"}  c #D33A42",
"|  c #D83842",
" . c #9D4549",
".. c #94494B",
"X. c #974548",
"o. c #9C4D50",
"O. c #9B5356",
"+. c #A54045",
"@. c #A2454A",
"#. c #AA454A",
"$. c #A84347",
"%. c #B34146",
"&. c #B1454D",
"*. c #B8464D",
"=. c #BB4C52",
"-. c #B54D55",
";. c #AD5356",
":. c #A5595B",
">. c #A75358",
",. c #B5555B",
"<. c #B4565A",
"1. c #AD5E61",
"2. c #B55F63",
"3. c #A86C6D",
"4. c #B26C6D",
"5. c #B36769",
"6. c #B86E72",
"7. c #BF7778",
"8. c #B97676",
"9. c #A26B70",
"0. c #C2545A",
"q. c #C75A5F",
"w. c #CC656B",
"e. c #C7676B",
"r. c #CB6F75",
"t. c #C5767A",
"y. c #D47479",
"u. c #D16E73",
"i. c #C4807F",
"p. c #CD7F83",
"a. c #C58182",
"s. c #C98487",
"d. c #D7878B",
"f. c #D49495",
"g. c #D99499",
"h. c #D89D9E",
"j. c #DC8991",
"k. c #E28A8D",
"l. c #E18489",
"z. c #E48D92",
"x. c #E59095",
"c. c #DA9EA0",
"v. c #F09FA5",
"b. c #C4A7AA",
"n. c #DFABAC",
"m. c #DBA4A5",
"M. c #C9AFB2",
"N. c #DEB0B3",
"B. c #E3A4A5",
"V. c #E4A5A9",
"C. c #E4AEAD",
"Z. c #EBA7A9",
"A. c #F2A2A5",
"S. c #F3ACAE",
"D. c #F6A7AD",
"F. c #ECB2B3",
"G. c #E9B8B9",
"H. c #FEB6BA",
"J. c #FDBBBE",
"K. c #F4B6B8",
"L. c #F5AFB1",
"P. c #F3BEC1",
"I. c #FCBDC1",
"U. c #DCDCDC",
"Y. c #DED6D7",
"T. c #EBCACC",
"R. c #FCC2C5",
"E. c #FEC5CA",
"W. c #FECBCD",
"Q. c #F4C4C5",
"!. c #EDD1CE",
"~. c #FFCFD4",
"^. c #E0D6D8",
"/. c #E3DCDC",
"(. c #EBDBDB",
"). c #E5D7D7",
"_. c #FFD2D4",
"`. c #FFD5DA",
"'. c #FFDADD",
"]. c #F5DCDD",
"[. c #DEE3DF",
"{. c #FCE0DF",
"}. c #FFDDE0",
"|. c #E5E5E4",
" X c #EBE5E5",
".X c #E6E9E7",
"XX c #E9E9E7",
"oX c #EAE7E9",
"OX c #EAEAEA",
"+X c #E7E8E9",
"@X c #FFE3E4",
"#X c #FFE7E8",
"$X c #F3EDEC",
"%X c #FFECED",
"&X c #F3E6E6",
"*X c #EEF1EF",
"=X c #F1F1EF",
"-X c #FFF1EF",
";X c #ECEFF0",
":X c #F2EFF1",
">X c #FFEEF1",
",X c #EEF1F1",
"<X c #F1F1F2",
"1X c #FEF4F5",
"2X c #FCFAF7",
"3X c #FFF7F9",
"4X c #FDFDFD",
"5X c #FFFFFD",
"6X c #FEFEFC",
"7X c #FDFFFE",
"8X c #FEFEFE",
"9X c #FFFEFF",
"0X c #FEFFFF",
"qX c white",
"wX c #FEFEFF",
"eX c #FEFDFE",
"rX c #FEFEFE",
"tX c #F6F8F5",
/* pixels */
"qXqXqXqXqXqXqXqXqXqXqXqXqXqXqXqXqXqXqXqXqXqXqXqXqXqXqXqXqXqXqXqXqXqXqXqXqX4XqXqXqXqXqXqXqXqXqXqXqXqXqXqXqXqXqXqXqXqXqXqXqXqXqXqXqXqXqXqXqXqX",
"qXqXqXqXqXqXqXqXqXqXqXqXqXqXqXqXqXqXqXqXqXqXqXqXqXqXqXqXqXqXqXqXqXqXqXqXqXqXqXqXqXqXqXqXqXqXqXqXqXqXqXqXqXqXqXqXqXqXqXqXqXqXqXqXqXqXqXqXqXqX",
"qXqXqXqXqX7XqXqXqXqXqXqXqXqXqXqXqXqXqXqX6X6XqXqXqXqXqXqXqXqXqXqXqXqXqXqXqXqXqXqXqXqXqXqXqXqXqXqXqXqXqXqXqXqXqXqXqXqXqXqXqXqXqXqXqXqXqXqXqXqX",
"qXqXqXqX7XqXqXqXqXqXqXqXqXqXqXqXqXqXqXqXqX6XqXqXqXqXqXqXqXqXqXqXqXqXqXqXqXqXqXqXqXqXqXqXqXqXqXqXqXqXqXqXqXqXqXqXqXqXqXqXqXqXqXqXqXqXqXqXqXqX",
"qXqXqXqXqXqXqXqXqXqXqXqXqXqXqXqXqXqXqXqX6X6XqXqXqXqXqX6XqXqXqXqX7XqX4XqX4XqXqXqXqXqXqXqXqX6XqXqXqXqXqXqXqXqXqXqXqXqXqXqXqXqXqXqXqXqXqXqXqXqX",
"qXqXqXqXqXqXqXqXqXqXqXqXqXqXqXqXqX7XqXqX6XqXqXqXqX7XqX2X3X1X1X6X3X4XqXqXqXqX4XqXqXqXqXqX6XqXqXqXqXqXqXqXqXqXqXqXqXqXqXqXqXqXqXqXqXqXqXqXqXqX",
"qXqXqXqXqXqXqXqXqXqXqXqXqXqXqXqX7X7XqX4X7X2XqX7XtXtXqX6X6X2X2X1X1X3X3X4X4XqX4XqXqXqXqXqXqXqXqXqXqXqXqXqXqXqXqXqXqXqXqXqXqXqXqXqXqXqXqXqXqXqX",
"qXqXqXqXqXqXqXqXqXqXqXqXqXqXqXqX7X4XqX7XqXqX3X1XqX3X1X'.P.h.s.9.M.%X|.[.U./.|.+XOX<X2X4XqXqXqXqXqXqXqXqXqXqXqXqXqXqXqXqXqXqXqXqXqXqXqXqXqXqX",
"qXqXqXqXqXqXqXqXqXqXqXqXqX7XqXqXqX4XqX4X4X3X2X2X@XD.y.=.` m m ( G.$XXX|.U.U.U.U.U.U.U.|.:X4XqX7XqXqXqXqX7XqXqXqXqXqX7XqXqXqXqXqXqXqXqXqXqXqX",
"qXqXqXqXqXqXqXqXqXqXqXqXqXqXqXqX6XqXqXtX1X1X_.f.;.b M ! ! } ] 0.`.XXXXXX|.U.U.U.U.U.U.U.U.U.+X2XqXqX2XqXqXqXqXqXqXqXqXqXqXqXqX4XqXqXqXqXqXqX",
"qXqXqXqXqXqXqXqXqXqXqXqXqXqXqXqXqX6X4X3X'.d.*.m R } | | ~ ^ Y u.@XXXoXoXOX|.U.U.U.U.U.U.U.U.U.U.oX2XqX4XqX7XqXqXqXqXqXqXqXqXqXqXqXqXqXqXqXqX",
"qXqXqXqXqXqXqXqXqXqXqXqX4X4X4X4X3X3X3XZ.<.N [ ^ ~ ! Q ! Q ^ m z.#XXXOXOXoX.X|.U.U.U.U.U.U.U./.^.(.].T.1X3X3X3X7XqXqXqXqXqXqXqXqXqXqXqXqXqXqX",
"qXqXqXqXqXqXqXqXqXqXqXqX4XqX4X3X3X@Xr.6 M | | ~ ! ~ ! Q ~ } m A.#X.XoX.XoXoXOX|.U.U.U.U.U.U.^.].W.4.X 4.#X3X3XqX7X7XqXqXqXqXqXqXqXqXqXqXqXqX",
"qXqXqXqXqXqXqXqXqXqXqXqXqX4X3X3X~.>.1 P V U ~ ~ ~ ~ ~ ~ ~ } ` H.%XOXOXoXOXOXoXOX[.U.U.U./.^.].G.X.. 7 . .._.4X3X4XqXqXqXqX7XqXqXqXqXqXqXqXqX",
"qXqXqXqX4XqXqXqXqXqXqX4X4X3X3XI._ u P V V V U / ~ ~ ~ ~ ~ ] &.E.1X*X<X<X<X<X<X*XOX|.[.U.Y.].V.e + & $ t u _ E.3X3X4X4XqXqXqXqXqXqXqXqXqXqXqX",
"qXqXqXqXqX4XqXqXqXqXqX4X3X3XE.( s D V B V V B U ~ ~ ~ ~ ~ ] -.~.%X$X<X<X<X<X<X*X<X<XOX/.{.m.5 # & = = S P s w R.3X3XqXqXqXqXqXqXqXqXqXqXqXqX",
"qXqXqXqXqXqXqXqXqXqXqX3X3X_.$.s S V B V V Z C B J ~ ~ ~ ~ E ,.}.>X$X=X<X<X<X=X=X*X*X*X-XZ.5 # , = S A G A S p _ _.2X3XqXqXqXqXqXqXqXqXqXqXqX",
"6X6XqXqXqXqXqXqXqXqX6X3X@X..r D V A Z V V V C C B I ~ ~ ~ T ,.}.%X<X<X<X=X<X<X<X=X&X-XW.w # % 3 G D V Z B B G u ;.@X3XqXqX4XqXqXqXqXqXqXqXqX",
"qXqXqXqXqXqXqX6XqXqXqX1X4.  t G B B B V V C C C B B I Q ~ { 2.'.%X;X<X<X:X:X<X<X=X-X'.>.z s 2 S V C C B B B C S , r.1X3X6X4XqXqXqXqXqXqXqXqX",
"qXqXqXqXqXqXqX6XqXqX6X!.X 7 % = G B Z V C C C C B V B I / T ,.`.%X,X<X<X:X<X<X:X$X-X7.9 n T I B V C B C H C B G S y V.3XtX4XqXqXqXqXqXqXqXqX",
"qXqXqXqXqXqXqXqXqXqXtX].3.. & = S A B A B B C C C C B B I [ -._.-X<X<X<X=X<X<X$X-Xm.8 n E ! / U B A A B B C C V V s ) '.1X2XqXqXqXqXqXqXqXqX",
"qXqXqXqXqXqXqXqXqXqXoX(.W.X.+ $ = S A B B B C C C C C B A W &.W.%X*X*X<X=X=X:X>X_. .x ^ | ~ Q / J B A B B C C B V P y p.3X4XqXqXqXqXqXqXqXqX",
"qXqXqXqXqXqXqXqXqXtXU.Y.(.G.q # % 2 A A B B B C B B B A A S b J.-X,X*X=X=X=X$X-Xt.9 R ~ ! ~ ~ ~ ~ I B B B C A A V V S c _.qX3XqXqX4XqXqXqXqX",
"qXqXqXqXqXqXqXqX7XXXY.[.U.{.C.5 # % 2 A B B V V C B B B A S y v.1X*X<X,X=X$X1XF.9 Y ^ ~ ~ ~ ~ I ~ ~ J B B B B B V V A < s.3X3XqXqX4X6XqXqXqX",
"qXqXqXqXqXqXqXqX2XU.U.U././.%Xn.5 # * a G K B B B B B B A G < l.%XOX<X:X<X%X#X1.j | ! Q ~ ~ ~ ~ ~ ~ / J B B C B V V A a @.'.3X7XqX3XqX6XqXqX",
"qXqXqXqXqXqXqXqX,XU.U.U.[.XX X%XF.q + t a G K K B B B B B S 2 w.@X=X:XtX;X1XV.8 [ ! Q ~ ~ ~ ~ ~ ~ ~ Q ~ H B C B B S B G 6 A.4XtX4X4X6X6XqXqX",
"qXqXqXqXqXqXqXqX|.U.U.U.[.XXXX X%XQ.X.o & a G A C B B B V V 4 *.'.&X$X<X$X@X,.m [ ~ ~ ~ ~ ~ ~ ~ ~ ~ Q Q Q H B C B B A S 1 e.1X3X4XqX4XqXqXqX",
"qXqXqXqXqXqXqX4X|.U.U.U..X.XXXoX X&X_.5.  $ a G A B C B V B V j R.6X2X1X3XC.c [ ! ! ~ ~ ~ ~ ~ ~ ~ Q Q Q ~ Q H B B B B A V ` }.4X4XqXqXqXqXqX",
"qXqXqXqXqXqXqXtX+X[.U.|.+X+XOXoXXX X&X#Xf.q @ t S A H B B V A < g.3X3X3X1X5.m | ! ! ~ ~ ! ~ ~ ~ ~ ~ ~ / Q ~ / J A C B V V 6 G.4XtXqXqXqXqXqX",
"qXqXqXqXqXqXqXtX+X+X|.oXOXoXoXOXoXXXoX&X%XW.5.. # g S G B V V s 2.>X1X3XI.w [ | ! ~ ! ^ ! } } } E E E E ] [ ] } L S G D S 1 g.3X1XqX4XqXqXqX",
"qXqXqXqXqXqX6X,X+XoXOXOX+XOXoXoXXXOXoXoX X%X1XG.o.. & F D V V d c E.3X3Xt.> T ~ ~ ^ ^ R M m ` ` &.-.<.<.,.-.-.&.%.i 2 4 4 1 7.3X1X6X4XqXqXqX",
"qXqXqXqXqXqX7XOX+XoXOXtXOXOXoXOXXXoXOX+X<X2X2X3X%Xm.@.; 1 l P l 6 k.1X}.) f l W M m %.0.y.x.D.I.W.`.'.}.'.'.`.E.J.A.p.q.` 8 O.%X2X6X4XqXqXqX",
"qXqXqXqXqXqXqXOXoXoX$X<X:X;X+XoX+X+X+X,X4X2X4XtX3X4X%Xn.:.5 6 f f =.#XF.7 s 6 w 6.B.E.#X1X1X3X>X>X>X>X%X%X>X%X>X>X>X#X'.W.N.b.>X3XqXqXqXqXqX",
"qXqX6XqX6XqX7XOX+XoX:X<X<X<XOX+XOX+X;X4XtX2X4X4X3X2X3X3X1XP.t.$.6 - F.p.- =.z.~.>X3X3X6X2X4X:X;X;X<X,X:X<XOX<X<X<X;XXXoX(.(. X2X4XqX7XqXqXqX",
"qXqXqXqXqXqXqXoXoXOX<X<X,X<X,X;X+XOXtX4X4X2X2X2X2X4X7XtX2X3X1X'.F.a.7.t.L.#X1X3X1X3X3X7XqXqXtX,X<X<X<X:X<X<X:X<X<X<XoXoXoXU.U.4XqXqXqXqXqXqX",
"qXqXqX7XqXqX3XoXXXOX<X<X<X<X:X,XOXtX4X4X4X2X2X7X2X4X2X2X2X1X2X-X#XL.7.8.p.K.}.1X4X1X2X7X4X4XqX2X<X<X<X<X<X<X,X<X<X<X+X+X+X+X/.4XqXqXqXqXqXqX",
"qXqXqXqXqXqX3X<X$X$X=X*X;X,X,X:XtX7XtX7X4X4XtX2XtXtX4X4X2X%XW.k.=.- p.S.- 0 ) t.I.1X3X3XtX4X4X4X<X<X<X<X<X;X,X<X=X*XOX+XoXXXoX6XqXqXqXqXqXqX",
"qXqXqXqXqXqX1XM.G.'.%X1X1X1X1X>X3X3X2X3X3X3X3X3X3X3X#XI.h.<.w r i 7 F.%X-.s s 1 5 >.V.%X3X1X1X4X2X<X<X<X<X<X<X<X<X<XOXOXoXoXoX4XqXqXqXqXqXqX",
"qX7XqXqXqX3X1X9.+.0.y.z.A.H.E._.{.@X@X'.`.W.J.A.l.w._ j r p F F s _ }.1Xl.y P P l , ;  .B.>X3X3X4X,X;X<X<X,X<X<X<X:XOXOXOX+XOXqXqXqXqXqXqXqX",
"7XqXqXqXqX3X1Xs.N E M n ` %.#.-.<.,.,.<.#.w h y 1 < 4 S A A A P 6 t.3X3XW.c d V V D P , O o.N.1X3X1X$X<X<X<X:X<X*X<XOX+XOXoX<XqX7XqXqXqXqXqX",
"qXqXqXqXqX3X3Xm.m ! ! } | ] ] T E R R R E L S S G G Z V B B A F 5 I.2X2X>X2.2 Z Z V V G d # - 5._.3X$X<X:X:XtX:X:X<XOXOXOX+XtXqXqXqXqXqXqXqX",
"qXqXqXqXqX3XqXG.` | ~ ~ ~ ~ ~ ~ ~ ~ ~ ~ Q / H B B B C C B B G r :.-X1X1X3Xg.1 Z Z V B V G G < o q h.%X%X:X:X:X=XOX<XOXoXOX+X2XqX7XqXqXqXqXqX",
"qXqXqXqXqX4XqX'.=.] | ~ ~ ~ ~ ~ ~ Q ! Q ~ ~ ~ J B C C C B S F + C.6X2X1X3XE.h V V C B Z B V S s > O 6.}.>X$X<X*XtX=XoX.XOXoX7X7XqXqXqXqXqXqX",
"qXqXqXqXqX6XqX1Xy.' | ~ ~ ~ ~ ~ ~ ~ Q ~ Q ~ ~ ~ H B C B B F $ @.-X3X3X2X4X#X*.V V C C C C B B G 4 , o o.~.1X$X=X<X=XoXoX+XOX7XqXqXqXqXqXqXqX",
"qXqXqXqXqXqXtX3XD.` ] ~ ~ ~ ~ ~ Q ~ ~ ~ ~ ~ Q Q Q H V V B d O B.3XtX4XtX4X3Xw.2 D B C B V Z V B V d & + X.J.-X=X=XOXXXXX.XtXqXqXqXqXqXqXqXqX",
"qX7XqXqXqXqX4X3X}.,.{ ~ ! ! ~ ~ ~ ~ ~ ~ ~ Q ~ ~ ~ Q H S d # o.>X1X2XtX7X2X1Xk., D Z B B V V B B V S a * : w G.-X$XXXXXXXoX6XqXqXqXqXqXqXqXqX",
"qXqXqXqXqXqXqX3X3Xd.' | ~ ~ ~ ~ ~ ~ ~ ~ ~ ~ ~ ~ ~ ~ ~ F u . N.3XtXtX4X2XtX3XD.y G Z B B B B C C B A A 3 & : w J.-X XoX.X<XqXqXqXqXqXqXqXqXqX",
"qXqXqXqXqXqXqX4X3X`.*.[ | ~ ! Q ! ~ ~ ~ ~ ~ ~ Q ~ ~ ! R + 5.3X3X2X4X2X2XtX3XI.h d V B C C B B B B B B G = & ; X.Q.#XoX+X2XqXqXqXqXqXqXqXqXqX",
"qXqXqXqXqXqX7X7X4XtXj.` [ ! ~ ~ ~ ~ ~ ! Q ~ ! ~ ~ ! T x .._.4XtX4X7XtX4X4X3XW.c d C C B B B B C A B A A S * & + O.'.&X=XqX6X6XqXqXqXqXqXqXqX",
"qXqXqXqXqX7X7X4XqX3X`.;.{ ! ! ~ ~ ~ ~ Q ~ ! Q ~ ! T n 8 m.3X3X4X2XtX4XtXtX3X`.+.d Z B B C C B B B B B B B d * > . 8.%X2XqXqXqX6XqXqXqXqXqXqX",
"qX7XqXqXqXqX4X7XqX3X3XV.c } ! Q ~ ~ ~ ~ ~ ~ ~ ! ! n 9 t.1X3X4XtX4XtX4X2XtXqX'.$.d Z B C B B B C B B C C V V 3 , 7 X !.6X2XqXqXqXqXqXqXqXqXqX",
"7XqXqXqXqXqX7XqXqX4X4X1Xt.v | ~ ~ ~ ~ ~ ~ ! ! T n z :.@X4X2X7X7XtX7X2X7X2X3X@X#.d A B B V B B C C C C C V V S u . 3.2X2X7XqXqXqXqXqXqXqXqXqX",
"qXqXqXqXqXqXqXqXqXqXqX3X}.1.' | ~ ~ ~ ~ ~ ! W n j  ._.3X3X7X4X7X7X4X2X4XtX2X'.#.p Z B B B B V B B B V V V V P > ..@X3X7XqXqXqXqXqXqXqXqXqXqX",
"qXqXqXqX6X6XqXqXqXqXqX3X3X~.) M | ~ ~ ! ! W F x ( Q.3X2X7X7X4X4X7X7X4X2X4X3X'.$.4 V B C B B C B B C V V V G f ) ~.4X2X7XqXqXqXqXqXqXqXqXqXqX",
"qXqXqXqXqXqXqXqXqXqXqX4X3X3XI.( M ^ ! T L n x X.P.3X3X4X7X2X7X4X4X7X4XtX2X3X_.) d C B C B B B B C C B V D s ( E.3X2X7X7X7XqXqXqXqXqXqXqXqXqX",
"qXqXqXqXqXqXqXqXqXqXqX4X4X3X3XI.+.j Y k m 9  .K.3X2X4X4X7X7X4X4X2X7X4X4X2X3X~.c d C B B B V B V B B B G u ) I.3X3X4X7X7X7X7XqXqXqXqXqXqXqXqX",
"qXqXqXqXqXqXqXqXqXqXqXqXqXqX1X3X_...7 _ 8 1.~.3X3X3X4X4X4X4X4X4X7X7X2X7X4X4XH.h S C C C C C V V B A G , >.~.3X2XqXqXqXqXqXqXqXqXqXqXqXqXqXqX",
"qXqXqXqXqXqXqXqXqXqXqXqXqXqXqX3X4X@X6.q p.#X3X4X4X4X4X4X4X4X4X4X4X4X4X2XtX3Xv.y S C C C B B V V S s 6 r.}.4X3X2X7XqXqXqXqXqXqXqXqXqXqXqXqXqX",
"qXqXqXqXqXqXqXqXqXqXqXqXqXqXqXqX3X3X1XT.$X>X4X4X4X4X4X4X4X4X4X4X7X4X2X4X2X1Xk.r S Z C C K A H S 1 _ V.1X3X4X2X7X7X7XqXqXqXqXqXqXqXqXqXqXqXqX",
"qXqXqXqXqXqXqXqXqXqXqXqX7XqXqXqX4X4X4XqX3X,X:X4XqX4X4X4X4X4XqX2XqX4X4X4X3X1Xy.n S B V G S p t v d.'.3X3X4XqX7X4X7XqXqXqXqXqXqXqXqXqXqXqXqXqX",
"qX6XqXqXqXqXqXqXqX4XqX6XqXqX6X6XqX6X6X2X2XqX2X<XtX3X4X4XqX7X4X4X4X4X4X4XqX@X0.E ! S S < 7 +.s._.1X1X3XqX4XqXqX7XqXqXqXqXqXqXqXqXqXqXqXqXqXqX",
"qX6XqXqXqXqXqXqXqXqXqXqXqXqX6XqX6XqXqXqXqX4X7XqX2XtXtX<X2XqX4X4X4X4X4X4X3XT.( m m m _ e.A.'.1X2X3XqX7XqX6X4X2XqXqXqXqXqXqXqXqXqXqXqXqXqXqXqX",
"qXqXqXqX4XqXqXqXqXqXqXqXqXqXqXqXqXqX7XqXqXqXqXqXqXqX4X4XtXtXtX=X=X=X,XOX>XM.9.s.c.P.'.1X2X2X2XqXqXqXqXqXqXqXqXqXqXqXqXqX6XqXqXqXqXqXqXqXqXqX",
"qXqXqXqXqX4XqXqXqXqXqXqXqXqXqXqXqXqXqXqXqX7XqXqXqXqXqXqXqXqX6X4X4X4X2X4X2X1X1X1X3X3X6X2X4X6XqXqXqXqXqXqXqXqXqXqXqXqXqXqX6XqXqXqXqXqXqXqXqXqX",
"qXqXqXqXqXqXqXqXqXqXqXqXqXqXqXqXqXqXqXqXqXqXqXqXqXqXqXqXqXqXqXqXqX7XqX7XqX3X3X3X3X6X4X2X4X7X7XqXqXqXqXqXqXqXqXqXqXqXqXqXqXqXqXqXqXqXqXqXqXqX",
"qXqXqXqXqXqXqXqXqXqXqXqXqXqXqXqXqXqXqXqXqXqXqXqXqXqXqXqXqXqXqXqX4XqX7X4X7X7X7X7X7X7X7X7X4XqX7X7XqXqXqXqXqXqXqXqXqXqXqXqXqXqXqXqXqXqXqXqXqXqX",
"qXqXqXqXqXqXqXqXqXqXqXqXqXqXqXqXqXqXqXqXqXqXqXqXqXqXqXqXqXqXqXqXqXqXqXqX7X4X6X6X4X6X7X7X6XqXqXqXqXqXqXqXqXqXqXqXqXqXqXqXqXqXqXqXqXqXqXqXqXqX",
"qXqXqXqXqXqXqXqXqXqXqXqXqXqXqXqXqXqXqXqXqXqXqXqXqXqXqXqXqXqXqXqXqXqXqXqX6XqX6X6X6X6XqXqXqXqXqXqXqXqXqXqXqXqXqXqXqXqXqXqXqXqXqXqXqXqXqXqXqXqX",
"qXqXqXqXqXqXqXqXqXqXqXqXqXqXqXqXqXqXqXqXqXqXqXqXqXqXqXqXqXqXqXqXqXqXqXqXqXqXqXqXqXqXqXqXqXqXqXqXqXqXqXqXqXqXqXqXqXqXqXqXqXqXqXqXqXqXqXqXqXqX",
"qXqXqXqXqXqXqXqXqXqXqXqXqXqXqXqXqXqXqXqXqXqXqXqXqXqXqXqXqXqXqXqXqXqXqXqXqXqXqXqXqXqXqXqXqXqXqXqXqXqXqXqXqXqXqXqXqXqXqXqXqXqXqXqXqXqXqXqXqXqX"
};
