/* XPM */
static char *door_close1647024059[] = {
/* columns rows colors chars-per-pixel */
"70 70 217 2 ",
"   c #1D1B2E",
".  c #16152E",
"X  c #1C1B33",
"o  c #181731",
"O  c #211E32",
"+  c #26252D",
"@  c #29272E",
"#  c #2B2A2D",
"$  c #212027",
"%  c #302D2D",
"&  c #3E3C23",
"*  c #33322C",
"=  c #3C3A2B",
"-  c #3A3329",
";  c #232234",
":  c #2A2633",
">  c #2A2D34",
",  c #25253A",
"<  c #28273B",
"1  c #2B2B3D",
"2  c #272B35",
"3  c #372A35",
"4  c #2E343B",
"5  c #2B3136",
"6  c #31363E",
"7  c #353738",
"8  c #403B1F",
"9  c #413D25",
"0  c #443D2B",
"q  c #4B3B2D",
"w  c #42352E",
"e  c #57392D",
"r  c #4E3A31",
"t  c #473938",
"y  c #523734",
"u  c #513B32",
"i  c #5B3C34",
"p  c #462E36",
"a  c #663F39",
"s  c #653F38",
"d  c #53461F",
"f  c #4B471F",
"g  c #464228",
"h  c #4B422B",
"j  c #4A4527",
"k  c #564D24",
"l  c #53452A",
"z  c #584826",
"x  c #4D4134",
"c  c #564436",
"v  c #62462E",
"b  c #634B2D",
"n  c #644B28",
"m  c #774D2C",
"M  c #63522A",
"N  c #6D5628",
"B  c #74542E",
"V  c #78592C",
"C  c #624631",
"Z  c #654A33",
"A  c #6A4A32",
"S  c #664238",
"D  c #684438",
"F  c #764A38",
"G  c #7D5334",
"H  c #7E5A32",
"J  c #745235",
"K  c #675C30",
"L  c #7C652C",
"P  c #2C2C43",
"I  c #252C48",
"U  c #2D3143",
"Y  c #323443",
"T  c #353B44",
"R  c #383E47",
"E  c #363C4A",
"W  c #393E4A",
"Q  c #33364A",
"!  c #393B51",
"~  c #302F47",
"^  c #413E45",
"/  c #3B424C",
"(  c #37404B",
")  c #3E4651",
"_  c #3F4854",
"`  c #3F475C",
"'  c #44484E",
"]  c #414652",
"[  c #424A55",
"{  c #454D5A",
"}  c #494E5C",
"|  c #494C56",
" . c #47515E",
".. c #4A525D",
"X. c #4D5357",
"o. c #56565A",
"O. c #554F4A",
"+. c #775B44",
"@. c #6A534D",
"#. c #796647",
"$. c #7D6854",
"%. c #484E61",
"&. c #4C5463",
"*. c #4F5866",
"=. c #4E5569",
"-. c #4F5968",
";. c #475062",
":. c #515764",
">. c #525966",
",. c #535C6C",
"<. c #595F6D",
"1. c #515768",
"2. c #565E71",
"3. c #585F72",
"4. c #59606E",
"5. c #57606F",
"6. c #576071",
"7. c #5B6374",
"8. c #5E667A",
"9. c #5F687B",
"0. c #606675",
"q. c #606779",
"w. c #636A7D",
"e. c #696F7E",
"r. c #666974",
"t. c #706D72",
"y. c #854D3D",
"u. c #815435",
"i. c #8A5637",
"p. c #835B33",
"a. c #8B5D36",
"s. c #83543A",
"d. c #8D553B",
"f. c #835A38",
"g. c #8D5B39",
"h. c #93563C",
"j. c #935B3A",
"k. c #965A39",
"l. c #8A5A2C",
"z. c #81642E",
"x. c #8B682C",
"c. c #8B732F",
"v. c #866133",
"b. c #8C6335",
"n. c #8D6B33",
"m. c #8D6138",
"M. c #82633C",
"N. c #926436",
"B. c #926B34",
"V. c #926138",
"C. c #9B603B",
"Z. c #8D7131",
"A. c #917131",
"S. c #965A41",
"D. c #956F45",
"F. c #8B704E",
"G. c #887166",
"H. c #938473",
"J. c #656D82",
"K. c #696F83",
"L. c #686F88",
"P. c #6A7285",
"I. c #6C748B",
"U. c #6A7388",
"Y. c #70768D",
"T. c #747A8D",
"R. c #777C8B",
"E. c #6F7690",
"W. c #6F7890",
"Q. c #707690",
"!. c #737B93",
"~. c #787F94",
"^. c #777E98",
"/. c #787F9A",
"(. c #7B8195",
"). c #7B839C",
"_. c #778097",
"`. c #7F86A1",
"'. c #80869C",
"]. c #848A9D",
"[. c #8087A2",
"{. c #838AA5",
"}. c #888FA5",
"|. c #868DA9",
" X c #888FAB",
".X c #8B91A6",
"XX c #8B92AE",
"oX c #8790AC",
"OX c #9196AD",
"+X c #949AAE",
"@X c #8E95B1",
"#X c #8F98B6",
"$X c #9097B3",
"%X c #939AB5",
"&X c #999EB4",
"*X c #969DB9",
"=X c #989FB9",
"-X c #9BA2BC",
";X c #9AA2B9",
":X c #A1A6BE",
">X c #A2A8BF",
",X c #9EA5C2",
"<X c #A0A7C2",
"1X c #A5ABC4",
"2X c #A9AFC5",
"3X c #A6ADC9",
"4X c #A9AFCA",
"5X c #AAB1C7",
"6X c #ACB2CB",
"7X c #B0B6CE",
"8X c #B2B8CE",
"9X c #AFB5D1",
"0X c #B1B7D0",
"qX c #B4BAD3",
"wX c #BCC2DB",
"eX c #C0C5DF",
"rX c #C2C9E2",
/* pixels */
"%X%X%X$X#XoXXX(./ >X-X<XXXXX5X%X*X*X$X$X%X$X$X|.%XP.] 2X-X<XXX@X2X#X*X*X%X%X$X%X@X|.%X8...6X;X:X}.%X3XOX-X*X$X%X%X$X@X{.*X1.7.6X;X-X{.;X1X@X",
"XXXXXXXXXX@XXX_.:.1X=X*X&X*XXXXX@XXX@XXXXXXXXXXXXX!.,.6X*X*X&X&XXXXXXXXX@X X@XXXXX@X@XJ.0.6X%X=X*X*XXXXXXXXXXXXX@XXX@XXXXX8.P.6X%X*X*X&X X@X",
"|.@X@X@XXXXXXX{...;X*X@XXXXX@XXX@XXX|.@X@X@X XXXXX).&.>X@X@XXXXXXX@X@X@X.X@XXX@X.X@XXX!.,.3X@X#XXX XXXXXXXXXXX@XXX@X|.@XXXL.7.4X@X@XXXXX@XXX",
"XX*X@X X`..X.X{.=.OX$XXXXX@XXX@XXXXX$X*XXX X{. XXX).1.&X@XXXXX@XXXXXXXoX@X#X@X|.{..XXXT.<.-XXXXX@X@XXX@XXXXX%X%XXX|.{.}.OXL.8.:X XXX@XXX@XXX",
"%X@X X`.L./.(.e.)  XXXXXXXXX@XXXXXXX%X@X{.).U.).'.4.{ $XXXXXXX@X*X*X%X%X*X#X@X^.P.(.).*.1.#X.XXXXXXXXXXXXX@X%XXX{.~.P.(.'.{ 7.%X.X@XXX@XXXXX",
"{.)._.Y.{.>X8.>.[ {.*X#X$X@X$X@X@X@X[.)._.W..X-X4.>.[ XX*X@X@XXXI.I.I.Y.I.7.L.E.+X%X4.*.;.@X#X#X$X@X%X@X$X X{._._.I.;X.X,...,.*X@X%X@X@X%X@X",
"XX;X!.[.;X7. .&.T { P.w.P.{.!.!.(.P.@X;X!.|.+X>...=.T { 7.q.q.e.].].].].].].T.8.R. .) &.T ,.P.w.Q.{.I.).T.!.&XXXE.%X{.*.;. .6 6.J.q.~.{.I.).",
"T.7./ { ] ) [ ] ( T / )  .{  .] ( ,.R.,./ { [ [ { ( 4 ,.R.1X5X5X4X4X4X4X2X6X<X;X5X{.P.' 4 T [ / ..{ { ] ( 0.Y.;.] { ] [ [ / R R _ ]  . .{ / ",
",.&X:X2X2X2X2X1X&X:X1X2X-X%X.X(.T 6 q.;X:X5X1X(.) ..e.e.wX3X,X@X|.|. X).^. X{.|.%X4XXX<.,.T +X8X-XOX.XP.4 T ~.-X1X>X2X2X2X-X&X1X1X2X&XOX.Xw.",
"&X$X*X*X%XXXXX X X X.X6X*X@X{.&XI.( &X@X,X{.,.{ R.2X%XR =X3X X`./.|. X@X@XI.`.!.!.!./ >.*X.X,.e.{.*X{.-X,.>.-X@X=X;X@X@XXX|.XX{.*X4XXX@X.X%X",
"0X*X XXX|.)./.!.|.@X@X@XXX$X&X[.{.>.6X%XI.) w.6XwX-X$X=.7.6X@X@X[./. X|.{.E.XX8.8.-.( Y.7XqX%X!.{ w.XX.X7.7.qXoX.XXX`./.^.^.@XXX@XXXXX;X{.[.",
"-X@X@XXXXX*X<X=X%XXXXXXX X{.!.I.^.<.;X7...&XqXqX*XoX[.I.&..X{.@X*X*X=X/.U.|._. .;.[ P.-XqX%X|.-X-X0.%.`...<.,XXX@X@X@X-X,X%X%XXX@XXX|.[.I.~.",
"XX|.`.@XXXXX|.@X*X*X|.|./.9.P.9.I.,.=.{ <XqX-X@XXX@X^.!.2.] w.U.!.U.*...7.6.;.*.&.{ {.6X6X%XXXoX$X3Xq.T 6 ,.@X`.|.@XXX X.X%X*X%X{.|.I.w.J.8.",
"`.E.U.`.*X@X@X$X3X1X|.{.!.T.*X!.w.( { -X7X%X X@XXX&X`.).7./ Y ` ! > U U E 4 ! { T 7.:XwX#X.X@X@X{.XX=Xq.2 <.{.U.E.@X@X@X@X-X6X*X`.{.U.{.XXI.",
"7.!.!.9.@X$X`.!._.[.{.W.I.!.U.8.{ { ,X6XoX|._.`.|.).W.7.W , @ % * : @ # @ + + +   P L.<X&X@X{._.[.XX!.`.] ( 9.^.L.U.-X X^.!.).`.).I.!.I.U.,.",
"W { ;.=.,.J.8.I.I.w.-.=.,.6.,. .>.-X*X).@X@X;X%X!.I.2.P   % z M B l n p.v.G J r g 0 - } @XXX!.|.@X%X_.3.U.,.Y } &.=.2.J.J.E.I.7.*.=.6.6.*.;.",
"E T T T R R > [ [ ( T ( [ [  .T R.1X{._.).{. Xw.=.> ; ; g n a.g.b.q A V.g.S.S.y V N.M % =./.^.!.^.[.3.{  .7.T 4 ( 7 ( 6 6  .' T T ) [ ] [ [ ",
"2X5X2X2X6X(.7./ 2 o.1X6X>X5X4.| ,.-.0.~.U.I.9.,.Y o * j l B B.a.N.S C V.a.g.f.y H N.a.n % =.7.2.^.J._ } (  .w.[ +X8X>Xq.,.6 4 T.qX5X>X5X5X>X",
"*X*X*X*X*XXX*X(.( 1X1X<X;X4.] >XqX). .[ &.,.-.Y X : Z G r b.b.a.N.D C V.g.g.m.y G b.b.g.l * =.,.>.,._ ..(.2X3X,./ XX&XoX-X:.4.qX-X<XXX,X5X*X",
"XXXXXX X X@XXX_.>.<X*X;XP.T :XwX6XqX%X,.T { E X ; b n.s.u p.b.a.N.D C V.g.g.m.u u.N.b.g.c j * {  .4 ..6XwX4XoX@X[ ( |.XXXXq.P.6X@X&X%X@X.XXX",
" X@XXX@X XXX@X{...;X*X*X,.7.qX*XXXXXXX`.7.W ; O 0 v.N.y.r v.b.g.j.Z Z N.g.g.g.y u.V.b.b.x B b * ( T.-XqX2XoXXX*X^.6 _.$X@XP.8.4X@X@XoXXX@X@X",
"XX*X@XXX[..X.X[.=.XX%X|.{ ).9X{.`.`.@X`.E.! X : z b.j.y.u a.b.a.j.Z C V.g.g.m.y u.b.b.b.u G C.n >.wX6X,XXXXXXX-X).T 4.OXXXK.8.-X X@X@X@XXXXX",
"%XXX|.).P._.(.e.) XX%X!.{ :X*X{.{.|.@X`.E.Q + w A V.n.y.r i.b.b.V.Z C V.a.g.m.u u.b.b.b.u H B.B = ).wX;XoX@XXX%X!.>./ (.).{ 7.$XXXXXXXXXXXXX",
"{.).^.!.}.,X7.-.[ [.*X_.&.1XXX@X@X|././.3., * q A V.n.y.r a.m.g.j.Z C V.g.g.m.y u.m.n.m.u H A.f.g ,.qX%X).oX@X|.Q.,.6 U.4.} ,.%X$X%X@X@X%X@X",
"XX;XW.).&X6. .&.T [ K.>...%XoX{.`.[.Q.J.;.o g 0 A V.n.y.l i.g.a.j.Z C V.j.a.g.u u.j.n.b.r H n.N.h ) XX-X X).{.{.).3.4 { &.{ 4 5.J.8.!.).P.).",
"T.7.] { [ ] { ] ( ( _ ( 8.#X.X{.@X/.I.2.( X h i A j.n.y.r i.h.m.V.Z C V.a.b.d.y u.g.n.b.r H n.N.B T L.). X@X{.J.w.-.T )  .) / ( ] ] ..{ ../ ",
",.;X1X5X5X6X5X2X;X-X6X.X[ P.|.!.!.7.9.7., @ n s C V.n.y.r i.S.g.B.D Z V.g.b.g.y u.j.Z.N.r H n.m.B * { J.{.|._.7.7.J.T T .X2X;X>X2X2X&X%X.Xw.",
"*XXX&X&X@X|.XX|.oX|.OX+X_ E [ ( ( ) ) ;.< @ M s Z V.n.s.u f.a.g.A.D c N.g.m.g.y G j.x.j.y H n.g.v.x ( ) _ _ { { ;.[ 6 ( (.XXXX{.*X4XXX@X.X%X",
"qX&X|.oX|.)._./.oXXX#XI.E R.&X.XXX'.K.T O : n s Z h.n.f.r f.m.a.A.S Z j.a.b.d.u u.l.D.G.e M.D.i.B.t W ~.%X+X{.(.>.5 Y { P.).@XXX@XXX@X*X}.{.",
"-X@X@X@X@X*X,X*X%XXX@X&.Y.wX3X-X,X<X).U.< @ n e A k.B.i.q j.m.a.B.S C k.b.b.g.y l.H.3.p e D O.N.o.< XXrX6X1X;X#X#X,.4 _ {.-X@XXX@XXX|.`.P.!.",
"XX|.`.@XoXoX X@X;X*X@X{ OX2X{.@X{.|.XX!.P $ m F.t i.l.k.O.v N.v.j.a b k.b.b.d.y t./ W 1 ; U Q i ^   +X6XoX{.XX{.`.@X) T !.-X;X%X{.{.U.w.U.8.",
"`.E.L.`.*X@X@X#X2X,XoX&..X-XXX;X'.XX).I.P 6 F.'.I c H.G.2.Y S.v.k.a c k.a.b.i.i t . P , X , P . Q 4 .X;XXX{.[.*X_.`./ T _.,X3X*X`.{.U..XXXI.",
"7.!.!.8.OX%X/.!.).).`.,.XX$X@X X X{.!.w.P < E &.P , { P < P 7 L k.a v k.d.b.d.u u.u o ; 3 @ @ j 5 O _.@X_.@X@XXX`.U.( T U._._.{.).I.T.E.J.,.",
"W [ { >.,.w.8.I.I.9.*.) XX$X{.$X X).).J.1 X o O ; X .   O X @ H k.S C k.g.g.d.y u.V.x h x k j d j 4 8.`.!.{.oX XI.2.6 ( 8.I.U.6.&.=.,.6.&.;.",
"W T T ( W R > ] ) E T W (..X[./._.OXI.q., ; q > X 7 g 7 X : 9 H S.a A N.g.d.d.y u.h.n.i.i J H L k 7 %.I.I.W.U.7.9.6.T 4 6 [ ( W ( ' [ [ { [ ",
"5X6X6X6X6X(.8.] 5 :.5X8._ 7.7.{ { =.[ T O @ v.c # k v.d.* 9 B b.k.a C j.b.h.d.y u.m.b.S.u u.B.N.H 7 T _ { { { _ { ( U _ 0.Y 4 R.qX5X2X2X5X5X",
"&X*X%X*X%XXX*X_.( 1X2X7.W ,.0.4.7.>.] 6 ; @ p.Z n d.b.s.r z.j.b.j.a C N.g.d.d.y H Z.b.d.y G m.n.m.c 2 ..r.7.6.w.4.T 4 { <X>.7.qX-X<XXX-X1X*X",
"XXXXoX XXX@X X^.:.<X-X&.I.wXqX6X6XXX/.,.; - z.S C k.B.s.y v.a.a.B.S C V.a.h.d.y H Z.n.a.u G n.b.b.h ..8XwX8X6X6X-X0.6 ( ).J.P.6X$X*X*X$X X@X",
"oX@X@X@X.X@XXX|.&.;X-X .OX4X{. XXX@X|.!.P 9 z.S Z V.c.f.u a.n.a.N.S c N.a.d.d.y p.n.g.n.x u.m.N.N O.6X4X@XoXXXXXXX@X/ T _.I.7.2XXX@XXXXX@XXX",
"XX*X@X X[.{. X].&.XX*X;.!.$X@X@X|.|.{.I.P 9 z.a b N.n.u.u f.b.a.N.S C V.a.d.S.y H n.d.n.u u.h.B.N >.9XoXXX@XXXXXXXXX/ T .XK.8.-X X@XXXXXXX@X",
"%XXX|.).J.).(.w.) XX@X;.I.*X@X@XXX|.`.I.P & z.S b N.V.s.r a.n.n.N.S C N.g.g.d.y H B.g.n.u H V.V.N | 3XXX{. X@X X*X@X) 4 (.[ 8.%XoX@XXX@XXX@X",
"{.)._.!..X<X7.>.[ `.;X&.w.oX X@X{.!.I.W.P 9 z.a b N.a.a.y p.n.x.B.A v j.a.m.g.y H n.g.m.y H n.S.N  .,X|.*X[. X@X=X[.W T 7. .,.$X%X@X@X@X@X@X",
"@X;XT.).OX5. .&.T [ J.[ T.{.[. X!.J.J.6.< 9 z.S Z V.a.f.r i.g.n.B.S C V.g.g.g.y p.n.g.a.y H n.j.V o.`.`.*X X{.[.^.[./ R &. .4 ,.e.7.!.).J._.",
"U.4._ { [ [ { [ / / [ ) ,.*X@XXX/.2.,.;., 9 p.Z b N.V.f.r i.g.n.V.S C V.a.g.m.y H n.g.m.y H n.b.H c L.!.)./.!.^.).!.( R  .] / ( [ [ ..{ ..( ",
"3.;X1X6X6X6X6X5X;X:X5X6.4 ,.2.} &.;._ T , 9 p.Z Z v.G v.r i.n.x.N.D C V.a.g.m.r H n.g.a.y H B.b.b.z ^ =.J.J.J.J.w.R 4 :.8X<X;X2X2X6X;X%X.XK.",
";XXX%X*X@X|.oX{.|.|.T...[ 5.8.8.0.0.0.] X g H Z Z t.7 a.r i.n.b.N.S C V.g.d.m.y p.n.g.a.y H n.b.j.B 7 ,.e.e.w.w.e.] 5 ...X{.XX{.%X2XXX@X}.%X",
"qX&X|.XX|.`.).(.|.#X{.[ ).eX0XqX0X0XqX%X, & v.c +.R.: s.y i.b.b.B.S C V.a.h.m.y H b.j.b.y H Z.m.G # (.rXqX0X,X-X,X{.( T T.).@XXX#XXXXX*XoX[.",
"-X@X@X@XXX%X,X;X#X@X|.[ '.6X X X.XXX X`.P & l.+.r.P.o 3 x i.b.b.N.A v k.b.g.m.y p.g.g.m.y H Z.N.m / 7XqX=X|.XXXX XXX] 6 I.*X@XXXXXXX|.).U.T.",
" X|.`.@XXXXX X@X;X=X{._ }.-X|.%X@X%X|.I.P & a.t.> O.9 : @ d.a.n.N.D C h.m.g.m.y p.g.b.b.y H Z.b.n | 2X7X@XXX@X@X X).) T ,.*X-X*X{.|.L.J.P.w.",
"`.I.L.).&X@XXX$X3X3X!.( ).*X X*X@X{.U.I.P 8 +.! l u.n.K Y v V.a.N.D C k.b.m.m.y u.b.n.b.y H c.b.8 o.=X&X`.@XXX@X`.!./ T -.XX4X*X`.{.P.{.XXI.",
"2.!.!.8.XX%X/.!.^.`.I.) I.XX%X{.!.;XU.5.U 9 J 4 Z k.x.#.T n V.a.V.D C k.i.n.g.y u.V.n.b.y H b.b.z X.,X=X).^.@X|.E.^.) T 7.w./.[.).U.E.T.J.,.",
"E _ { &.-.w.7.I.U.9.&.) !.).{._.[.).T.w.~ 9 u.p ; J $.&.- J V.i.h.S C k.d.n.d.u u.b.b.b.y H N.a.d :.*X$XXX_.|.^.).).( T J.U.J.2.&.&.,.,.;. .",
"/ W ( / / / : ] / R ( T ,.@X|.-X(.8._.W.< 9 i.a # ; ] 3 q i.g.b.k.S C k.d.b.d.y u.j.x.b.y H b.V.m 6 [.{.|.*X{._.T.;.T 4 4 [ W E / ]  .[ { [ ",
"6X6X6X6X8X(.0.[ 5 >.8X~.' @X{.J.8.W.6.,.< 9 i.a z z f z u i.h.b.j.S C k.h.b.d.y u.j.b.m.y H b.N.p.9 I.[.I.!.w.e.=.{ T [ w.6 4 (.qX7X2X5X7X4X",
"*X%X%X$X*XXX*X)./ 1X2XI.( { _ [ [ ( T T ; 9 p.a A m.b.s.u i.j.a.N.S C k.d.b.g.y p.V.n.p.y H b.a.N.e 4 T _ ] _ / _ 4 4 ] &X,.0.qX;X-X.X-X1X$X",
"XXXX X@X.XXX X/.:.1X.X]  ..X&X%XOXP.J.,.; g i.a Z j.n.s.r a.a.a.N.D C k.d.b.d.y s.l.n.F.y H A.h.b.w ;.&X+X;X;X+XXXe.4 T !.e.K.4X%X*X*X$X XXX",
"oX@XXX@XoX@XXX}.&.;XXX_ ).qX-X,X,X*X`.!.Y & p.a Z V.b.s.r i.g.a.N.D Z k.d.b.d.u G D.G.@.i F.F.i.#.1 OXrX3X,X,X-X&X*X/ T _.W.7.2X@X@X XXX@XXX",
"XX;X@XoX`.}..X).=.OX X_ .X1X|.XX|.XX!.U.Q & p.a Z V.b.p.r d.m.a.N.S C k.d.N.d.u F.t.! 3 p 3 6 d.}   .X7XXX|.XXXXXXoX/ T }.J.7.-XXXXXXX@XXX@X",
"%XXX|.).J.).(.e./ XX{.{ .X3X|.|.@XU.P._.E & u.a v V.Z.y.r a.d.b.N.D Z h.g.b.d.y o.o W P . ~ ! O W 1 ).-X@X@X|.;X*XW.T 4 (. .7.*X.X@XXXXXXX@X",
"`.`._.!.OX-X6.*.[ `.@X_ !.-XXX[._.[._.P.Y 9 p.s b V.B.y.r i.V.a.N.D v h.g.g.d.i C : X ; O X ; : < < !.$X|.{.XX-X`.-.T T 5. .-.#X$X$X$X$X@X@X",
"@X;XI.).OX5. ...T / 8._ 8.{.w.=.] I.w.] 4 = H D A V.B.y.r i.m.g.V.D C k.i.b.h.r i.G ; > 3 * # k = ; w.[.Y.I.(.!.} ) T W &. .4 *.0.7.I.).J./.",
"P.4.]  .{ |  .[ ] ' [ [ &...] / / ( / [ Y + v.Z C j.n.y.r i.m.a.j.Z C h.g.b.S.y G C.M l c k N k j 6 :.7.[ [ / R ( ' T R / [ ) '  .[ &. ...( ",
"7.-X5X6X6X6X6X6X-X1XP.+XXX.X.X;X|.XX&X.XE.$ p.Z b N.n.s.u a.m.h.V.A C h.g.b.y.y u.g.n.m.l G B.L = ,.:X)..XXX%X|.*X;X|.] / 3X;X5X5X6X-X&XXXP.",
";XXX%X%XXXoX{.`.XX).*..X&.=.,.,.2.8.2.8.Q.$ p.D Z N.V.y.u i.b.g.j.Z C h.g.b.d.y u.j.n.b.u G B.A.9 7.~.[ ,.2.,.7.9.,.].} ( {..X[.%X3XXXXX}.+X",
"qX&XoXXX|.`.)._.XX).,.R.q.R.8.1.<.,.>.,.Y.+ N s v j.n.s.u a.b.b.j.A Z h.g.m.y.y u.j.b.g.l G N.n.0 3.e.Y.e.4.>.4.,.;.U.} T '.$X@X$XXXXX*X|.[.",
";XXX@X@X@X%X,X-X*X).-.(.w._ >.!.7.7.[  .K.X l s v N.n.y.y v.a.a.j.Z C k.b.j.d.r s.b.b.m.r G n.m.9 =.I.,.( P.P.7.1.( e.} W *X$X XXXXX|.).J.Q.",
"XX{.`.@XXXXX X@X-X{.*.(.J.8.].}.%X(.7.] 8.o g q A V.n.y.u z.g.b.N.A v k.b.g.d.y u.n.b.g.x p.b.b.0 ;.w.J.8.&X].*XL.| w...W *X-X$X[.|.L.J.U.w.",
"`.I.L.).*X@XXX#X6X{.*.J.8.[ &... .,. .] w.o g q A k.n.s.y a.b.a.N.D C k.a.i.S.y s.b.b.m.u G n.b.q &.w.,.] ,.[ 1.1.W e...R -X4X=X[.{.U..XXXI.",
"2.E.E.8.XXXX^.!.).E.,.q.7._.J.2.,.;.<.>.0.X - r A k.B.d.e b.j.d.B.S Z k.b.k.S.y u.N.a.m.u u.V.b.q =.4.U.T.6.,.=.>.,.e.} T ^.).)./.U.I.I.w.,.",
"W [ } ,.,.e.7.J.L.J.-.J.} ;.-.}  .] ( X.R.X : w C y.H F w H s.F p.i c y.p.y.+.r J f.s.a.y F a.p.0 1.4.{ =.&. .[ [ U P.} T I.J.,.*.-.,.4.;.;."
};
