/* XPM */
static char *collect1647028963[] = {
/* columns rows colors chars-per-pixel */
"60 60 230 2 ",
"   c None",
".  c #19172F",
"X  c #221E32",
"o  c #1E2535",
"O  c #23222B",
"+  c #2A2629",
"@  c #3B3323",
"#  c #282637",
"$  c #312D37",
"%  c #3A363B",
"&  c #332E26",
"*  c #392F1F",
"=  c #4A3E1E",
"-  c #443B21",
";  c #433B32",
":  c #57491C",
">  c #7B6714",
",  c #665829",
"<  c #07094C",
"1  c #030C54",
"2  c #071254",
"3  c #1D1C5C",
"4  c #16145A",
"5  c #13124B",
"6  c #1C2D4C",
"7  c #2B2545",
"8  c #393644",
"9  c #232358",
"0  c #352B59",
"q  c #2B3047",
"w  c #191462",
"e  c #041C64",
"r  c #251B6F",
"t  c #0A2C73",
"y  c #292966",
"u  c #35356C",
"i  c #2D2177",
"p  c #342E75",
"a  c #211F40",
"s  c #443A49",
"d  c #473670",
"f  c #224A56",
"g  c #245268",
"h  c #266771",
"j  c #1E415C",
"k  c #585548",
"l  c #4C4949",
"z  c #605E4E",
"x  c #686652",
"c  c #736F56",
"v  c #48487A",
"b  c #746D70",
"n  c #63566B",
"m  c #8D7712",
"M  c #8E7B2E",
"N  c #867655",
"B  c #837549",
"V  c #9A8418",
"C  c #B2960E",
"Z  c #A99938",
"A  c #CAAA08",
"S  c #D6B406",
"D  c #CFB529",
"F  c #F3CD05",
"G  c #FFD701",
"H  c #FFD803",
"J  c #FFD90B",
"K  c #FAD60F",
"L  c #FFDA13",
"P  c #FEDB1B",
"I  c #F8D719",
"U  c #E7C40B",
"Y  c #FEDD23",
"T  c #FDDD2B",
"R  c #FCDD34",
"E  c #EFD23E",
"W  c #FFE32A",
"Q  c #FFE334",
"!  c #FFE33C",
"~  c #FFE839",
"^  c #948852",
"/  c #AA954F",
"(  c #B9A74B",
")  c #918F69",
"_  c #A9A877",
"`  c #B3B179",
"'  c #AD9862",
"]  c #CBAF58",
"[  c #CAB369",
"{  c #CFB567",
"}  c #F0D74F",
"|  c #FFE647",
" . c #FFE857",
".. c #DACA62",
"X. c #E6D66B",
"o. c #FFE964",
"O. c #FBEA78",
"+. c #FFF479",
"@. c #F7EB6D",
"#. c #DED05C",
"$. c #101B86",
"%. c #0B3C89",
"&. c #3A2B82",
"*. c #483589",
"=. c #4F3A94",
"-. c #573EA4",
";. c #104E93",
":. c #2A7586",
">. c #125CA4",
",. c #1467AE",
"<. c #1871B7",
"1. c #29508D",
"2. c #575785",
"3. c #59419A",
"4. c #4D4888",
"5. c #6B5097",
"6. c #76769A",
"7. c #6D688C",
"8. c #5C43A1",
"9. c #654AA9",
"0. c #7A5AAD",
"q. c #7A5AB8",
"w. c #6D50B4",
"e. c #5F608C",
"r. c #1E24C5",
"t. c #1E2BC6",
"y. c #1E3CCA",
"u. c #1E33C8",
"i. c #1E47CD",
"p. c #1E52CE",
"a. c #1E59CA",
"s. c #1E5BD1",
"d. c #1E56D0",
"f. c #1E6CD5",
"g. c #1E64D3",
"h. c #1E73D6",
"j. c #1E7DD8",
"k. c #1E7AD6",
"l. c #1C74CB",
"z. c #226BD9",
"x. c #2B6DE3",
"c. c #7958C8",
"v. c #7D5BD4",
"b. c #8D6AB0",
"n. c #817F89",
"m. c #815DDB",
"M. c #8965C9",
"N. c #9069D9",
"B. c #A378DB",
"V. c #845FE2",
"C. c #8661E3",
"Z. c #8B64E4",
"A. c #8E67E6",
"S. c #936AE6",
"D. c #986EE7",
"F. c #9B71E6",
"G. c #9D73E9",
"H. c #A276E9",
"J. c #A579EB",
"K. c #AB7DEC",
"L. c #A57AE3",
"P. c #2D8F96",
"I. c #2B8FB0",
"U. c #31AFB4",
"Y. c #33B3B7",
"T. c #31ABAF",
"R. c #1E81BF",
"E. c #1B84CC",
"W. c #1E84DA",
"Q. c #1E8CDB",
"!. c #1C8AD4",
"~. c #1E94DD",
"^. c #1F96DC",
"/. c #2293DE",
"(. c #2A85CD",
"). c #2FB5CC",
"_. c #1F98E0",
"`. c #269AE3",
"'. c #25A6E5",
"]. c #31B1EF",
"[. c #35D1D6",
"{. c #31D7F3",
"}. c #2FCAEB",
"|. c #36E6F7",
" X c #38EBF1",
".X c #BCBB81",
"XX c #8484A6",
"oX c #9B9BB3",
"OX c #A9A9BB",
"+X c #85818B",
"@X c #C1BF83",
"#X c #D3D18D",
"$X c #CFCE8C",
"%X c #E6DB92",
"&X c #FFEE89",
"*X c #FEF78C",
"=X c #FFFC9C",
"-X c #FEF797",
";X c #EEEC9B",
":X c #FFFEA7",
">X c #FFFFA9",
",X c #FBF4A3",
"<X c #FFF7BA",
"1X c #CFC9B7",
"2X c #B5B5CB",
"3X c #AF80EB",
"4X c #B484ED",
"5X c #BB89EF",
"6X c #B686E9",
"7X c #B987F0",
"8X c #BE8ED0",
"9X c #C18EF1",
"0X c #C591F2",
"qX c #CA95F2",
"wX c #CF99F4",
"eX c #D29DF1",
"rX c #D8A5F6",
"tX c #D8ACF4",
"yX c #E4BBF9",
"uX c #F0BFFB",
"iX c #CACADB",
"pX c #C2C1CD",
"aX c #F9F4D0",
"sX c #D9D9E5",
"dX c #EBC5FA",
"fX c #E8C2FA",
"gX c #F4CAFC",
"hX c #E3E3EB",
"jX c #FAF9F7",
"kX c #F2F1ED",
/* pixels */
"                                                                                                                        ",
"                                                                                                                        ",
"                                                                                                                        ",
"                                                    J G J L L J G G L                                                   ",
"                                              L H Y R |  .@.o.| | Y L G J                                               ",
"                                          J L ! &X<XkXjXkXkXkXjXjXaX,Xo.P G H P                                         ",
"                                      J L | <XjXhX2X6.2.u 3 r u e.oXiXjXaX+.P H J                                       ",
"                            Y     P J T -XjXiX6.u 4 i =.8.w.w.8.&.w y e.2XjXaX .J G                                     ",
"                          P L   J J  .kXhXXXy w -.M.3X5X9X0X9X5X6XB.w.i 3 2.iXjX&XP H                                   ",
"                          J J J J o.jXpXv w 8.B.9X7XK.H.F.F.G.G.J.4X5X6Xw.r y oXkX-XL H     H                           ",
"                        L P G J     OXy i M.5X3XF.A.S.D.J.K.J.H.D.A.D.K.5XL.=.4 6.hX  L H   G H                         ",
"                      L Y J J     6.4 *.L.7XF.Z.A.G.4X9XeXrXrXqX7XJ.D.Z.D.K.5Xw.w 7.sX  L J G J L                       ",
"                      L   L       4 =.3XK.Z.C.S.H.4XwXtXuXgXgXuXrX7XK.F.Z.C.H.4Xc.w 2.    Y G P P L                     ",
"                    J           4 =.3XJ.C.V.A.H.4X0XyXdXgXgXgXuXfXeX7XK.F.C.V.D.4Xc.4 2.    J J Y J                     ",
"                    L         3 *.3XG.C.C.Z.F.K.7XrXfXdXgXgXgXdXdXtX0X4XH.S.C.V.A.4Xw.4 2.    L   L J                   ",
"                  L         3 i B.H.V.V.C.S.G.4X7XwXyXdXdXgXdXdXfXtX0X4XK.F.Z.V.V.S.4X8.4           G                   ",
"                  L       y w M.G.C.C.C.Z.D.J.3X7XqXrXyXfXfXfXyXrXeX0X7XK.H.S.V.V.V.D.B.d w         J L                 ",
"                L         4 9.3XZ.m.C.C.Z.D.H.4X7X0XqXeXrXrXrXrXwXqX9X7XK.G.S.V.V.V.V.H.M.r u       H H                 ",
"                L       y p L.A.V.V.v.C.Z.F.J.3X5X5XqXqXwXqXwXqXqX9X9X6XK.H.A.C.V.V.V.C.K.9.4         J L               ",
"              L T     v w M.G.m.V.V.C.C.Z.D.G.K.4X5X9X0XqXqXqXqX9X5X6XK.H.H.S.V.V.V.V.V.A.L.i 3       H H               ",
"              L     sXy *.H.C.V.V.V.V.V.Z.S.G.K.K.7X7X9X9X9X9X5X5X5XK.K.H.F.S.Z.V.V.V.V.V.F.M.<       L L               ",
"        L     T     XXw M.D.C.C.V.V.V.V.C.A.F.G.K.K.K.4X7X7X7X7X6XK.K.K.H.S.Z.V.V.V.V.V.V.Z.S.&.y       J   L J         ",
"        J     |   sXu *.F.Z.V.V.V.V.V.V.C.A.D.G.K.K.7X7X4X7X4X4XK.K.J.G.F.S.Z.V.V.V.V.V.V.V.D.b.4       H L H J         ",
"        J   R @.  oX4 q.S.V.V.V.V.V.V.V.C.v.c.0.w.0.5.5.5.9.b.0.w.b.M.M.N.Z.V.V.V.V.V.V.V.V.Z.D.i 3     L H G L         ",
"        G R |   hX2.i F.V.V.C.m.c.w.=.u 0 7 7 8 $ $ $ $ & $ 8 % # X 7 3.N.Z.V.V.C.C.v.C.v.C.v.D.8.3     Q G L H         ",
"      Y G Y R     3 w.A.v.9.=.0 X O $ l z c ) ) ` .X$X$X$X#X$X( & a n.6XS.m.V.V.v.C.C.C.C.C.C.A.M.w u   | G   G         ",
"      L H H Q   2.< 2.d 7 $ & ; c _ $X%X;X>X>X>X>X>X:X>X>X>X@.m O N rXJ.V.V.V.V.C.C.v.C.C.C.v.C.D.i u   | L   G         ",
"      G L J o.  v . # l , V A X.,X>X>X>X>X>X:X:X>X>X:X:X:X-XZ O n eXF.V.V.V.V.V.v.C.C.C.C.v.C.C.A.9.y   @.P   G T       ",
"      J R P ,XhX9 % ` O.P H L &X>X>X>X>X:X:X:X:X:X:X:X:X:X#.- s 8XH.V.V.V.V.V.V.C.v.C.C.C.C.C.v.Z.c.4 XXaX    G R       ",
"      L   P aX2X7 c >X@.H H Y *X>X>X>X>X:X:X:X:X:X:X:X:X*XM + b.7Xm.V.V.V.V.V.V.C.C.v.C.v.C.v.A.C.v.i 7.      G T       ",
"    T P       7.$ ` =X| H G W =X>X>X>X>X=X=X:X:X:X:X:X:X#.= X v =.*.=.9.w.c.v.v.v.v.A.C.v.C.C.C.C.V.&.u       G R       ",
"    Y P       0 l #X=XW G G ! ,X>X>X*X .W +.:X:X:X:X:X-X..c x x z k k l s q 7 p *.=.9.v.v.C.C.v.C.A.=.4       G R       ",
"    P P       . l ;X-XJ H H ~ >X*X| Y U D *X:X:X:X:X:X:X:X:X>X>X,X;X;X#X$X@X_ ) x % O # 0 d 8.c.v.A.8.3 iX    G R       ",
"    G L       7 x >X*XJ H H Q  .I A V : ^ =X:X:X:X:X:X:X:X:X:X:X:X:X>X>X>X>X>X:X,XX.C m : @ % q d 9.-.w 2X    H T       ",
"    G L       7 c >X&XJ G H G S > * O o ` :X:X:X:X:X:X:X:X:X:X:X:X:X>X>X:X:X:X:X:Xo.H H F S D ^ k $ 7 4 oX    H         ",
"    L P       q ) >X+.J G S m @ o f o , ;X:X:X:X:X:X:X:X:X:X:X:X:X:X>X>X:X:X:X:X:X| H H H H H J X.` k a XX   .J         ",
"    Y L       % ) >X+.U V : o h Y.P.+ / :X:X:X:X:X:X>X:X:X:X:X:X:X>X:X:X:X:X:X:X=XQ G G H G H G | :X` 8 6.  | P         ",
"    T L       $ ) >XX.> + f U.{.}.g & #.:X:X:X:X:X:X:X:X:X:X:X:X:X:X:X:X:X:X:X:X*XJ G G G G G G ~ :X$X8 7.  P L         ",
"      G       + b %Xz + P.[.{.'.R.o , @.:X:X:X:X:X:X:X>X>X:X:X:X>X:X:X:X:X:X:X:Xo.H G G G G G G  .:X$X8 2.  L           ",
"      G       . ; l f T.{.].^.^.<.. V -X:X:X:X:X:X>X>X>X>X,X:X-X-X-X=X:X:X:X:X-XW H G G H G G G  .:X` 8 6.  Y     P     ",
"      H T     8 o g [.}._.W.Q.Q.;.+ D =X:X:X:X=X*X+.o.| | ~ ~ W W W ~ ~ ~ ~ | W H G H H H H H H +.>X_ 7    .Y J J T     ",
"      P J     +X6 I.}.~.j.j.W.W.j @ D =X*X+. .W P I F U S S A A A A A A S S S U F G H H H H H L *X>X) # sXR J H H       ",
"        H     iXr %._.Q.j.k.j.k.6 : U ~ I U S C m > : : @ @ O o O O O + & @ = : > > V C S F H ~ =X;Xx 7.aX| Q Y P       ",
"        J J   jX4.1 l._.W.f.h.l.6 , S C > : * + o f g h P.P.T.Y.Y.Y.Y.Y.P.P.:.h j 6 o & * : > ( ;X#X% OXjX    L         ",
"          J | jXOX< ;.^.~.h.g.g.o & - + o h P.U.[. X X X|.|.{.{.{.{.{.{.{.|.|.|. X{.).I.:.g 6 $ z x l hXjX  P           ",
"          H Y aXhXg 1 l._.W.g.a.7 q g I.[.{.|.{.}.'.'.'.'.`._.~.^.^.^.^./.`././.`.`.`.].].].[.Y.y . oXjXjX| L           ",
"            G  .jXoX< t !.~.k.p.1.(.].].'.`.W.W.W.Q._.^.Q.Q._.Q.~.Q.~.W.W.k.k.z.z.s.s.p.f._.}.).$.1.kXjXO.P             ",
"            K L &XkX2.< ;.~.Q.h.x.x.z.s.g.f.f.h.k.j.W.Q.W.W.W.W.W.j.j.k.h.f.g.s.d.i.i.s.Q._.l.t w 2XjX&XP               ",
"              J L ,XsXu 1 >.^.~.h.i.y.i.i.p.d.g.g.f.f.h.h.h.k.h.f.f.g.g.s.d.p.i.y.y.s.Q._.!.t 1 XXjX&XP                 ",
"                H P -XpXu 1 >.Q.`.j.p.u.t.y.i.i.i.p.d.d.d.d.s.d.d.p.p.p.i.i.u.t.y.g.Q._.l.%.< 7.hX+.P                   ",
"                  J L &XOXu 1 ;.E._.~.h.i.t.r.r.u.y.y.y.i.y.y.y.y.y.u.t.t.t.y.d.W._.`.<.t < 7.;X| P                     ",
"                      J o.1Xv < t ,.Q.~.~.k.s.y.r.r.r.r.r.r.r.r.r.r.r.u.p.f.W._._.E.;.2 5 B E P                         ",
"                        P R %Xn.3 1 %.,.!.~.~.~.W.k.f.d.d.s.d.d.g.f.j./.Q.~.~.E.>.e < ; C L J                           ",
"                            Y | [ n 5 1 t ;.l.E.Q._._._._._.^./._.~./.!.E.,.%.e 5 $ M U T                               ",
"                                } } [ c 0 < < e t ;.>.,.,.,.,.,.>.;.%.t 2 < X ; M D E                                   ",
"                                    ..X.{ ' b l a 5 5 < 5 2 2 5 5 5 5 8 , M ( ] ..                                      ",
"                                          { { [ [ ' ' N N N N N N / ] ] ] { {                                           ",
"                                                  { {                                                                   ",
"                                                                                                                        ",
"                                                                                                                        "
};
