/* XPM */
static char *dragon_fly1647022610[] = {
/* columns rows colors chars-per-pixel */
"70 70 244 2 ",
"   c None",
".  c #0C0609",
"X  c #150101",
"o  c #1C0100",
"O  c #150D0D",
"+  c #1B0B0A",
"@  c #1C0708",
"#  c #0D0B13",
"$  c #0B0718",
"%  c #170816",
"&  c #1D1C1D",
"*  c #191216",
"=  c #220201",
"-  c #2B0400",
";  c #2A0608",
":  c #3C0C01",
">  c #33030B",
",  c #3D0109",
"<  c #350407",
"1  c #2C1309",
"2  c #23091B",
"3  c #2C0C1A",
"4  c #280915",
"5  c #370818",
"6  c #221C1C",
"7  c #2A1C1B",
"8  c #271715",
"9  c #341E1B",
"0  c #371818",
"q  c #3E140D",
"w  c #2C2219",
"e  c #3B2C1C",
"r  c #35261A",
"t  c #3B311E",
"y  c #0C0525",
"u  c #140D26",
"i  c #12052C",
"p  c #130B2B",
"a  c #1A0625",
"s  c #1A1626",
"d  c #0C0231",
"f  c #180231",
"g  c #24032D",
"h  c #2A042E",
"j  c #260625",
"k  c #330524",
"l  c #3D0522",
"z  c #33042C",
"x  c #3C032B",
"c  c #3C0F23",
"v  c #281823",
"b  c #3B1B23",
"n  c #381726",
"m  c #200230",
"M  c #2A0632",
"N  c #380637",
"B  c #2B1B34",
"V  c #1E222E",
"C  c #242224",
"Z  c #2C2323",
"A  c #2D2A2C",
"S  c #27252C",
"D  c #342C25",
"F  c #3B232A",
"G  c #322B2B",
"H  c #362828",
"J  c #3B372A",
"K  c #332C32",
"L  c #3C2B33",
"P  c #342838",
"I  c #353232",
"U  c #3E3233",
"Y  c #3D3C3C",
"T  c #3B353A",
"R  c #2E302F",
"E  c #45020C",
"W  c #450315",
"Q  c #4B0B16",
"!  c #43051C",
"~  c #4B051C",
"^  c #420B1C",
"/  c #460813",
"(  c #54011B",
")  c #5B031C",
"_  c #530A1A",
"`  c #580816",
"'  c #46151B",
"]  c #571A1B",
"[  c #64031D",
"{  c #6C011E",
"}  c #66121E",
"|  c #75171D",
" . c #48291A",
".. c #54291C",
"X. c #4C351B",
"o. c #463319",
"O. c #5A391E",
"+. c #693319",
"@. c #440424",
"#. c #4A0325",
"$. c #4D0B24",
"%. c #43032A",
"&. c #4B0429",
"*. c #440A26",
"=. c #540323",
"-. c #5B0324",
";. c #540B23",
":. c #540429",
">. c #5C032D",
",. c #5D0B2B",
"<. c #580E26",
"1. c #441025",
"2. c #4C1C22",
"3. c #491423",
"4. c #561423",
"5. c #591825",
"6. c #460737",
"7. c #570635",
"8. c #5F1A33",
"9. c #650124",
"0. c #6C0223",
"q. c #640D24",
"w. c #6C0A25",
"e. c #63042B",
"r. c #660C29",
"t. c #6A0A2B",
"y. c #6C052C",
"u. c #720122",
"i. c #790324",
"p. c #720C23",
"a. c #72042B",
"s. c #7C052B",
"d. c #7B0A2B",
"f. c #77092C",
"g. c #6A1226",
"h. c #641B23",
"j. c #64162B",
"k. c #6A1C26",
"l. c #741424",
"z. c #74122C",
"x. c #791828",
"c. c #650332",
"v. c #6C0432",
"b. c #6A0930",
"n. c #65063A",
"m. c #740431",
"M. c #7C0530",
"N. c #760932",
"B. c #7B0B31",
"V. c #7C1032",
"C. c #43232D",
"Z. c #422B2F",
"A. c #4B2527",
"S. c #552729",
"D. c #463726",
"F. c #583A22",
"G. c #432431",
"H. c #472D33",
"J. c #443837",
"K. c #503135",
"L. c #672628",
"P. c #742426",
"I. c #653A22",
"U. c #783B28",
"Y. c #632638",
"T. c #712132",
"R. c #3E403F",
"E. c #5B4519",
"W. c #67491A",
"Q. c #78481E",
"!. c #6C5618",
"~. c #7C5719",
"^. c #7F6214",
"/. c #564423",
"(. c #55472D",
"). c #6B4E27",
"_. c #333B47",
"`. c #49484B",
"'. c #891D1F",
"]. c #830A25",
"[. c #85032D",
"{. c #89042E",
"}. c #840B2C",
"|. c #8F0A2D",
" X c #810525",
".X c #930B2D",
"XX c #9A0F2D",
"oX c #841526",
"OX c #81122B",
"+X c #8D132B",
"@X c #8C1A2A",
"#X c #861B28",
"$X c #99172A",
"%X c #830530",
"&X c #8C0430",
"*X c #830B31",
"=X c #8B0D31",
"-X c #930C30",
";X c #910730",
":X c #851231",
">X c #8A1232",
",X c #8A1C33",
"<X c #931332",
"1X c #9C1432",
"2X c #951932",
"3X c #9C1B32",
"4X c #A41B2C",
"5X c #A91B29",
"6X c #A41C32",
"7X c #A91F32",
"8X c #A01632",
"9X c #882527",
"0X c #93232C",
"qX c #9B262D",
"wX c #992629",
"eX c #873524",
"rX c #982336",
"tX c #9F303C",
"yX c #A52528",
"uX c #BD2B25",
"iX c #B52627",
"pX c #AD2333",
"aX c #AC2D36",
"sX c #B22634",
"dX c #B42A34",
"fX c #B92E35",
"gX c #B82C3B",
"hX c #BD3336",
"jX c #B23433",
"kX c #A0302B",
"lX c #C13536",
"zX c #85581B",
"xX c #97561F",
"cX c #986B1D",
"vX c #8D4C23",
"bX c #845522",
"nX c #A75827",
"mX c #916120",
"MX c #A87123",
"NX c #892740",
"BX c #A12D45",
"VX c #B3334C",
"CX c #BF445B",
"ZX c #C8444F",
/* pixels */
"                                                                                                                                            ",
"                                                                                                                                            ",
"                                                                                  Y O O I                                                   ",
"                                                                          (.A * + @ X O                                                     ",
"                                                                    Y 6 * . X X o o + Y             H.Y                                     ",
"                                                                w 8 @ X X X X o o @             L ;.^                                       ",
"                                                          Z * @ X X X X o o o o o 7           G.-.$.Y                                       ",
"                                                      6 O o X X X X o o o o o = @         G.<.w.3.                                          ",
"                                                G + @ o X X X o o o o o o o = = +     C.r.s.=X4.                                            ",
"                                            7 @ o X X X X X o o o o o = = = = - > L $.a.XX8X@XC.                                            ",
"                                        w @ o X X X o o o o o = = - = - - - < _ f.a.B.2X6X8XS.                                              ",
"                                    G @ o o o o o o = = = = = - - - - - : , -.}.*X-X1X6X7X0XJ.                                              ",
"                                  7 o X X o o = = = = = = = = = = o ; W | y.d.=X3X6X6X7XdXL.                                                ",
"                                G = o o o = o o o = o o = o o o = , } d.M.[.1X6X7X7XdXfX0XH.                                                ",
"                                8 = X o = = o = = = = o = o ; > ~ d.>X>X<X1X6X6X7XdXhXsXk.                                                  ",
"                                @ o X o o o o o o o o = = > w.OXm.m.>X6X6X7XpXsXsXsXsXpX'                                                   ",
"                              Z o X X o X X o o o X o ; 5 s.2X=X=X<X6X6X6X7XsXdXsXpXfXhXP.                                                  ",
"                              Z X X X o o o o X o ; ! p.s.N.V.2X8X6X6X6XpXpXpXpXsXhXhXlXjXS.H.  n C                                         ",
"                              7 X & * o o o X o W t.*XV.B.>X1X-X-X6X6X7XpXpXsXdXhXhXlXlXfX3Xr.3 C.                                          ",
"                              A C     @ o = > ) *X*XN.B.<X-X{.XX6X6XpXpXpXdXfXhXhXdXsX6X.X;.b                                               ",
"                                      6 @ ~ OXB.N.N.<X1X;X&X-X6XsXpXsXdXfXfXpX<X|.=X=X<X5.T                                                 ",
"                                      K =.*XB.N.=X-X-X&X&X&X-X1X6X6X6X1X<X-X-X1X1X3X0X]                                                     ",
"                                    I 3.m.v.v.=X%Xm.m.m.M.m.N.M.*X*XM.*XB.*X6XfXfXgXP.                                                      ",
"                                  K.l.d.c.v.%X%XM.N.=X2X2X1X3X3X6X6X3X6XpXpXdXdXdXqXK.                                                      ",
"                                  4.-Xv.c.M.M.M.[.-X6XsXsXsXsXsXpXdXdXdXfXhXfXhXjXS.                                                        ",
"                                S.M.v.c.M.&Xm.c.v.m.%X-X8X6XpXsXsXdXgXgXfXlXlXhXP.                                                          ",
"                                l.=X&.1.a.[.{.m.:X>XN.v.m.B.-X6XpXhXhXlXlXhXhXhXL.                                                          ",
"                                z.8.J.  L e.&X%X=X6X6X3X<XB.c.m.>X6XsXdXhXlXlXaXK.                                                          ",
"                                Z.        n v.[.*X2X6X7XpX6X<X:XB.N.M.-XXX6XdXqXH                                                           ",
"                                          L &.m.%X=X8X6X6X6X7X6X6X2X=X=X%X&X-X}.c                                                           ",
"                                            *.c.M.%X1X7X6X6X6X7X6X6X6X3Xd.e.$.*.b * 3 3 H.                                                  ",
"                                            c c.m.&X1XpXpX7X6X7X7X7X6Xx.2.* Z         L I                                                   ",
"                                            4 :.c.%X&X=X>XsXdXfXsXsX9XT     C `.                                                            ",
"                          G     D.o.      A X ! c.m.N.c.B.dXhXhXhXfXL.                                                                      ",
"                        D.D.  (.W.D.      w 1 3 >.c.c.c.3XhXhXlXlXqXL                                                                       ",
"                      W.E.    W.W.      1 X...5 c.c.c.c.>X3XpXhXlXqXZ.                                                                      ",
"                    e W.    o.o.    D r 0 ] Q ,.c.c.b.b.e.b.B.+X3X2XG.                                                                      ",
"                    !.!.  /.W.H J 9 X.] 4.g.r.t.t.<.0XyX].+Xx.j.z.f.r.F     7 G                                                             ",
"                  /.^.J F.cXO.0 F.2. .k.x.j.e.q.q.! l.x.9.d.w.$X0Xx.wXh.8 1 : : 7                                                           ",
"                  ).E.w MXbX .' 2.] h.+XpX<.%.$.#.#.@.#.! #.#.q.w.oXuX$X+. .: : ;                                                           ",
"                  !.O.O.mXS.<.g.#Xl.@X5XiX| =.-.y.u.9.9.[ 0.[ 9.9.w.+X.XkXeXq - = w                                                         ",
"                w W.I.MXbXg..X8XsXjX$X.XiX4Xi.9.9.u.u.u.u.i.u.i.u.i.%X[.4X$X.. .r 8                                                         ",
"                L.0X0XnX+.u. X.X4XiXoX{..X Xu.>.>.u.u.u.u.u.{ u.` { [.-.q.oX'.yXeXr J                                                       ",
"              S.pXqXpX0X` ` E ` ].$X| ) { i.i.7.-.u.{ u.u.u.u.{ _ Q ) ~ } iXuXiX$XeXI.I                                                     ",
"            K.0XVXyXqX,XE , , , ` [ , E  XXX.Xv.7.{ 0.u.u.u.{ [ Q Q ] ..yXlXuXiX.X$X9Xr                                                     ",
"            h.VXBXeXeX2XE , < , , , < [ .X4X;Xm.6.>.@.[ [ { [ Q / / / '.uXuXiX4Xi.{ ,.h.5 Z                                         P &     ",
"            g.,Xz.).9XBX9Xk./ , , , E [ ;XXX;Xs.6.% 5 Q / ` 5 5 Q Q } iXuXiX.X[ _ #.x <.4.' I                                   w r v       ",
"          Z.j.,X@XOXrXZXZXjX] 4 - < < ) |..X.Xd.6.$ 5 > ~ / O 4 j 5 $XuXiXi.( W %.N h %.;.^ F.H                               D. .H         ",
"          L.pXsXsXsXaXVXtXT.      7 X W [..X].i.6.% O . O O # i $ Q iXiX{.$.@.%.N N M %.@.*.5.0 /.D.                        D.b 3           ",
"          #XdXsXsX7X2Xj.v G           3 [ i.d.i.7.P R v # . # $ * '.uXd.9.%.N N N N M %.x @.5 3.U.r                       r r n             ",
"        P.pX$X7X+XY.G.v K               $.i.+Xd.n.N       & v C 3 iX5X[ %.N N M M M $ m f %.%.%.l 5 o.D               J D.S.5               ",
"        x.7X+X].j._.V C                 C.z.>XN.n.N             , '.p.) :.l ! =.>.5 * B p g z %.z l 2.' t 6 r D U D t D.5.k                 ",
"        x.].i.w.P & R                 H.k.>Xd.a.7.P             0 ) -.) 9.s.i.a.a.9.^ `.`.f f f m x z l  .8 ..0 A.A.g g k v                 ",
"        ( { W C.                  F _ #X>XB.a.>.b                 ! -.) -.=.-.( ) ) ( 3 Y S i d f h h %.^ 4 ^ 2 j *.j a K                   ",
"        F 4                     F j.3XBX<.#.%.n                   n 5 l h g z x &.( ) W 2 s C s i d f x %.h x x f g v                       ",
"                               .j.V.VXrXv                           T % $ $ y i g @.( ( ~ a s   S u i d h f g j u I                         ",
"                              ~.vXL.BXA.                                  I S $ % 4 @.( ( 5 a C       V $ s p #                             ",
"                            X.cX~.vXL.                                        I * + 4 ( ( 9.! %                                             ",
"                              ).o.zXD                                             T * @.w.rXV.' v                                           ",
"                              J   W.                                                  2.BX,Xl.xXQ.                                          ",
"                                  w                                                     T.z.' +.bXD                                         ",
"                                                                                        J. .~.X. .D                                         ",
"                                                                                            W.W.I                                           ",
"                                                                                              J.                                            ",
"                                                                                                                                            ",
"                                                                                                                                            ",
"                                                                                                                                            ",
"                                                                                                                                            ",
"                                                                                                                                            ",
"                                                                                                                                            "
};
