/* XPM */
static char *hero_down1647022848[] = {
/* columns rows colors chars-per-pixel */
"70 70 235 2 ",
"   c None",
".  c #0A181E",
"X  c #0D1C22",
"o  c #0F2227",
"O  c #102227",
"+  c #132429",
"@  c #162B2F",
"#  c #1C3436",
"$  c #24383A",
"%  c #3D343C",
"&  c #543535",
"*  c #763E39",
"=  c #6B332D",
"-  c #1E443F",
";  c #24413F",
":  c #69433F",
">  c #73433D",
",  c #7B423C",
"<  c #734436",
"1  c #223F41",
"2  c #453C44",
"3  c #2C4D4A",
"4  c #274744",
"5  c #364C49",
"6  c #2C524D",
"7  c #26534F",
"8  c #33534E",
"9  c #3C514A",
"0  c #355651",
"q  c #395A54",
"w  c #375C56",
"e  c #325350",
"r  c #3C635D",
"t  c #36605B",
"y  c #215D61",
"u  c #176769",
"i  c #3C6661",
"p  c #3D6962",
"a  c #3C6D69",
"s  c #3D716A",
"d  c #4C434A",
"f  c #464948",
"g  c #55474A",
"h  c #544D52",
"j  c #475856",
"k  c #595459",
"l  c #435250",
"z  c #664948",
"x  c #784B45",
"c  c #79544E",
"v  c #675759",
"b  c #785C57",
"n  c #6F524F",
"m  c #48655B",
"M  c #57655B",
"N  c #71685A",
"B  c #645E63",
"V  c #416B63",
"C  c #466F68",
"Z  c #596A68",
"A  c #44736C",
"S  c #49796E",
"D  c #457671",
"F  c #467972",
"G  c #4A7D74",
"H  c #497671",
"J  c #5B7066",
"K  c #696668",
"L  c #766B6B",
"P  c #746E71",
"I  c #7A7676",
"U  c #6C7570",
"Y  c #873D2D",
"T  c #894437",
"R  c #934D3D",
"E  c #864D45",
"W  c #87554A",
"Q  c #94544A",
"!  c #965549",
"~  c #865B53",
"^  c #945C52",
"/  c #924E43",
"(  c #A5584D",
")  c #A55C51",
"_  c #AC5D51",
"`  c #8C635A",
"'  c #9D6A5A",
"]  c #966857",
"[  c #906851",
"{  c #A56454",
"}  c #AB6354",
"|  c #AC6D5C",
" . c #A66A5A",
".. c #B36355",
"X. c #B66B5A",
"o. c #B5745D",
"O. c #896B65",
"+. c #966E65",
"@. c #897469",
"#. c #997669",
"$. c #887A77",
"%. c #977D77",
"&. c #A87867",
"*. c #BA7C65",
"=. c #B37764",
"-. c #A9786E",
";. c #C07D62",
":. c #4E8379",
">. c #4B8175",
",. c #51877A",
"<. c #548C7D",
"1. c #568675",
"2. c #5A937E",
"3. c #7C8276",
"4. c #8B827C",
"5. c #9A857E",
"6. c #B3816D",
"7. c #BA856C",
"8. c #BC8A6D",
"9. c #BD8466",
"0. c #A68678",
"q. c #B48573",
"w. c #B98977",
"e. c #B68C76",
"r. c #B1805F",
"t. c #C38E6A",
"y. c #C28566",
"u. c #C5946D",
"i. c #CA996E",
"p. c #C28C79",
"a. c #C69377",
"s. c #D09E7A",
"d. c #827E80",
"f. c #3E9293",
"g. c #5A9382",
"h. c #5E9985",
"j. c #569385",
"k. c #4B938B",
"l. c #619D87",
"z. c #629E88",
"x. c #789291",
"c. c #65A38A",
"v. c #69A88C",
"b. c #6DAE90",
"n. c #74B895",
"m. c #6EB091",
"M. c #28C1BE",
"N. c #7BC29B",
"B. c #2CC8C5",
"V. c #73EDE8",
"C. c #8A8586",
"Z. c #928E8C",
"A. c #998C89",
"S. c #8B9798",
"D. c #9B9693",
"F. c #9B9895",
"G. c #8F948D",
"H. c #A78C85",
"J. c #AB9789",
"K. c #BB9786",
"L. c #A39B95",
"P. c #AC9C95",
"I. c #B2968C",
"U. c #A9A39B",
"Y. c #B5A59A",
"T. c #B8B19F",
"R. c #99A4A4",
"E. c #ABABAA",
"W. c #B6ABA3",
"Q. c #B9B4AA",
"!. c #ADB3B2",
"~. c #8FA19C",
"^. c #CA9984",
"/. c #D29D85",
"(. c #CBA48C",
"). c #D6A58B",
"_. c #CBA995",
"`. c #DDAC93",
"'. c #D5AB92",
"]. c #D6B398",
"[. c #C9B199",
"{. c #EBBA9E",
"}. c #E4B397",
"|. c #E1AF94",
" X c #C6B7A8",
".X c #D7BBA5",
"XX c #C6BBB5",
"oX c #DBBBB5",
"OX c #ECBEA2",
"+X c #E5BCA3",
"@X c #F0BEA0",
"#X c #B7C2BF",
"$X c #C6C3B9",
"%X c #D5C4B4",
"&X c #EBC4AA",
"*X c #F3C6AA",
"=X c #F4CAAD",
"-X c #F8C9AA",
";X c #ECCDB4",
":X c #F3CCB3",
">X c #F6CEB4",
",X c #FDD2B3",
"<X c #FBD5BA",
"1X c #F7D5B9",
"2X c #EFD0B9",
"3X c #C1BDC0",
"4X c #BEC6C5",
"5X c #AAE1CC",
"6X c #AAE8D7",
"7X c #82FBF5",
"8X c #A1F3F0",
"9X c #8FE7D7",
"0X c #CBC9C3",
"qX c #D5D3CB",
"wX c #D7DAD7",
"eX c #CADAC4",
"rX c #E9D7C6",
"tX c #FDDDC3",
"yX c #F2D7C2",
"uX c #E0D0C9",
"iX c #DFE1DC",
"pX c #C7E2CD",
"aX c #FEE4CB",
"sX c #FEE9CE",
"dX c #FAE2C9",
"fX c #FFECD3",
"gX c #FAE9D8",
"hX c #FFF2DB",
"jX c #FFF0D7",
"kX c #CDFBF8",
"lX c #E7EAE7",
"zX c #FCF6E8",
"xX c #FEFEFE",
"cX c #F6F6F3",
"vX c #F0E8E6",
/* pixels */
"                                                                                                                                            ",
"                                                                                                                                            ",
"                                                                                                                                            ",
"                                                                                                                                            ",
"                                                            X + + o o + + o + o o o X X                                                     ",
"                                                      # 1 w F >.A A D A D A A F >.G i 3 # # #                                               ",
"                                                  4 i :.j.g.<.:.G D V V V C >.:.g.l.g.g.g.:.p 6 @                                           ",
"                                            . 4 A <.g.h.h.h.,.D D i 0 0 0 q D F G h.n.n.c.c.j.>.A 3 O                                       ",
"                                        o 3 c.v.v.n.h.>.s s s >.C q q 0 0 0 q A F D g.c.v.N.n.c.g.G q $ +                                   ",
"                                  # r A <.c.v.c.g.>.F D :.<.<.>.G F A D A D S F >.2.>.>.h.v.n.n.b.j.G D q $ X                               ",
"                              X # w H <.2.<.F ,.<.:.j.g.j.z.c.l.l.<.D F s >.<.c.b.m.c.j.,.g.l.l.n.b.g.<.:.A # +                             ",
"                                . 4 V p 1.v.c.b.v.<.j.:.>.:.2.z.g.G D <.<.,.>.<.c.m.v.c.z.2.>.D >.g.c.c.j.G A e # O                         ",
"                              # i D :.l.n.N.v.2.F A r r S 2.2.2.g.:.F s >.h.2.l.<.>.1.2.c.h.1.A F G G G G G C j 5 1 5 l                     ",
"                            # 3 p F h.N.n.h.2.S i w m 1.2.>.s t t Z L 3.G.S.1.>.,.F r t C S >.>.:.D V q r C G G q + R.xX                    ",
"                              l + 0 h.v.2.S >.t V 2.z.>.w N 0.T.Q.%X2XfXsX1X[.3.t s t M 4.U C C r r r w 0 q r p 0 $ E.xX                    ",
"                                Z m p A r q q 0 6 7 M M N %XsXjXfXhXzXxXzXsX1X1X[.U Y.2X,X;X.Xe.N 5 8 i r 8 4 5 I wX                        ",
"                                xXx.X 3 q 8 3 4 9 4.i.{.@X@X=XtXsXsXsXjXhXsX,X,X,X:X>X,X,X,X>X2X&XJ.N 3 6 3 O S.xXxX                        ",
"                              S.h 1 4 8 4 9 #.K.(.).].[.T.s.).@X=X=X1XsXtX-X-X-X=X*X}.].[.]. X.X&X].6.; 7 t ; $ U cX                        ",
"                            $ $ 5 r V V 0 j e.a.4.j x.~.x.k.2.H.}.-X=X;X=X-X-X=X+XJ.j.k.x.S.U V +.8.6.l 3 w i e w R.wXxX                    ",
"                            4 3 0 i A i w M e.O.I #XlXkX7X8Xz.# J Q.dX2X=X-X-XU.J # m.8X7XkXlX4XU @.e.M r D G V 3 - !.xX                    ",
"                              6 6 p F p w m 4.W O.%XvXkXV.k.y u B.9XhXhXdX,X=X9XM.u y f.V.kXvXXXc ^ e.M t C w w 7 - !.xX                    ",
"                              X o 4 D t r r q M O. .K.%XgX5X5X5X5XpXsXxXzXsX=XeX6X5X5XpXdXgX.X .x b U J 6 q R.Z 8 ~.wX                      ",
"                                      4 6 0 j 9 f z E -.&X2X,XtXsXhXzXjXdX,X=X,X<XdX1X2XuX_.+.: 9 8 8 q 8 Z lXlX0X                          ",
"                                        m l @.$.I C.L n x  .w./.&X+X|.|.].'.[.].]._.e.] c & d j 0 M N N I E.lX                              ",
"                                      g K d.%.d.D.U.Q.W.A.L W ^ ] ' ' ' ' ' ' &.] z ^ _ ^ ^ W z h @.).).0.b k S.                            ",
"                                      h d.F.%.Y.uXiXwX!.C.C.C.$.$.e.(.(.(.(.(.[ > ) ..*.t.;.X._ : & v a.).q.d P                             ",
"                                  k P F.Q. XI.XX0XE.d.P I 5.H.L.G.4.J.dXzXrX&.Q Q =.t.8.7.*.{ E 0.#.c &.s.^.2 k                             ",
"                              d P U.Q.$XU.Z.D.H.d.B I Z.L.P.Y.Q.wX$XU.0.@.~ ! | 7.8.8.8.y.} E b qX.XW g g Z R.                              ",
"                                K L P P b b O.d.%.B O.J.W.Y.XXwXlXcXwXJ [ i.t.t.a.i.t.*.( = @.vXzX&Xq.z A.cX                                ",
"                                    E.3X-.} }.|.0.B L.0XqXwXlXcXlX$XH.K 4.t.9.u.u.8.| X._ = @.cXfXjXrX~ %.                                  ",
"                                      xXK.! }.).-.b F.!.E.F.!.0XP.U.Y.C.&.o.{ | X.} .._ ! = +.dXjXjX2X&.~                                   ",
"                                      xX_./ ^.^.p.{ n v Z.E.!.E.Y.A.L M b [ o.r.o._ Q E E W 6.&XdXsXtX*X=.*                                 ",
"                                      xXH.E }.`.q.] > ,  .@.4.4.P O.] : z N c ^ ) _ ! _ ..^ q.&XaXfXtX*X*.T                                 ",
"                                      W.H.q.OX).6.&.x > Q T T [ ' 0.0.-.0.#.N z z / Q Q Q Q -.*XsXfXtX*X*.Y                                 ",
"                                      = q.*X/.w.p.a.> b XX X[.[.1XsXdX{.{.{.(.` n v z b W.#.-.OXtXfXtX*X*.T                                 ",
"                                       ./.`.*.p.^.q.&.K.1X<XaXjX1X&X).|.=X1X{.{.).+.v k v W *.&XtXtXtX*X*.T                                 ",
"                                  & E }.).*.^.^.-.] ].1X=XtXsXsX+X^.*.`.:XtX;X{.}.@X XP.#.Q =.OXyXtXtX*X*.Y                                 ",
"                                  * ! |.`.^.w.-.^ E w.+XfXhXhXsXaX+X).:XdXaXtX*X{.OX).7.| ^.+XtXtXaXtX*X*.R                                 ",
"                                  Y ! p.`./.] ` ^ W Y ~ e.Y.P.P.P. XrXgXsX<X&X^.&.' ` -.;XtXtXtXaXtX:X@X*.E                                 ",
"                                    R 7.^.w.] /.OX(.^ E [ '  .] / Q O.O.` ` ] > > -.' 0.sXsXtXtXtX1X`.+.H.3X                                ",
"                                      R | -.] /.<XaX~ * 8.u.8.8.X._ ( ( _ _ } } | &.] -.@XtXtX2XaX2Xa.E H.                                  ",
"                                            / /.=X;Xb < 8.i.u.7.*.q.=..._ } 7.8.8.u.[ ~ K.&X>X`.K.-.-.I.                                    ",
"                                            T  ./.OXuXP.< r.i.8.6.*...) | 6.q.u.i.t.R : +. .+.%.XXwX                                        ",
"                                                ..OXcXQ.& o.s.8.8.8.7.} { =.7.u.y.} > ` |. .K.cX                                            ",
"                                                 .OXzXW.& ! y.i.8.8.7.{ ) | t.u.9..., ` `. .q.xX                                            ",
"                                                  /.OX(.` / { 8.8.8.u.7.=.*.p.u.y.} > ` {.| -.xX                                            ",
"                                                  R ).<X2Xx , i.8.u.u.8. .{ *.p.y...* ` &Xo. .                                              ",
"                                                  < p.{.@X~ x p.i.i.i.8.| ) { 7.t.} , , =.oXvX                                              ",
"                                                    Y 7.*X` , ..t.i.i.8.| ( _ *.y._ , z +.wXxX                                              ",
"                                                      *.`.~ , ..t.i.i.8.| ) _ ;.t...* z C.wXxX                                              ",
"                                                      O.+.z x ..t.s.i.7.| ) _ ;.t...Y z d.iXxX                                              ",
"                                                    % B C.v Y ..9.i.u.w.| ( ..X.*...x x d.C.Z.                                              ",
"                                                        v 2 T } *.8.t.8.=._ ........E O.L.K 2                                               ",
"                                                        2 b ` Q / { y.=.X._ Q / / Q %.Z.5.A.P 2                                             ",
"                                                        d C.Z.$.%.O.x E x W %.$.$.$.d.P.Y.L.L 2                                             ",
"                                                        d $.F.L.U.L.D.D.P B D.L.A.%.A.F.F.H.b 2                                             ",
"                                                        d Z.Q. XQ.XXQ.L.P K I P P Z.Z.Z.Z.P k                                               ",
"                                                        d F.Q.Z.Z.U.Q.F.I K C.    h k h h                                                   ",
"                                                        k C.A.4.L.F.C.Z.F.d.d                                                               ",
"                                                      k D.W.Y.Y. XW.U.G.F.d.d                                                               ",
"                                                      P F.W.$XlX$XU.0.W.W.C.d                                                               ",
"                                                          0XiXlXlXqX$XQ.qX0Xk                                                               ",
"                                                          wXlXiXcXlXwXwXqXW.v                                                               ",
"                                                            eXlXlXlXwXXX XJ.x                                                               ",
"                                                                $X$X X5.                                                                    ",
"                                                                                                                                            ",
"                                                                                                                                            ",
"                                                                                                                                            ",
"                                                                                                                                            ",
"                                                                                                                                            "
};
