/* XPM */
static char *hero_right1647022959[] = {
/* columns rows colors chars-per-pixel */
"70 70 233 2 ",
"   c None",
".  c #193837",
"X  c #122A2D",
"o  c #27393B",
"O  c #3B323B",
"+  c #0D1F24",
"@  c #481919",
"#  c #572926",
"$  c #593535",
"%  c #66342E",
"&  c #673B36",
"*  c #763B35",
"=  c #6C433D",
"-  c #75423C",
";  c #79423C",
":  c #353E44",
">  c #453C44",
",  c #254944",
"<  c #2A4B48",
"1  c #2A524D",
"2  c #265049",
"3  c #33534E",
"4  c #2B5551",
"5  c #365651",
"6  c #355953",
"7  c #3A5A54",
"8  c #375B57",
"9  c #38494C",
"0  c #3D635D",
"q  c #34635C",
"w  c #3D6A64",
"e  c #3E6660",
"r  c #3F716C",
"t  c #4C444B",
"y  c #54494E",
"u  c #544C52",
"i  c #584F54",
"p  c #485A58",
"a  c #5D565B",
"s  c #585657",
"d  c #6A4B48",
"f  c #784C46",
"g  c #7A534D",
"h  c #625A5E",
"j  c #685657",
"k  c #795A56",
"l  c #62544B",
"z  c #4E6159",
"x  c #74635D",
"c  c #645D63",
"v  c #416B64",
"b  c #426E68",
"n  c #486863",
"m  c #586864",
"M  c #44736C",
"N  c #4B796E",
"B  c #457671",
"V  c #477972",
"C  c #4A7C74",
"Z  c #4C7B75",
"A  c #507269",
"S  c #6B6769",
"D  c #75696A",
"F  c #76766D",
"G  c #736D71",
"H  c #7A7375",
"J  c #7B7778",
"K  c #6A7370",
"L  c #8B4A3D",
"P  c #854C44",
"I  c #8C4D44",
"U  c #914E44",
"Y  c #825245",
"T  c #83544B",
"R  c #8B5C4E",
"E  c #8C5449",
"W  c #9B554B",
"Q  c #98594B",
"!  c #8D5C52",
"~  c #865B54",
"^  c #905E52",
"/  c #AD5D51",
"(  c #A45C50",
")  c #AA5C50",
"_  c #8B6458",
"`  c #986658",
"'  c #9A614D",
"]  c #A46C5D",
"[  c #A96858",
"{  c #B46355",
"}  c #B86758",
"|  c #A7745A",
" . c #B5755D",
".. c #A26A4F",
"X. c #876A67",
"o. c #9E7466",
"O. c #827D7D",
"+. c #8A7673",
"@. c #977A78",
"#. c #8D7163",
"$. c #A47465",
"%. c #AA7867",
"&. c #B37C6B",
"*. c #B57A66",
"=. c #A97C70",
"-. c #C26E5C",
";. c #C37D68",
":. c #4D8176",
">. c #4E8479",
",. c #548C7D",
"<. c #54887A",
"1. c #5A917E",
"2. c #728378",
"3. c #968578",
"4. c #8E867B",
"5. c #B3816E",
"6. c #B68566",
"7. c #A88678",
"8. c #B98976",
"9. c #BB937D",
"0. c #AE8672",
"q. c #C18967",
"w. c #C28775",
"e. c #CA947D",
"r. c #C5957B",
"t. c #C8936B",
"y. c #847F83",
"u. c #339893",
"i. c #568F83",
"p. c #5A9482",
"a. c #5E9985",
"s. c #579080",
"d. c #629E88",
"f. c #609C86",
"g. c #758C8A",
"h. c #64A28A",
"j. c #6AAA8E",
"k. c #6BA68C",
"l. c #6DAF91",
"z. c #6EB192",
"x. c #75B996",
"c. c #79A396",
"v. c #65B0A7",
"b. c #7CC39B",
"n. c #53D6CD",
"m. c #6BE5DC",
"M. c #8B8684",
"N. c #8E8A8B",
"B. c #8A8786",
"V. c #928E8D",
"C. c #918B86",
"Z. c #96918E",
"A. c #969392",
"S. c #9A9594",
"D. c #9D9B94",
"F. c #9B9999",
"G. c #8C9792",
"H. c #A58A86",
"J. c #B89584",
"K. c #A19B94",
"L. c #A69B98",
"P. c #B19B97",
"I. c #A0988C",
"U. c #A6A29C",
"Y. c #ABA59B",
"T. c #ACA79C",
"R. c #B7A298",
"E. c #AAA8A5",
"W. c #B3ADA3",
"Q. c #B6ABA5",
"!. c #BAB4A9",
"~. c #ABB6B6",
"^. c #B7B9B7",
"/. c #9BA7A8",
"(. c #C69A84",
"). c #CD9A83",
"_. c #C69984",
"`. c #D39C86",
"'. c #C39E93",
"]. c #CCA48F",
"[. c #D5A48D",
"{. c #D9A58C",
"}. c #DAA88D",
"|. c #DCAC94",
" X c #D5A791",
".X c #DBB298",
"XX c #CBA998",
"oX c #E2AD94",
"OX c #E4B499",
"+X c #EAB99D",
"@X c #E7B398",
"#X c #C4B9AD",
"$X c #C5BDB6",
"%X c #D2B5B0",
"&X c #ECBDA2",
"*X c #E4BBA3",
"=X c #F0BEA1",
"-X c #81CA9E",
";X c #C8C3BA",
":X c #D6C1BE",
">X c #EDC1A4",
",X c #EDC3AA",
"<X c #E9C7AD",
"1X c #F2C6AB",
"2X c #F4C6A9",
"3X c #EACBB3",
"4X c #F3CDB3",
"5X c #FCCEB2",
"6X c #F7D6BB",
"7X c #ECD4B6",
"8X c #ACD9D8",
"9X c #CCCBC3",
"0X c #CBC5C4",
"qX c #D6D4CD",
"wX c #CBD3D2",
"eX c #D8D8D5",
"rX c #CFD4C6",
"tX c #EAD8C5",
"yX c #FCDCC3",
"uX c #F3DDC1",
"iX c #DBE1D6",
"pX c #FEE2CA",
"aX c #FCE5CA",
"sX c #E4E1DE",
"dX c #FCEBD1",
"fX c #FFF2D7",
"gX c #EBEDEC",
"hX c #E4E6E4",
"jX c #F1EBEA",
"kX c #FDFDFD",
"lX c #F2F6F4",
"zX c #EFF6F2",
"xX c #C6F2EC",
/* pixels */
"                                                                                                                                            ",
"                                                                                                                                            ",
"                                                                                                                                            ",
"                                                                                                                                            ",
"                                                                                                                                            ",
"                                                                  8 1 , , , 1                                                               ",
"                                                    1 w V V b v v v 7 5 5 3 0 v v 0 0                                                       ",
"                                              1 r V V C C C M M v 7 5 7 5 7 3 5 v M M 1.>.2 .                                               ",
"                                          < e ,.a.j.j.d.i.,.C w M C 0 7 q 7 5 8 v M e :.1.1.<.0 .                                           ",
"                                  X < e :.h.x.z.h.j.z.d.>.r V ,.,.V v M :.B e 7 e N :.0 7 n 1.h.<.5 o                                       ",
"                                < 1 s.j.z.b.x.h.h.a.,.M B >.p.h.s.b :.p.a.,.:.r M >.a.p.<.N ,.,.C B 1 +                                     ",
"                              K n M a.x.-Xx.j.f.s.M e e <.h.h.h.<.p N p.d.z.h.,.V V 1.j.x.1.1.:.v 8 1 . .                                   ",
"                          lX^.< 4 >.x.x.j.d.d.p.V :.1.p.a.j.x.j.s.B V a.b.b.b.f.C v 0 :.1.z.z.1.w b 6 9 F.^.                                ",
"                          : . w V s.x.z.a.p.<.M w >.a.h.b.b.j.>.B B r >.z.x.h.r 4 S 9.x z 2.z.1.<.p.c.~.zXkX                                ",
"                          E.g.8 w i.d.p.>.V b 0 8 v C <.h.z.h.:.B Z J J B ,.,.V K 7.+X[.r.r.A q N <.r 0 wXkX                                ",
"                          kXeXp 5 M Z V b 0 7 5 5 8 e M M :.p.>.r B 3.7.p q 2.XX>X+X|. XOX>Xr.#.p 8 5 n wXkX                                ",
"                              lXg.X < 6 5 5 5 5 , 3 5 5 5 v :.M N F 7.`..X3.3.@X|.r.0.0.e.=X2X}.%.l o 3 wXkX                                ",
"                              kXwXG.< , 5 8 5 5 p 7 5 5 < 3 B q s 6.e.|.+X&XoXe.w.8.7.I.].4X2X[...% D ^.hX                                  ",
"                              kXhX/.5 6 v b n v M p 5 0 5 3 0 #.5.8.{.&X&Xr.0.8.r.E.m.n.v.I.3X.X' # @.kX                                    ",
"                            kXkXg., Z Z N N Z B v 7 0 C 0 5 7 ^ ;.{.@X+X+X(.J.%XgXzX8Xi.u.m.rX@X&.I ~ L.hXkX                                ",
"                          kXeXm 0 C p.p.,.>.:.C v b B :.N 0 7 g ;.+X+X>X6X<X3XpXlXzXxXm.n.m.iX5X@Xw.; # 0XkX                                ",
"                          kXwX4 1 M C M M v C Z V :.>.>.M v v 2 j }.>X7X6XdXfXfXpXyXyX5X7XtXuX+Xw.Q T @.$X                                  ",
"                            ~., , 7 n v b v M :.<.p.f.,.:.N w q m %.e.OX>X7XaXdXfXfXaXuX3X.X9.` f @.0XkX                                    ",
"                              + X o 3 3 < , n g.c.N q 7 q 6 5 6 z g ~ | ).9.].<XOXoXoX}.&.T - X.$X                                          ",
"                                        o m ^.kXlX~.K p m m 5 F I.I.+.k ~ g f d d d f f g @.;X                                              ",
"                                                lXE.H y.T.!.D.U.T.W.K.Z.4.j D P.T.7._ H.0X                                                  ",
"                                                  u c $XsXgXiX;XT.D.Z.V.A.D S C.4.B.K.J c                                                   ",
"                                                  O S 0XhXgXgXeX;X#XW.U.V.K D 7.$XeXqX!.C.c y                                               ",
"                                                  O h Q.qXiXeX^.!.#XU.M.S A.W.W.sXhX^.!.#XQ.O.G                                             ",
"                                                  > K !.9XrX9XW.D.G.4.D a G F.0X0XeXgXgXiX!.X.k                                             ",
"                                                  $ j 4.U.;X9XZ.D 3.|.|.=.k l S M.F./.;XT.j H                                               ",
"                                                  T g ` k D +.7.`.+X&X1X,X X=.g l h k X._ U XX                                              ",
"                                                OX}.6.= $ R }.=X2X4X6XaXpX6X1X`.=.! E 6.;.} %X                                              ",
"                                                ].9.6.- R ` _ %..XaXpXyXpXpXyX6X1X X&._ L L :X                                              ",
"                                                  k _ #.d = _ Y R 8.}.>X4XyXpXpXpX,X).e.%.g H.P.H.                                          ",
"                                                  0.J.9.P.3.= ` %.E T %.[.&X6XyXyXyX4XoX{.}.8.$._ *                                         ",
"                                                L {.2X=X5X|.= R *.q.*.` P Q &.|.OX,XyXyXyXyXyXyX4XT                                         ",
"                                                  {.2X=Xe.] Y W [ *.6.q.*.W P ! &.w.9.*X5X4XpXfXaX@.                                        ",
"                                                  *.] Y o.P. XoXoXoXw.[ [ / / W P f ` ] 5.e. XJ._                                           ",
"                                                  kX:Xf Y R P %.8.8.OXoX;.w.w.;.;.&.] #.X.+.~                                               ",
"                                                  @.@.| Q E E E U U ` $.o.=.=.o.o.` $.qXkXkX                                                ",
"                                                  @ - `.[.|..X` P R U I U U ' 6.6.| Q E H.jX                                                ",
"                                                @ # _ 2X2X4XdX6X,X+X&.` %.7.=.] 6.t.t.L y.kX                                                ",
"                                                # # _ >X2X<XyXpXyX4X,XOX|.5XJ.& | t.| * +.jX                                                ",
"                                              J.%.; ~ [.oX&XyXpX6X,XOX[.[.=X_.& | q.{ - % g :X                                              ",
"                                            d %  .E g r.{.OX4XyXyX<X.X[.|.5X_.= ..-.{ ; * ] qXkX                                            ",
"                                        ;Xd R  .[ ] ! g &.`.).3X6XOX[.[.oX2X_.= ' -.{ ; f ] ] XXkX                                          ",
"                                      0XH.L Q { ] %._ & $.`.w.{.OXOX|.|.|.2X).= W -.{ ; f ` ( &.%XjX                                        ",
"                                  g #.` .. .[ [ %.] ! f =.[.|.3X4X@X|.@X1X&.E W / } { * ~ ).&...' #.Q.kX                                    ",
"                              $ * L Q { } { [ %.*.P g _.OX3XyXyX4X+X+X+XoXT * { { { ( ~ =.|.&.` ` # +.kX                                    ",
"                                H.y.H._ L / { / I ` 5.|.uXyX1X@X|.oX`.%.P P W / } W d `.1X}._.5.( # @.lX                                    ",
"                                    kXeXP.T * ~ 0.[.>X6XaX6XoX[.{.{.&.T & ( -./ { W & ] %._ _ ~ g D X.X.eX                                  ",
"                                        kXgXN.i H 7.].>X+X.X`.e.*.I & # & W } { } ( & y H K.L.S.V.S.J c F.^.E.y.c a c a h                   ",
"                                        wXA.H J W.F.B.4.].e.5.'.#XP.L.P.P.~ * * * * g y S E.;XW.N.A.S.V.H D G G y.A.A.S.M.u >               ",
"                                      c S K.!.$X!.T.S.B.J X.! $XkX                        i M.S.N.Q.E.O.A.S.A.F.F.A.A.V.J u                 ",
"                                      j M.0XiXrXW.Y.D.A.A.F t N.                            O.W.#X!.!.^.#XE.L.$X!.A.A.G >                   ",
"                                  y H Y.;XhXgXeXW.T.K.V.A.H >                                 O.T.T.;X;XU.S.K.U.M.c c                       ",
"                                  u J B.Z.Y.;XqX;X#X!.Y.D.y.h c                                   N.V.B.O.                                  ",
"                                      a G B.U.#XrX;XT.M.K.W.A.a t                                                                           ",
"                                          i O.V.Z.T.!.E.S.V.S.M.G i i a                                                                     ",
"                                              a C.S.S.S.A.E.9XW.F.U.F.H t                                                                   ",
"                                                  h S N.S.W.9X;XQ.U.A.G u E.                                                                ",
"                                                      t t u i a a a c V.eXgX                                                                ",
"                                                                                                                                            ",
"                                                                                                                                            ",
"                                                                                                                                            ",
"                                                                                                                                            ",
"                                                                                                                                            ",
"                                                                                                                                            ",
"                                                                                                                                            "
};
