/* XPM */
static char *hero_up1647023038[] = {
/* columns rows colors chars-per-pixel */
"70 70 227 2 ",
"   c None",
".  c #031118",
"X  c #0C1D22",
"o  c #13272A",
"O  c #1C3838",
"+  c #122A2C",
"@  c #223B3B",
"#  c #3B343C",
"$  c #272C2C",
"%  c #44393C",
"&  c #593837",
"*  c #542B29",
"=  c #63342C",
"-  c #6D3E3A",
";  c #653B38",
":  c #743F3A",
">  c #4D1D1C",
",  c #1D403E",
"<  c #7C423C",
"1  c #76453C",
"2  c #6C423D",
"3  c #46413F",
"4  c #343E44",
"5  c #4A3C42",
"6  c #244541",
"7  c #2C4C49",
"8  c #294643",
"9  c #2C514C",
"0  c #32524D",
"q  c #365651",
"w  c #395A54",
"e  c #3A5E58",
"r  c #385853",
"t  c #354849",
"y  c #3C635C",
"u  c #356158",
"i  c #3D6661",
"p  c #3D6A63",
"a  c #4D464A",
"s  c #5A4848",
"d  c #5C4E51",
"f  c #465758",
"g  c #5B5559",
"h  c #50524E",
"j  c #694A47",
"k  c #764B44",
"l  c #69554E",
"z  c #79544C",
"x  c #685958",
"c  c #7C5B54",
"v  c #775954",
"b  c #77645B",
"n  c #6C625F",
"m  c #655E63",
"M  c #416B63",
"N  c #426F69",
"B  c #436662",
"V  c #44726C",
"C  c #4A796D",
"Z  c #58756E",
"A  c #447671",
"S  c #467973",
"D  c #4A7C74",
"F  c #4A7F78",
"G  c #576F6A",
"H  c #6A6567",
"J  c #776A68",
"K  c #746E71",
"L  c #6B7675",
"P  c #797577",
"I  c #48605F",
"U  c #863D2E",
"Y  c #893F30",
"T  c #8A4131",
"R  c #86463D",
"E  c #944D3F",
"W  c #884C44",
"Q  c #89564A",
"!  c #955242",
"~  c #9A5549",
"^  c #845C53",
"/  c #955B51",
"(  c #944B42",
")  c #A35A4E",
"_  c #A55547",
"`  c #AC5C51",
"'  c #A65E52",
"]  c #B15F53",
"[  c #8D6354",
"{  c #83625A",
"}  c #8B6D5B",
"|  c #886659",
" . c #936454",
".. c #9B6B5D",
"X. c #976659",
"o. c #996754",
"O. c #A46554",
"+. c #AD6154",
"@. c #A36B5C",
"#. c #AC6C5C",
"$. c #A66B56",
"%. c #B36355",
"&. c #B7695A",
"*. c #A8775C",
"=. c #B3725D",
"-. c #B97A5E",
";. c #866963",
":. c #976B60",
">. c #897368",
",. c #9A7567",
"<. c #867977",
"1. c #987B74",
"2. c #A57363",
"3. c #AC7B64",
"4. c #AB7A6B",
"5. c #A87765",
"6. c #B47A63",
"7. c #B87863",
"8. c #B17F71",
"9. c #4C8177",
"0. c #4D8279",
"q. c #50867A",
"w. c #558C7D",
"e. c #548878",
"r. c #5A927D",
"t. c #A8836C",
"y. c #BD8365",
"u. c #B6826B",
"i. c #BA846C",
"p. c #BC8A6D",
"a. c #B58465",
"s. c #A98679",
"d. c #BC8975",
"f. c #B68775",
"g. c #B89074",
"h. c #87817E",
"j. c #C18D6B",
"k. c #C4936E",
"l. c #C9996E",
"z. c #C7986C",
"x. c #C18C76",
"c. c #C28C7C",
"v. c #CA8A76",
"b. c #C59570",
"n. c #CC9A74",
"m. c #CA967C",
"M. c #CD9B7B",
"N. c #C69478",
"B. c #D19C7C",
"V. c #D3A17C",
"C. c #837E82",
"Z. c #5A9482",
"A. c #5E9985",
"S. c #579081",
"D. c #568E80",
"F. c #609D87",
"G. c #629F88",
"H. c #748888",
"J. c #65A38A",
"K. c #6AAA8E",
"L. c #67A589",
"P. c #6DAE90",
"I. c #6FB191",
"U. c #72B594",
"Y. c #76BB97",
"T. c #7DC59C",
"R. c #8A8586",
"E. c #928D8C",
"W. c #928683",
"Q. c #98918C",
"!. c #868D91",
"~. c #9A9693",
"^. c #999595",
"/. c #919294",
"(. c #A78A81",
"). c #AB958B",
"_. c #A89082",
"`. c #A59B96",
"'. c #B9968A",
"]. c #A7A29B",
"[. c #9F9EA1",
"{. c #A9A7A6",
"}. c #B5ACA8",
"|. c #BBB3A6",
" X c #BBB4A9",
".X c #BBB7AC",
"XX c #B9B8B5",
"oX c #AFB3B5",
"OX c #9BA1A3",
"+X c #CB9686",
"@X c #CB9984",
"#X c #D19C86",
"$X c #D5A38C",
"%X c #D8A689",
"&X c #DBAD94",
"*X c #D3AC96",
"=X c #E1AD92",
"-X c #E5B59A",
";X c #EBBA9D",
":X c #E6B598",
">X c #E1AF8D",
",X c #C6B8AD",
"<X c #C9BAB7",
"1X c #EBBEA2",
"2X c #C7C3BA",
"3X c #F5C6A7",
"4X c #F4CDB2",
"5X c #E7C1AC",
"6X c #BEC0C2",
"7X c #C5C8C6",
"8X c #D3D3CE",
"9X c #D7D7D4",
"0X c #CFD1C9",
"qX c #FDE6CC",
"wX c #FCE9CE",
"eX c #FEECD2",
"rX c #FFEDDF",
"tX c #FFF1D7",
"yX c #E1E2DC",
"uX c #E3E4E3",
"iX c #EAEDEB",
"pX c #E7EAE9",
"aX c #EFF2F1",
"sX c #FEFEFE",
"dX c #F5F7F6",
"fX c #EFF2EF",
"gX c #DEE1DE",
/* pixels */
"                                                                                                                                            ",
"                                                                                                                                            ",
"                                                                                                                                            ",
"                                                                                                                                            ",
"                                                                                                                                            ",
"                                                                                                                                            ",
"                                                      q r w i r q e M M M M M V                                                             ",
"                                                q y D e.C N V N V V F 0.D.Z.Z.A.D N S                                                       ",
"                                        o 6 e B 9.S.A.J.J.Z.S y r e M F D D q.S.A.Z.9.q.S y                                                 ",
"                                    o @ e D F.U.U.P.J.J.S.0.S N N V 9.S S D q.w.A.J.J.J.w.A p 8 +                                           ",
"                                . @ 0 S r.G.L.K.A.A.L.J.K.L.S.9.S S F S A A D Z.P.Y.J.A.K.P.A.9.y 8 o                                       ",
"                              o 8 N S.J.L.r.w.P.T.T.P.L.A.A.J.A.w.D A 9.w.F.K.w.G.Y.T.K.G.K.Y.0.w.e.q +                                     ",
"                            + 7 y w.A.q.0.r.L.I.I.L.S.S.L.U.U.L.J.Z.S.G.K.U.I.J.G.K.I.L.P.U.A.Z.q.w.r.y O                                   ",
"                      iX  O 6 y D 0.0.e.P.Y.L.J.Z.Z.L.T.T.I.Z.A.L.G.D.G.J.A.D.L.J.Z.Z.S.A.K.G.K.S.F r.M 7 q {.                              ",
"                      iX/.f 8 N N e.K.T.T.K.A.w.C r.U.Y.K.J.G.Z.Y.Y.G.G.Z.Z.J.U.U.J.0.S 0.Z.J.T.Y.r.N N 9 0 P                               ",
"                        sX8X!.8 7 C P.T.K.w.D S Z.Y.T.J.G.Z.0.A.K.U.Y.J.0.V 0.A.Y.T.J.S p F 0.K.K.e.w 6 L 6XdX                              ",
"                            sX9XB 7 q.A.D N S A.Z.K.Y.J.q.A V S q.F.J.A.F V S D.A.F.J.q.D C N r.q.N M o !.sX                                ",
"                              iXt + e p w i 0.A.0.0.J.G.0.A 9.S A 0.A.D A S D S A 9.A.w.0.S N M y 0 9 L 7XsX                                ",
"                                @ 6 r q q M F 9.S A 0.A.F S S B V 0.0.D F F S D p M 0.S D 9.S e r 9 , f [.pXaX                              ",
"                          + @ 9 8 9 q q q r w V D 0.F D F F N r M M y D 0.V w y w r f w r r r r r 9 9 0 @ f aX                              ",
"                        + O 9 e w r r r q r q q y M M p p y w y e r r B M y w y w w B f M C r r y p 9 u , I aX                              ",
"                        X     o i F N r w w e y y w q h f w y w r r f B r y S S M e y e y p C S S C V F @ f aX                              ",
"                              X 7 p D M 9.w.q.e.0.V p p S 9.D p w q r r e V 0.9.F D F 9.V i p 9.u O O 6XXX!.dX                              ",
"                                . @ M D q.e.0.S D 9.0.0.9.9.0.0.S M r r A D M D D D F A F p 9 8 H.oXoXuXsX                                  ",
"                                d x H x H n x g x G Z 9.y y 9.9.0.F S D S p p p N C Z P L H H OXuXsX                                        ",
"                            $ l f.m.N.i.M.=X:XM.3.| x G d h u C 0.D D 9.y h h m P ).'.`.^.R.s.K R.XXsX                                      ",
"                        . 3 t.n.i.#.O.X. .@.m.;X&Xx.2.^ l ^ X.l G D Z v 2 2 < ~ 1.XXgX9X<X].1.Q.m H uXsX                                    ",
"                        . b &X3.X.^ c c c c 5.3X>Xm.u. .x n 3.k.k.a.&.%.+.=.-.) v m C.7XgX2Xs.}.{.C.H {.uXsX                                ",
"                        . J :Xi.{ d a a a l ..%Xn.a.[ j ;.b d b f.n.k.6.j.a.} b l j ( c <.Q.`.].|.,X].P P {.dX                              ",
"                        . l d.-.X.s # a j ..b.n.3.c j l t.:.a { l b g.a.[ 2 s l ~ ] %.- X.s.J H m H K H g K aX                              ",
"                            % *.B.>.l 5.g.=X3X:XN.6.[ j 3.} d -X;.a l j s l ..z.-.&.%.- :.#X+X! X.                                          ",
"                              * a.&X>X1X>X%XV.n.l.B.g.v b v { &X,.| i.| s k t.c / %.%.- :.+Xc.! @.                                          ",
"                                $ s ,.z.b.n.V.n.>X&Xd.z :.>.>.&X8. .2.X.[ :.f...b b / - ..+Xc.! !                                           ",
"                                    s v { } } :.| v v 1._.t.*.&X5.| p.m.i.3.u.M.@X4.d & :.+Xc.!                                             ",
"                                    E ,.|.6X<X'.s...^ J _.s.2.;X<.J p.B.n.7.*.k.>Xs.% & :.+Xc.!                                             ",
"                                  E $.5XeXrXqX1Xu.z s s v ,.#X:X<.;.N.n.M.x.d.%X;Xg.a & :.+X+X(                                             ",
"                                T $.-XeXqXeXwX1X5.z j W y.*.l ..,.g.;X>Xf.8.%X#Xx.,.g & :.c.$.k                                             ",
"                                T 7.4XtXqXwXqX1X4./ ~ ` y.7.~ j ,.%X3X1X:X=X#X*.^ v H 2 W O.                                                ",
"                                T y.4XtXqXeXqX1X+X4.X.i.v.=._ ' z c ,._.s.s.4...:.1.f.W 1.                                                  ",
"                                T 6.4XeXeXeXqX-X#X4.@.1X4X:XB.v.v.x.s.).).).).).s...W * ;                                                   ",
"                                Y i.3X-X1X-X&XN.+X8./ Q W 2.&X#X#X&X#XQ [ [ Q [ $.~ - W                                                     ",
"                                Y 7.;X#X$Xm.d.+X8.@./ ` ] ) W R W Q X.#.y.z.z.p.-.~ ; R                                                     ",
"                                  ~ ) O.#.2.#.4.<Xs.= a.7.#.+.` =.i.b.b.B.V.l.p.y.$.- 4. .                                                  ",
"                                          R ) &XrX).= b.n.p.8.#.6.j.l.#XV.n.z.p.z.*.j $X6.U                                                 ",
"                                            Q $X3X4.= N.B.k.f.i.i.p.p.b.n.n.g.p.i.O.2 +X#.Y                                                 ",
"                                              E x.&X@X1 *.l.p.i.#.#.i.i.k.b.u.#.+.! z $X7.U                                                 ",
"                                              ; / x.g.; Q a.7.] / @.j.p.i.u.=.%.< | =X:X=.U                                                 ",
"                                                U O.+Xt.1 R ] ) ' +.-.u.f.i.=.%.< :.4X3.E                                                   ",
"                                                T ! @.#X^ : ) ) ` ` O.7.p.p.i.&.< :.1X( !                                                   ",
"                                                    ! d.5.z - ) ] ` ' a.k.k.u.%.< k 8.'.,X                                                  ",
"                                                    ! c.&X5.- %.%.` O.8.z.b.y.%.' W k gXsX                                                  ",
"                                                    ! c.#X2.- +.%.` +.u.b.z.i.#.] ( = 8X                                                    ",
"                                                  +X( d.+X..- %.&.] ] &.i.l.l.p.&.( *                                                       ",
"                                                sXoXj J >.v - %.] ] ` ` 7.d.p.i.7.( >                                                       ",
"                                                sX}.a E.`.>.; +.%.] %.] =.j.x.&.~ Y ;                                                       ",
"                                                /.C.P /./.W.>.k ~ %.` W W Q Q < 1.}.                                                        ",
"                                                # m ~.Q.^.~.W.s j W { W.Q.P x 2XdX                                                          ",
"                                                # H ~.].~.E.P K R.^.].}.].P g uX                                                            ",
"                                                # H `..X{.P H /.{.}.`.W.E.R.P C.oX                                                          ",
"                                                # K 2X2X2X~.H .X)._.,X|.`./.R.g {.                                                          ",
"                                                  g K h.R.J m .X2X2X2X.X X X].R.!.[.                                                        ",
"                                                            g 8XpXiXiX0X.X|.|.~.x #                                                         ",
"                                                              yXiXdXsXgX2X.X|.~.P                                                           ",
"                                                              2X0XgXpXiXiX8X|.}.                                                            ",
"                                                              uX9X9X9X6XXX].Q.].                                                            ",
"                                                                  '.dXdXXXE./.                                                              ",
"                                                                                                                                            ",
"                                                                                                                                            ",
"                                                                                                                                            ",
"                                                                                                                                            "
};
