/* XPM */
static char *hero_left1647022908[] = {
/* columns rows colors chars-per-pixel */
"70 70 228 2 ",
"   c None",
".  c #08161D",
"X  c #151F26",
"o  c #12282B",
"O  c #1B3738",
"+  c #12282B",
"@  c #313435",
"#  c #491A1A",
"$  c #4F201E",
"%  c #562725",
"&  c #552F2F",
"*  c #632B28",
"=  c #65332C",
"-  c #683A36",
";  c #783D37",
":  c #7E3C2E",
">  c #1D423F",
",  c #6D423D",
"<  c #75413B",
"1  c #7B423B",
"2  c #7D4A3A",
"3  c #44403E",
"4  c #463B42",
"5  c #1F4542",
"6  c #2B4D4A",
"7  c #264946",
"8  c #2E514C",
"9  c #26504C",
"0  c #33544E",
"q  c #2D5652",
"w  c #365751",
"e  c #355A53",
"r  c #395B55",
"t  c #395A56",
"y  c #3C635D",
"u  c #35625C",
"i  c #3D6B64",
"p  c #3C6964",
"a  c #3E736E",
"s  c #4C4449",
"d  c #57494B",
"f  c #5A5358",
"g  c #4E524F",
"h  c #794944",
"j  c #7B524B",
"k  c #795046",
"l  c #685956",
"z  c #775955",
"x  c #6B4F47",
"c  c #4C6259",
"v  c #68665D",
"b  c #71625D",
"n  c #645D62",
"m  c #416C65",
"M  c #416F6A",
"N  c #43736C",
"B  c #48756A",
"V  c #447671",
"C  c #467972",
"Z  c #4A7D74",
"A  c #4B7F78",
"S  c #526D66",
"D  c #6A6367",
"F  c #797875",
"G  c #72726E",
"H  c #803F38",
"J  c #87463D",
"K  c #914939",
"L  c #834B43",
"P  c #894B42",
"I  c #924C43",
"U  c #8B554B",
"Y  c #8B594E",
"T  c #865448",
"R  c #93544A",
"E  c #995549",
"W  c #8B5D52",
"Q  c #835A52",
"!  c #965D51",
"~  c #A35A4E",
"^  c #A4574C",
"/  c #AC5E52",
"(  c #8C6155",
")  c #8B6359",
"_  c #946255",
"`  c #9C6B5C",
"'  c #976758",
"]  c #98755E",
"[  c #AB6B5B",
"{  c #A66656",
"}  c #B46255",
"|  c #B66758",
" . c #A8715D",
".. c #B9755D",
"X. c #A3614F",
"o. c #9A6D61",
"O. c #997568",
"+. c #867A78",
"@. c #967C7A",
"#. c #877263",
"$. c #A57363",
"%. c #AB7262",
"&. c #A97B6A",
"*. c #B37C65",
"=. c #B27E6B",
"-. c #B87863",
";. c #B07265",
":. c #C16B5B",
">. c #C17161",
",. c #4E8379",
"<. c #4D8177",
"1. c #50867A",
"2. c #538B7D",
"3. c #538777",
"4. c #57907F",
"5. c #858177",
"6. c #988577",
"7. c #BC8A6C",
"8. c #B9826A",
"9. c #AE8574",
"0. c #BA8571",
"q. c #B68975",
"w. c #B58E77",
"e. c #B4825F",
"r. c #C18B69",
"t. c #C4936D",
"y. c #C38D79",
"u. c #C48773",
"i. c #C5927C",
"p. c #CB927D",
"a. c #C8997A",
"s. c #D29A7F",
"d. c #35AFAA",
"f. c #5B9582",
"g. c #5E9A85",
"h. c #579081",
"j. c #578F80",
"k. c #619E88",
"l. c #708583",
"z. c #65A48B",
"x. c #6BAB8E",
"c. c #68A78D",
"v. c #6DAF90",
"b. c #6FB192",
"n. c #72B593",
"m. c #77BD98",
"M. c #76A79D",
"N. c #7CC39B",
"B. c #54C6BE",
"V. c #3EDBD3",
"C. c #67F0E5",
"Z. c #5FD8D1",
"A. c #8D898A",
"S. c #888586",
"D. c #928B87",
"F. c #96918D",
"G. c #969292",
"H. c #999595",
"J. c #9D9996",
"K. c #8F9092",
"L. c #B99988",
"P. c #A29C97",
"I. c #B89C95",
"U. c #B29486",
"Y. c #A8A49C",
"T. c #ADA9A1",
"R. c #A9A4A3",
"E. c #B4ACA5",
"W. c #BAB2A5",
"Q. c #BCB6AB",
"!. c #B6B3AA",
"~. c #BEBBB2",
"^. c #8DA19E",
"/. c #CD9A85",
"(. c #C99884",
"). c #D19C86",
"_. c #D39E8A",
"`. c #C9A28B",
"'. c #D4A28B",
"]. c #DAA58C",
"[. c #DBA58B",
"{. c #DCAA91",
"}. c #D6A993",
"|. c #DDB79B",
" X c #E1AD93",
".X c #E3B196",
"XX c #E5B59B",
"oX c #EAB99E",
"OX c #E8B79C",
"+X c #E7A88E",
"@X c #C3BBAD",
"#X c #DCB8A3",
"$X c #C2BBB2",
"%X c #D7BCB7",
"&X c #ECBEA2",
"*X c #E4BDA4",
"=X c #F1BFA3",
"-X c #81CA9F",
";X c #8ECAAF",
":X c #C9C5BA",
">X c #D8CCBC",
",X c #ECC1A5",
"<X c #EBC5AB",
"1X c #E9C8AE",
"2X c #F5C7AA",
"3X c #ECCCB3",
"4X c #F2CDB3",
"5X c #F3D4BB",
"6X c #F9D7BD",
"7X c #EED5BC",
"8X c #A1D6D4",
"9X c #CBCBC5",
"0X c #D6D5C9",
"qX c #D9D9D3",
"wX c #D5CDC7",
"eX c #E4D8C6",
"rX c #FCDCC3",
"tX c #F4DBC1",
"yX c #FDE4CB",
"uX c #FDE9CE",
"iX c #F9E3C8",
"pX c #FEECD3",
"aX c #FDEBD9",
"sX c #FFF3D8",
"dX c #E6E0C6",
"fX c #D4F4F3",
"gX c #F4F6F5",
"hX c #E6E9E4",
/* pixels */
"                                                                                                                                            ",
"                                                                                                                                            ",
"                                                                                                                                            ",
"                                                                                                                                            ",
"                                                                                                                                            ",
"                                                                  C <.m 0 8 0 8 u i i i i p q 5 o                                           ",
"                                                            a p y y u w r w 0 w r t c p p C Z V N p 9 5                                     ",
"                                                    O 6 y Z 3.B B A c w w w w w y i i V ,.3.2.2.,.C a t q 5                                 ",
"                                                o q C g.k.3.m B M m w w e i M y m <.V N V Z j.k.g.f.g.,.i p q > o                           ",
"                                              6 y 3.z.4.e e B Z A C m m V <.<.,.Z Z g.4.Z V A f.k.b.N.m.g.1.C N V 6 X                       ",
"                                            + 9 N C <.4.g.x.x.3.V C C Z 1.z.x.4.i y z.v.k.Z p m Z k.-X-XN.z.f.3.A p q                       ",
"                                          + O 9 0 u 3.v.v.g.<.C V V 3.z.m.m.c.h.a N n.N.k.g.A m y m j.n.-Xm.c.4.h.,.a O                     ",
"                                            X q 3.n.n.z.3.B m S S M 2.c.N.v.g.<.C <.h.v.m.v.c.k.Z M V 2.c.m.-Xm.c.2.a 9 5                   ",
"                                              B g.n.z.3.3.v b i.@.8 u <.k.4.1.C V C V ,.c.N.m.k.1.V M V A 1.c.n.c.h.1.C 6 .                 ",
"                                            0 B ,.B q c w.[./.XX'.6.G <.<.a S 6.3.N N 2.z.x.k.1.A B w t m C Z 1.k.f.Z q 5                   ",
"                                            7 6 0 c #.a.,X*X'.'..X&X,XP.i u v w.5.N V 2.h.Z N N y r w w w t m C C C p O                     ",
"                                            . t F ` s.2X=X'.9.&.0.)..X`.5.L..Xa.9.3.S B Z y w w w w w 8 6 0 w w 6 O o                       ",
"                                              9X%XR 8.2X4X{.9.9.q.y.y.).oX=XOX'.t.O.g u C 8 6 w 6 6 w 0 0 w t 0 > 6                         ",
"                                              & - E [.4XL.M.B.C.;X(.0.0.0.'.,XoX).*.=.G w 7 7 r w r M C Z A Z M 8 6                         ",
"                                              = J ;.+X>XC.d.<.8XfXgX>XI.i.}.oXoX Xp...( w 0 m C m w m M 3.x.k.1.V 9 O                       ",
"                                            % h 0.{.4XeXC.V.B.8XfXgXaXtX#X1X4XoXOX{.-.z r m C A B M m N A 4.x.n.f.C e O K.gX                ",
"                                            % 1 [ s.=X6XdXdXdXrXrXrXuXsXsXuX5X1X&X(.g 6 t y M A A C C Z C p m Z A A a > l.gX                ",
"                                                % ; $.}.1X1XtXyXaXsXaXpXiX3XoXOX_.9.c u a Z j.h.k.k.2.Z C M m m m u 8 7 ^.gX                ",
"                                                    % - _ w.#X=X2X4XtX3X}.{.).$.E x r q q t t t B j.f.2.M w t t 7 O o                       ",
"                                                        j Q L Y W _ _ W Q U U z w.L.l K.hX9XS.g g v D g 7 7 O +                             ",
"                                                        gX$X@.@.z & z @.+._ 9.,X{.o.= b R.G O./.p.i.a.O.d                                   ",
"                                                            gXP.O.(.*X2X2X2X X` E E E T ) #X<X(.8.*.8.t.a.#.&                               ",
"                                                            @X- W *X*Xq.J k R ^ ^ E Y Y Q ) W Q ! [ e.7.a. Xl .                             ",
"                                                          * H ^ ~ L L R / } / K T $..X2X&XOX(.' j j !  .7.{.#.X                             ",
"                                                      % H { r.-.[ } ....} { ;.q.{.2XoXOX.X,XoX'.f 7 d ' t.'.l X                             ",
"                                                      * ^ -.r.t.t.*.7.8.[ ! %.XX6XuXuX1X{.oXXX'.7.] ( [ { @                                 ",
"                                                      % ^ ..0.t.t.t.7.7...' $.*X6XuXsX5X X{.}./.9.w.a.] x                                   ",
"                                                        = P [ =.0.7.$.%.=.u.}.uXaXrX<X&XXX_.y.;.j d s @                                     ",
"                                                          $ * ^ } ~ o.I.tXaXuXuXyXtX*X X).;.R h                                             ",
"                                                            $ P  .U.eXaXyXrXrXtX*X X{._.=./ ! $.                                            ",
"                                                          H h I.eXaXyXrXyXyXtX|..X*X'.;./ u.;.K                                             ",
"                                                    E 8.<X7X7XuXaXyXtXtXyX4XXX(.=.$.;.U ; ].&Xu.{ E                                         ",
"                                                    uXyXyXuXuXtX5X6X&X.X.X_.0.W U U R h l }.2X&X].*.K                                       ",
"                                                  sXpXyXuXrX<X*X{.'.].'.q._ j b b b b f j (.=X&XXXu.K                                       ",
"                                                    iXiX<XXX_.].w. .W ` r.| R h x h h L / y. XOX'.-.K                                       ",
"                                                      ` $.$.o.U h J X.-.-.| / ^ | u.>.;.I Y U P K                                           ",
"                                                          @.I.U.0./.p./.'._.(.p.=.O.$.` R R P ;                                             ",
"                                                            wXo.J W ( ( W W W W R I I R W Y ! / - #                                         ",
"                                                            ; X.e.t.r. .R I I P ! o.W =.&X=X=X XT #                                         ",
"                                                            1 e.t.>.U Y q.w.9.=._.2XrX2XXXXX&X].W & #                                       ",
"                                                          % - { >.} ; ( &X6XrXrXrX5X*XXXXX_.].{.W & %                                       ",
"                                                        % % , ~ :.} 2 W OX6XrXyXtX<X*X.X X_._._.Q 1 ^ I                                     ",
"                                                      = Q k - ~ :.} < ( OX6XyXrX&X]..X].(._._.(.T 1 } ; #                                   ",
"                                                  # < ' =.W - ~ | } h W OX6XrXrX&X.XXX{./._.&.j W ` [ ~ J $                                 ",
"                                                  # T y.).o.- / :./ ; W &X5X5X<X*X X/.(.i.).&.- W %.$.} ~ J =                               ",
"                                                - ` i.[./.' - ~ | } ^ R ` (.=X3X=X X/./.].].&., Y $. .[ [ ..[ U = #                         ",
"                                              # , ]..X[.XX9.j ~ } } | R = 0.=X&XOXXXXX}._.'.].(.W h [ $.[ } | |  .R J *                     ",
"                                              # = y.{. X X,X*XQ L } } ^ L P ' y._.OX5X5X*X_._.{.&.U ! / } } ^ J = % %                       ",
"                                            $ x z T ( o.o.0.u.h h } } } } L - { p.{.'.XX3X3X#X_.[.`.=.! L ; =                               ",
"                            s 4             s G G.S.+.+.6.+.l 4 J } } :.| L - < _ q._._._.#X*XOX'.q.+.l 4                                   ",
"                      4 n J.9X~.D.n f f f G J.J.G.H.G.H.J.F d - ; I I ^ |               (./._.`.4.+.A.+.D                                   ",
"                      4 n R.hXhX0XR.P.Y.E.Y.Y.H.G.G.G.A.G f                                 D.+.A.G.G.G.A.G f                               ",
"                          D ~.:X~.0X9XW.Q.Y.D.Y.!.H.H.S.s                                     H.G.G.G.J.H.G.A.F d                           ",
"                              G +.T.Q.T.Y.Y.W.@X!.J.A.                                    G.G.G.G.A.S.Y.Q.J.G.A.n s                         ",
"                                      S.Y.Q.Y.@X$XP.                                      G.P.T.H.D.P.E.@X@X!.E.J.n 4                       ",
"                                                                                          S.Y.@XE.Y.H.F.P.~.!.F.n                           ",
"                                                                                        Y.W.W.W.P.P.Y.P.K.S.n                               ",
"                                                                                      W.W.W.$X9X:XW.Y.D.                                    ",
"                                                                                qXqX:X:XqXqXwX:XY.H.T.                                      ",
"                                                                                  9XhXgXgX0X@X                                              ",
"                                                                                                                                            ",
"                                                                                                                                            ",
"                                                                                                                                            ",
"                                                                                                                                            ",
"                                                                                                                                            "
};
