/* XPM */
static char *dragon_mid1647022694[] = {
/* columns rows colors chars-per-pixel */
"70 70 238 2 ",
"   c None",
".  c #0F0909",
"X  c #140201",
"o  c #1C0201",
"O  c #15090A",
"+  c #1C0B0B",
"@  c #0D071D",
"#  c #1C0C1A",
"$  c #150C18",
"%  c #1C1414",
"&  c #14111A",
"*  c #1B151E",
"=  c #1C1A1A",
"-  c #171010",
";  c #240200",
":  c #2A0300",
">  c #240A0D",
",  c #2B060B",
"<  c #320400",
"1  c #3D010B",
"2  c #38070A",
"3  c #27140C",
"4  c #32140C",
"5  c #220B15",
"6  c #2C061B",
"7  c #250418",
"8  c #3C0614",
"9  c #3B041D",
"0  c #320B1D",
"q  c #360917",
"w  c #231314",
"e  c #211C1B",
"r  c #29161A",
"t  c #3C141D",
"y  c #311B1B",
"u  c #3B161A",
"i  c #2B2414",
"p  c #2B2519",
"a  c #33231C",
"s  c #3A2C1D",
"d  c #382916",
"f  c #3B321B",
"g  c #3A270D",
"h  c #0E042D",
"j  c #0B0323",
"k  c #15032D",
"l  c #130A2A",
"z  c #180628",
"x  c #19122B",
"c  c #1A1624",
"v  c #0D0133",
"b  c #160233",
"n  c #1C0231",
"m  c #220524",
"M  c #25032C",
"N  c #2C032E",
"B  c #2B0A25",
"V  c #3A0423",
"C  c #32032D",
"Z  c #39032B",
"A  c #380B21",
"S  c #2C1C24",
"D  c #281625",
"F  c #3B1E24",
"G  c #331922",
"H  c #210231",
"J  c #2D0433",
"K  c #2E0438",
"L  c #3B0534",
"P  c #3A0738",
"I  c #3C123A",
"U  c #242222",
"Y  c #2A2425",
"T  c #2C242B",
"R  c #2D2B2C",
"E  c #272527",
"W  c #3C2323",
"Q  c #34282A",
"!  c #3C3427",
"~  c #282736",
"^  c #392D32",
"/  c #353435",
"(  c #3A3535",
")  c #3C3C3C",
"_  c #393836",
"`  c #44070D",
"'  c #43061A",
"]  c #4C051D",
"[  c #430C1B",
"{  c #490715",
"}  c #53011A",
"|  c #5A011D",
" . c #560316",
".. c #47171E",
"X. c #50161D",
"o. c #6A071D",
"O. c #61191B",
"+. c #75161D",
"@. c #47281A",
"#. c #54261B",
"$. c #4A371D",
"%. c #543D1A",
"&. c #633B19",
"*. c #6A341D",
"=. c #63221C",
"-. c #420524",
";. c #4C0223",
":. c #440A23",
">. c #44032A",
",. c #4A0827",
"<. c #540222",
"1. c #5C0423",
"2. c #5B0C24",
"3. c #550429",
"4. c #550926",
"5. c #431624",
"6. c #4D1423",
"7. c #471A24",
"8. c #571624",
"9. c #470837",
"0. c #5A0636",
"q. c #620423",
"w. c #640C23",
"e. c #6A0C24",
"r. c #6C042C",
"t. c #69052A",
"y. c #720325",
"u. c #7A0324",
"i. c #730A22",
"p. c #72042A",
"a. c #750A2D",
"s. c #7D0C2C",
"d. c #7D0629",
"f. c #6C1424",
"g. c #671628",
"h. c #761628",
"j. c #660533",
"k. c #6B0533",
"l. c #690736",
"z. c #7B0A31",
"x. c #770631",
"c. c #761731",
"v. c #472629",
"b. c #532A23",
"n. c #5A2728",
"m. c #443B2A",
"M. c #463722",
"N. c #4D3230",
"B. c #652225",
"V. c #682827",
"C. c #782A26",
"Z. c #6F2F2D",
"A. c #3F403F",
"S. c #5A4619",
"D. c #65481A",
"F. c #78471F",
"G. c #6B5116",
"H. c #785A17",
"J. c #534324",
"K. c #43403B",
"L. c #47462E",
"P. c #6B4421",
"I. c #774927",
"U. c #6F5329",
"Y. c #3B3B42",
"T. c #510B49",
"R. c #432F42",
"E. c #3F4241",
"W. c #424141",
"Q. c #535353",
"!. c #80191E",
"~. c #860B25",
"^. c #8D052E",
"/. c #830D2C",
"(. c #8D0A2C",
"). c #830627",
"_. c #940B2C",
"`. c #960B2E",
"'. c #83142B",
"]. c #8D132C",
"[. c #861826",
"{. c #95142B",
"}. c #9D132C",
"|. c #931A2C",
" X c #9C1A2E",
".X c #981A23",
"XX c #850D32",
"oX c #8C0B31",
"OX c #880730",
"+X c #920B30",
"@X c #980F30",
"#X c #8C1333",
"$X c #8B1A34",
"%X c #941332",
"&X c #9B1532",
"*X c #9D1B32",
"=X c #901D34",
"-X c #A11C2D",
";X c #A61E28",
":X c #A31D32",
">X c #A81E32",
",X c #8B232A",
"<X c #872427",
"1X c #9A262D",
"2X c #94272B",
"3X c #863729",
"4X c #8A273C",
"5X c #952333",
"6X c #9C2132",
"7X c #962636",
"8X c #A82429",
"9X c #B32526",
"0X c #BB2B25",
"qX c #BA2A2A",
"wX c #B1242B",
"eX c #A42332",
"rX c #AB2332",
"tX c #AD2A34",
"yX c #A22D31",
"uX c #B32633",
"iX c #B42A35",
"pX c #BA2F35",
"aX c #B2293A",
"sX c #BD3235",
"dX c #B53133",
"fX c #C43F3C",
"gX c #83591E",
"hX c #945A1D",
"jX c #92651C",
"kX c #946A1B",
"lX c #8B4D23",
"zX c #A64230",
"xX c #AF7C21",
"cX c #982740",
"vX c #A72944",
"bX c #B53546",
"nX c #B0334D",
"mX c #C6495B",
/* pixels */
"                                                                                                                                            ",
"                                                                                                                                            ",
"                                                                                                                                            ",
"                                                                                                                                            ",
"                                                                                                                                            ",
"                                                                                                                                            ",
"                                                                                                                                            ",
"                                                                                                                                            ",
"                                                                                                                                            ",
"                                                                                                                                            ",
"                                                                                                                                            ",
"                                                                                                                                            ",
"                                                                                                                                            ",
"                                                    ) _ R Y e = % w % = Y _                                                                 ",
"                                          W.R U % + O o o o o o o o o o o X O % Y )                                                         ",
"                                    _ p % + ; o ; ; : ; : ; ; ; : ; ; ; ; o o o o O . U W.                                                  ",
"                                U O X o ; ; : : : ; : ; : : : : ; : : : : : ; ; o O _ _ ) W.Q.                                              ",
"                              e X X X ; ; : : : : : : : : ; : ; : : ; ; ; ; : : ; + Y.                                                      ",
"                              - O U O o o ; : < < : : : : : : : : ; : : : ; : : ; o O R                                                     ",
"                                    _ O o ; : : < < < : : < : : : : ; : : ; ; ; o X X X =                                                   ",
"                                      U X o ; ; : : < < < < < < : : : < : ; o - = R R U = W.                                                ",
"                                        O o ; ; : : : : : < < < < < < < : ; R                                                               ",
"                                        - X o ; : : : : ; : < < < < < < , R                                                                 ",
"                      p       d 3       U X ; ; ; ; : : : ; ; : < < < : Y                                                                   ",
"                    J.f     I.D.        R X o ; ; ; ; : ; : : ; ; ; : >                                                                     ",
"                  f S.    %.G.          i X o 3 3 + ; : 4 4 2 2 ` 2 2 4 R   E._ E.E.A.                                                      ",
"                  S.S.  s %.          e %.4 o @.f 3 u #.C.3X2X2XyX1X<X|.f.f.g.e.w.w.w.1.1.4.4.4.,.r S F R                                   ",
"                S.H.  m.S.M.    m.Y % 4 C.=.8 V.C.h.2XyXyXtXtXrXtXeX6X*X=X%X%X#X%X#XoX#XoXXXXXz.z.s.e.[ S                                   ",
"                H.S.! gXH.  p = a v.q X.s.s.).oX=X*X:X:X:X*X*X:X:XeX:X:X:X:X:XeX:XeX:X:X:X*X:XeX[.8.W                                       ",
"              f H.p P.kXa r %.[ ..V.4.r.x.OX^.oXoX`.@X&X&X:X>XeXrXrXrXrXrX>X>X>X>XeXrX>XrXrXaX<XW                                           ",
"              S.G.e I.g d t b.X...w.x.XXoX+X+X+X^.oXoXoXoX+X+X@X%X>X>XuXiXiXiXuXrXuXtXrXuXiXC.v.                                            ",
"              D.D.P.F.u 7.8.w.O.h.[.s.#X+X%X%X%X&X&X&X&X@X+XoXoXOXoXoX@X:X:XrXuXsXsXsXsXdXV.W.                                              ",
"            n.C.lXxX*.f.].}.8X,X|.|.eX(.x.#X:X*X%X&X>XrX>X:X:X:X&X%X+XoXoXOXOX+X-X>XpXfXh.                                                  ",
"            h.7XzXhXg.-X:X:XuXdX|. XsX_.d.x.=XrX:X%XoX%X>XuXrXrX>X>X>X>X*X%XXXz.x.oX@X>Xn.                                                  ",
"          B.eXeXeX6X'.{.oX`.-XwX[.].-X).y.r.k.#XtXrX%XOXOX*XuXiXiXuXpXpXpXiXrX:X%XXXz.e.7.                                                  ",
"        v.7XbX6XC.6Xi.o. .| d..X+.i.o.o.u.u.t.j.$XaXaX*XXXx.oX>XiXfXfXpXfXsXpXrX*X|.1X..                                                    ",
"        w.nX5XI.lX6Xf.{ ` 1  . .` ` | )._.^.l.r.k.=XiXuXeX#Xz.XX&X>XiXsXqXqX0X`.p./.].F                                                     ",
"        8.c.e.Z.C.vXbX1XB.8 1 1 ` ` u.}.}._.l.k.d.k.$X5XeX X].XX+X-X>X0X0X0X;X).1.3.3.4...                                                  ",
"        h.5XeX|.eXnXmXfX<X` 1 ` 1  .u.`.@X^.l.j.y.:.A [ e.e.i.p.a.{.-X0X9X}.d.q.<.N N 4.2.y i                                               ",
"      8.rXuXiXiXaXvX4XV.F 3 , < < ` u._.`._.k.0.q.5 $ # 8 8 <.} o. XwX;X{.q.] ;.>.J N ;.[ n.$.                                              ",
"      ,XuXuXuX-X$Xg.A E       _ r , u.^.`.).k.9.} - - O + 8 | } +.0X9X].] [ ,.L L n J >.-.:.[ W L.                                          ",
"    B.rX{.-X%XV.R.D Y             r | u.).u.k.Z 0 + > , , ` | | 8X9X(.q.-.>.L P K b N >.>.V 0 V.U.Q                                         ",
"    g.rX{.).l.Y.~ E                 ] y.d.~.r.I # = 5 , > 7 9 +.0X.Xo.>.L P P K b v N >.Z >.>.,.X.w p                               S -     ",
"    f.].u.y.^ E R                   Q w.#X/.l.9.*         E.r +.9Xi.} L J N N H h l k n M Z >.Z V t &.W                         i M.F       ",
"    2.o.} 5.E                       v.s.#Xz.k.T.T           Y o.!.| 1.3.;.1.q.3.6 R   l b n H n C V -.0 s U                 K.s v.y ^       ",
"    v.q %                       t X.h.#Xz.p.j.I               ' | | 1.y.y.y.y.y.| T     & h v v N Z Z A $.3 $.m.      _ ! m.M.b.7 *         ",
"                              6.'.:Xc.p.r.q.0                 0 } <.| <.<.<.<.<.| ' (     ~ x v b b C -.[ 5 #.y a i Q $.b.n.5.B             ",
"                          ! 5.p.vXnX6.V V r                   ( 6 V V M N C >.<.| } q e       c j v M C -.m 9 6 X.n.B T Z Z D               ",
"                          S.3Xf.vXcXD R                         _ T $ @ @ l n Z ] | } 9 z       & x h k Z H Z Z M Z C k m #                 ",
"                        M.jXjXI.4XG                                   R U c & c 6 }  .] 7 $           c x l M M k z z x                     ",
"                          G.D.hXb.                                              T 9 } } ' m =               x @ ~ ~                         ",
"                          $.! H.J.                                                B } e.'.<.# /                                             ",
"                              M.m.                                                Y g.7X=X<X*.u                                             ",
"                                                                                    8.cXf.=.hX%.W.                                          ",
"                                                                                    ~ 6.=.#.&.&._                                           ",
"                                                                                      ( @.gX@.y                                             ",
"                                                                                        K.S.i W.                                            ",
"                                                                                            _                                               ",
"                                                                                                                                            ",
"                                                                                                                                            ",
"                                                                                                                                            ",
"                                                                                                                                            ",
"                                                                                                                                            ",
"                                                                                                                                            ",
"                                                                                                                                            ",
"                                                                                                                                            ",
"                                                                                                                                            ",
"                                                                                                                                            ",
"                                                                                                                                            ",
"                                                                                                                                            "
};
