/* XPM */
static char *dragon_mini1647022776[] = {
/* columns rows colors chars-per-pixel */
"70 70 234 2 ",
"   c None",
".  c #1D0302",
"X  c #180C09",
"o  c #19100E",
"O  c #150F1C",
"+  c #1A151C",
"@  c #1C171A",
"#  c #220301",
"$  c #270A06",
"%  c #3C030A",
"&  c #390809",
"*  c #28160C",
"=  c #290A19",
"-  c #340A1D",
";  c #3B0C1D",
":  c #370517",
">  c #2A1B14",
",  c #241C1C",
"<  c #271318",
"1  c #371618",
"2  c #27211B",
"3  c #28221C",
"4  c #3B2413",
"5  c #352C1B",
"6  c #362615",
"7  c #3D321D",
"8  c #0E052D",
"9  c #0F0924",
"0  c #150C2B",
"q  c #170529",
"w  c #1C1727",
"e  c #0E0233",
"r  c #130231",
"t  c #1A0231",
"y  c #1E1832",
"u  c #240B23",
"i  c #26032E",
"p  c #2D032D",
"a  c #270A28",
"s  c #3D0523",
"d  c #33032D",
"f  c #3C032B",
"g  c #390E23",
"h  c #2C1521",
"j  c #271B25",
"k  c #371D29",
"l  c #381926",
"z  c #250731",
"x  c #2C2425",
"c  c #2C2925",
"v  c #2A2529",
"b  c #2D2A2B",
"n  c #252326",
"m  c #342523",
"M  c #392224",
"N  c #3D2923",
"B  c #3A232B",
"V  c #342C2C",
"C  c #352826",
"Z  c #3A352B",
"A  c #2C2A36",
"S  c #352C34",
"D  c #2F3231",
"F  c #353434",
"G  c #3A3234",
"H  c #3D3B3B",
"J  c #393738",
"K  c #46000C",
"L  c #49020F",
"P  c #42110F",
"I  c #470A1D",
"U  c #470714",
"Y  c #54021C",
"T  c #59021D",
"R  c #560818",
"E  c #45121F",
"W  c #4A151C",
"Q  c #451B1D",
"!  c #461916",
"~  c #531A1C",
"^  c #5B181A",
"/  c #64011D",
"(  c #6B011F",
")  c #6C0C1B",
"_  c #671B1D",
"`  c #70111D",
"'  c #41221B",
"]  c #452D1B",
"[  c #4A2C1A",
"{  c #462915",
"}  c #592718",
"|  c #46371C",
" . c #553B1C",
".. c #58371B",
"X. c #692F1F",
"o. c #430424",
"O. c #4B0324",
"+. c #4C0923",
"@. c #430329",
"#. c #4D042A",
"$. c #420925",
"%. c #530424",
"&. c #5C0323",
"*. c #520B23",
"=. c #5B0C24",
"-. c #5B032C",
";. c #53032A",
":. c #4C1221",
">. c #471826",
",. c #5B1922",
"<. c #5A1B2C",
"1. c #571624",
"2. c #550A38",
"3. c #620322",
"4. c #6C0524",
"5. c #650B24",
"6. c #64032C",
"7. c #6B042B",
"8. c #6D0A2B",
"9. c #670B26",
"0. c #740323",
"q. c #7B0325",
"w. c #7C0D25",
"e. c #74042D",
"r. c #7C042C",
"t. c #740E2C",
"y. c #7B0A2C",
"u. c #710B27",
"i. c #651B24",
"p. c #691727",
"a. c #7D1A24",
"s. c #7F1B2C",
"d. c #771627",
"f. c #660332",
"g. c #6B0332",
"h. c #650931",
"j. c #730431",
"k. c #7B0531",
"l. c #7B0932",
"z. c #740932",
"x. c #7C1D35",
"c. c #4E2225",
"v. c #482826",
"b. c #532429",
"n. c #5C2028",
"m. c #483927",
"M. c #5D3424",
"N. c #492B36",
"B. c #433836",
"V. c #652325",
"C. c #7A2726",
"Z. c #663A22",
"A. c #7C3422",
"S. c #7C3A25",
"D. c #722639",
"F. c #45411F",
"G. c #584916",
"H. c #5B4014",
"J. c #664A19",
"K. c #774A1A",
"L. c #755A16",
"P. c #52452C",
"I. c #6F4022",
"U. c #744924",
"Y. c #640A41",
"T. c #413D4F",
"R. c #444545",
"E. c #820B26",
"W. c #84052B",
"Q. c #89052D",
"!. c #840B2B",
"~. c #8D0D29",
"^. c #800524",
"/. c #940C2D",
"(. c #980E2D",
"). c #821B23",
"_. c #8B142A",
"`. c #86162A",
"'. c #94132C",
"]. c #9C112C",
"[. c #991C2A",
"{. c #830630",
"}. c #880630",
"|. c #840B31",
" X c #8B0B31",
".X c #950D31",
"XX c #990E31",
"oX c #841332",
"OX c #8D1232",
"+X c #8B1B31",
"@X c #851C34",
"#X c #951332",
"$X c #9A1432",
"%X c #9A1C31",
"&X c #951F31",
"*X c #A41A29",
"=X c #A31E27",
"-X c #A31C31",
";X c #A41C33",
":X c #882625",
">X c #9E2426",
",X c #99252A",
"<X c #863A26",
"1X c #9B312C",
"2X c #933623",
"3X c #962235",
"4X c #89283A",
"5X c #A6252A",
"6X c #B62526",
"7X c #BD2B25",
"8X c #B62825",
"9X c #AA3428",
"0X c #A32432",
"qX c #AC2331",
"wX c #AF2833",
"eX c #A52836",
"rX c #B22633",
"tX c #B42B37",
"yX c #AF3434",
"uX c #855D1B",
"iX c #844B1E",
"pX c #9D6B1E",
"aX c #8A6219",
"sX c #855721",
"dX c #804D32",
"fX c #814325",
"gX c #A6592A",
"hX c #976322",
"jX c #A16E20",
"kX c #AB2E47",
"lX c #BB2E4F",
"zX c #BD3E4C",
"xX c #B73C51",
"cX c #B48023",
/* pixels */
"                                                                                                                                            ",
"                                                                                                                                            ",
"                                                                                                                                            ",
"                                                                                                                                            ",
"                                                                                                                                            ",
"                                                                                                                                            ",
"                                                                                                                                            ",
"                                                                                                                                            ",
"                                                                                                                                            ",
"                                                                                                                                            ",
"                                                                                                                                            ",
"                                                                                                                                            ",
"                                                                                                                                            ",
"                                                                                                                                            ",
"                                                                                                                                            ",
"                                                                                                                                            ",
"                                    H       3 x H                                                                                           ",
"                          2       P.m   F o . . # o 3 B.                                                                                    ",
"                        | 6      .J.    . . # # # # # X o b                                                                                 ",
"                      F.G.    4 J.    X , , $ 4 $ # 6 * # # o n b B.                                                                        ",
"                    H J.I.  m.J.|           4 I.& $ M.[ $ } { # 4 | V                                                                       ",
"                    G.L.  P.U.M.      X   j ~ 1X^ P 2XA.! 2X2X^ S.I.2 3 R.                                                                  ",
"                    L.H.3 uXhX' 2 | x 4 ' W ).5Xa._ >X).W :X5Xw.>X` M...,                                                                   ",
"                  F.L.C U.cXZ.1 1 M.; ' ^ p.'.[.d.=.=.O.o.&.&.&.4.4.[.:X! N                                                                 ",
"                  G.J.k iXsXc.[ >.:._ 5.O.9.E.p.=.+.O.O.o.o.o.s o.O.9.u.:XfX6                                                               ",
"                Z K...U.jX..+.9.t.w.).'.e.6.*.O.I O.O.+.%.O.O.o.O.O.%.7.5X9X_ m                                                             ",
"                V.,Xp.gXpXi.W.Q.*XyX0X/.XX}.k.6.;.O.O.T 3.4.4.3.e.0.q.r._.*X'.U.Z                                                           ",
"              c.0X0X3XeX_ ( Q./.-XrX5Xw.-X.X}.{.{.r.7.9.3.T ( ( q.0.q.0.4.W./.9X_ 3 b                                                       ",
"            v.@XtXeX,X%XR T W.W.Q.(.[.` ~.].|.k.j.k.}. XoXt.5.&./ ( 0.( ( W.W.'.` } [ m                                                     ",
"            5.kXkX<XA.3XR K / ( / q.) K 4.$X.XOXz.g.j.j.{.|.|.8.&.Y / 4.0.E.Q.*X8X=X:X! 2                                                   ",
"          G 5.4Xt.dX<XeXa.R P K K K K K T _.XX.X.Xl.g.f.f.j.j.k.k.u.&.3.0.E.].7X7X8X~.).Z.3                                                 ",
"          B i.s.`.d.+XxXzXyXp.P % % Y q.E.y.$X}. X$XoXg.f.g.f.g.g.k.r.7.8._.8X7X7X6X~._.C.>                                                 ",
"          n.qXrXrXrXeXxXzX1X^ 1 & % 0.(.$Xr.`.OXk.{.$XOXz.g.f.g.g.g.g.j.j.!.=X8X8X*XE.9.d.1.m                                               ",
"        b.3XrXrXrX;XeX@X<.>.b   J U W.(.(.W.8.#Xl.g.|.#X#Xl.f.f.g.f.f.f.g.j.y.y.w.y.4.O.#.*.Q                                               ",
"        V.rX*XqX].x.<.>.j F       W ^.(.(.Q.h.l.#Xj.g.j.#X$Xl.f.f.f.g.f.f.f.f.g.-.;.#.@.@.*.R c                                             ",
"      N._.;X~._.p.T.A @           >.0.(./.Q.7.h.$X|.g.f.j.OX$Xk.g.f.g.f.f.g.g.g.g.-.#.d @.$.+.M.                                            ",
"      c.~.~.w.4.T.n w             h / Q./.q.0.2.}.XXj.g.g.j.|..Xl.g.f.f.f.g.f.g.g.g.-.f @.@.$.1.M                                           ",
"      k ( 4.Y :.l x               F : 0.q.E.q.2.z..X|.j.g.g.g.|. X}.g.f.f.g.g.f.g.6.@.i i d $.- 1 F.                                        ",
"      G : $ < b                     C Y y.OXr.h.Y.$X;Xk.g.j.g.g.j.}.|.j.g.g.g.f.g.-.: 9 e i @.@.<.U.                                        ",
"        D F                           k 8.oXy.g.2.%XtXk.g.f.g.g.g.g.{.|.l.f.f.g.6.6.: + 9 r p @.$.I C                                       ",
"                                      :.OX|.8.-.u @XrXl.f.g.g.g.g.f.g.k.}.j.g.g.6.&.Y = v e r p p s ' m.                                    ",
"                                    ,.@XoXe.7.l   C.wXl.g.g.f.f.g.g.g.f.j.{.k.g.-.T T ;   y e e t @.; W                                     ",
"                                  =.0Xx.I #.g     V.rXl.6.f.g.g.g.g.f.g.g.j.k.k.-.T Y -     0 8 t f d - 5 3                                 ",
"                                >.`.lXx.@ v       ~ wXl.f.g.g.f.f.g.j.g.g.f.g.k.6.&.Y - A   F 9 8 t d s [ > B.                              ",
"                              G =.oXkXD.          ~ eXl.f.g.f.g.j.g.g.g.g.g.g.j.7.3.T - w     w 0 e p $.; $ M.Z                             ",
"                              | <XV.4XN.          b.0Xl.f.f.j.j.g.g.j.g.g.g.f.-.t.t.4.a O         0 r p f = E = m                           ",
"                              K.pXuXI.C           b.0Xk.f.g.g.g.g.g.g.g.f.-.$.B p.oX+Xo.O           9 q d i s :.M.x H                       ",
"                              J.aXG.uXm.          c.-Xj.g.j.g.g.g.g.f.;.s k     1.@X+XO.O             o 0 t f d >.h | 5 c                   ",
"                              m.| Z H.m.          c.%Xj.g.g.j.g.f.-.$.V         b.p.d.X.,                 y t t p z B b.m.C 3 D             ",
"                                Z   F J           c.'.j.g.g.f.f.;.g F           N } } iXN                   j 0 q r p f >.b.' ] N Z         ",
"                                                  c.OXg.g.f.g.;.l               m.K...iXm.                      A w u a a u u h N h O       ",
"                                                  >.|.g.f.f.#.l                 B. .{ [                                     J A w v         ",
"                                                  :.k.f.-.$.S                     , , F                                                     ",
"                                                  *.j.-.g F                                                                                 ",
"                                                  5.f.g J                                                                                   ",
"                                                  =.-                                                                                       ",
"                                                B - S                                                                                       ",
"                                                  R.                                                                                        ",
"                                                                                                                                            ",
"                                                                                                                                            ",
"                                                                                                                                            ",
"                                                                                                                                            ",
"                                                                                                                                            ",
"                                                                                                                                            ",
"                                                                                                                                            ",
"                                                                                                                                            ",
"                                                                                                                                            ",
"                                                                                                                                            ",
"                                                                                                                                            ",
"                                                                                                                                            "
};
