/* XPM */
static char *door_open1647024144[] = {
/* columns rows colors chars-per-pixel */
"70 70 211 2 ",
"   c #1D1C34",
".  c #16192C",
"X  c #201F34",
"o  c #241F29",
"O  c #2A252E",
"+  c #2E2A2F",
"@  c #28242A",
"#  c #352C2D",
"$  c #302929",
"%  c #36332E",
"&  c #38342F",
"*  c #3A3828",
"=  c #242236",
"-  c #262C34",
";  c #2B2D33",
":  c #2B2E3C",
">  c #272537",
",  c #2A3137",
"<  c #2E343C",
"1  c #273036",
"2  c #363431",
"3  c #3A3430",
"4  c #31363E",
"5  c #31383F",
"6  c #393934",
"7  c #382C35",
"8  c #433B28",
"9  c #453933",
"0  c #482F34",
"q  c #6D3E3D",
"w  c #3D403B",
"e  c #534C1D",
"r  c #49461B",
"t  c #4A4426",
"y  c #4E4A23",
"u  c #464128",
"i  c #484427",
"p  c #534C23",
"a  c #5C4E26",
"s  c #5E4D29",
"d  c #53472C",
"f  c #5C5526",
"g  c #494437",
"h  c #5F5337",
"j  c #644D2A",
"k  c #6C4F2D",
"l  c #614B25",
"z  c #64522A",
"x  c #6D522D",
"c  c #6E5B2B",
"v  c #665125",
"b  c #72542D",
"n  c #7B552C",
"m  c #745D2D",
"M  c #7D5B2C",
"N  c #6C4D32",
"B  c #694837",
"V  c #724E31",
"C  c #704537",
"Z  c #625836",
"A  c #745231",
"S  c #7C5333",
"D  c #725931",
"F  c #7F5D33",
"G  c #745A3A",
"H  c #7C6426",
"J  c #7C6528",
"K  c #77642B",
"L  c #706032",
"P  c #2A2D44",
"I  c #2E3442",
"U  c #313641",
"Y  c #323941",
"T  c #393E45",
"R  c #373E48",
"E  c #393E48",
"W  c #353646",
"Q  c #363950",
"!  c #4C3D49",
"~  c #3B424D",
"^  c #37414B",
"/  c #3D4651",
"(  c #3F4954",
")  c #40464F",
"_  c #514B48",
"`  c #414652",
"'  c #424A55",
"]  c #454D5A",
"[  c #484E5C",
"{  c #41445B",
"}  c #5A4F52",
"|  c #47515E",
" . c #4A515E",
".. c #5D5951",
"X. c #575456",
"o. c #54594B",
"O. c #615D55",
"+. c #655956",
"@. c #6E5A4C",
"#. c #70634E",
"$. c #66645C",
"%. c #716952",
"&. c #6A6146",
"*. c #4C4E63",
"=. c #475160",
"-. c #4C5563",
";. c #4E5866",
":. c #4F5868",
">. c #4F5669",
",. c #515565",
"<. c #535A66",
"1. c #525768",
"2. c #545B6B",
"3. c #585E6D",
"4. c #565F71",
"5. c #585F71",
"6. c #5A616E",
"7. c #576072",
"8. c #5B6374",
"9. c #5D6679",
"0. c #5F687B",
"q. c #6D6A62",
"w. c #616775",
"e. c #626977",
"r. c #60677B",
"t. c #636A7C",
"y. c #696F7D",
"u. c #6A707F",
"i. c #6F776D",
"p. c #835A2E",
"a. c #824E3A",
"s. c #825436",
"d. c #825C33",
"f. c #8D593A",
"g. c #88563A",
"h. c #92563C",
"j. c #915D3A",
"k. c #826A2E",
"l. c #85692E",
"z. c #8B6335",
"x. c #876934",
"c. c #916337",
"v. c #906338",
"b. c #845644",
"n. c #876A5D",
"m. c #656D83",
"M. c #686E83",
"N. c #6A7184",
"B. c #6C748B",
"V. c #6A7387",
"C. c #707687",
"Z. c #70778C",
"A. c #737A8C",
"S. c #797F8F",
"D. c #6F7690",
"F. c #6D7994",
"G. c #707791",
"H. c #747B94",
"J. c #797F93",
"K. c #777E98",
"L. c #787F99",
"P. c #79808F",
"I. c #7C8295",
"U. c #778099",
"Y. c #7C839C",
"T. c #778091",
"R. c #7F86A1",
"E. c #7E89A4",
"W. c #80879B",
"Q. c #838A9D",
"!. c #808697",
"~. c #8087A2",
"^. c #838BA4",
"/. c #888FA5",
"(. c #868DA9",
"). c #888FAB",
"_. c #8C92A6",
"`. c #8790AB",
"'. c #8B92AE",
"]. c #9196AB",
"[. c #9399AD",
"{. c #8E95B1",
"}. c #8F98B9",
"|. c #8F98B6",
" X c #9097B3",
".X c #939AB5",
"XX c #999EB5",
"oX c #959CB9",
"OX c #989FBB",
"+X c #9BA1B6",
"@X c #9BA2BC",
"#X c #A1A7BD",
"$X c #A3A9BE",
"%X c #9EA5C1",
"&X c #9CA8C5",
"*X c #A0A7C2",
"=X c #A4AAC4",
"-X c #A9AEC6",
";X c #A6ADC9",
":X c #A8AFCA",
">X c #AAB0C6",
",X c #ACB2CC",
"<X c #B2B8CF",
"1X c #AEB5D1",
"2X c #B1B7D1",
"3X c #B4BAD4",
"4X c #B9BFD8",
"5X c #B6BCD7",
"6X c #BCC2DB",
"7X c #C0C6DF",
"8X c #C2C7E1",
/* pixels */
"'.{.'.'.'.'.(..X/ _.;X.X.X/.@XoX{.oX'.'.'.'.'.'.)./.~ *X@X@X'._.=X{.|..X'.'.'.'.'.`.{.Z. .,XoXXX/..X@X'..X.X'.{.'.'.'.(..X8.w.1X.XXX/.oX@X_.",
"{.'.{.'.{.'.'.).<.^.=XoXoX.X'.'.'.'.{.'.'.{.'.'.{.R.-.+X@XoXoX.X'.'.{.'.'.{.'.{.'.{.{.H.<.-XoX@X.X.X'.{.'.{.{.`.{.{.{.'.{.t.t.,X.XOX.X.X`.{.",
"'.'.{.'.'._.'.{.7.I.=X_.'.'.'.'.{.{.`.{.{.{.`.'.'.).-.].OX'.{.'.'.'.{.'.).{.'.{._.'.'.R.;.*X{.{.'.'.{.'.'.'.'.{.'.{.(.'.{.Z.8.;X'.{.'.'.{.`.",
"'.oX{.{.~./.^.'.;.H.oX'.'.{.'.{.'.{.'.+X{.'.R./././.=.(..X'.'.'.'.'.'.'. X.X{.(.Q.^.'.H.;..X{.'.'.{.'.'.'.'..X.X{.^.^.~.'.m.8.OX'.{.'.{.{.{.",
" X{.^.R.V.H.I.S.^ H.|.'.'.'.'.'.'.'..X'./.Y.m.Y.I.N.^ /.{.'.'.{..X.X.X.XoX|.(.U.m.W.I.8.] {.'.'.'.'.'.'.'.{..X(.~.H.V.Y.I. .7..X'.'.'.'.'.'.",
"^.R.U.U.Y.>XB.<.' m.oX{..X X X|.{.{.R.R.K.H._.$X9.1.` J.OX{.{._.B.M.V.V.N.5.r.B.[.+X3.;.' ^..X{. X X X X X).Q.Y.Y.H.#X_.1.-.-.{.{..X X{. X X",
"R.@XY.Z..Xm.] -.~ Y 8.8.8.J.H.m.Y.0._.@XH.H..X7.[ ;.^ ^ >.8.t.t./.'._._._.].Q.r.A. .^  .R ] w.8.m.W.m.H.B.B.oX'.V._.W.|  .| < -.t.7.B.Y.t.J.",
"t.y.' ] ' ' | ' ` / / '  . . .] R ' u.9.' ] '  .] ~ < -.I.#X<X,X;X;X=X-X*X=X=X@X,X.XI.[ < Y  .' =.[ -.~ T 3.N.,.' ] ' ' | ' ) ~ ' ' ,.[ =.E ",
"~ '.=X,X>X,X,X,X#X@X>X,X-X@X]._. .< =.XX=X,X,XQ. .` Z.3.3X>X@X{.^.(.).~.H.(.^.R.{.&X.X3.9.Y Q.3X=XoX_.H.U Y A.*X;X,X,X,X,X;X@X-X-X,X@XoX_.M.",
"J.oX].oX.X).(.(.(._.^.@X@X'.{._.'.Y /. XOX_.8.' N.=X;X( I.2X'.E.Y.^.(.)..XH.U.Y.B.K.` [  X+X6.w.Y. X_.XXr.[ @X'.oX.X'.(.(.^.).~..X;X'.'./..X",
"_.>X(.)._.E.Y.K.R..X{.{.'.'.oXR.{.1.@X=XK.] 5.#X6X=X.X0.] =X.X{.(.K.).).~.H._.m.8.2.E M.-X5XOXY.-.3.'.).t.3.5X{._.'.^.Y.K.Y. X'.|.).{..X/.~.",
"Y.@X'.{.{. X%X@X.X{.'.'.'.(.K.N.Y.5./.B./ ^.5X3X@X).(.H.1.I.(.'..XOXXX~.V.R.R.-.-.` t.oX4XOX(.OX@XN.' Y.2. .%X{.{.{.{.OX*X.X X'.{.).(.E.V.H.",
"V.{.~.'.'.'.).`.oXOX{.^.R.t.m.t.V.5.1.( /.4X=X{._.{.R.D.m.~ 8.N.H.B.-. .7.7.-.-.;.( Y.>X,X.X'.).'.;XN.R U -. X~.^.{.).'.). XoX.X^.(.V.m.m.0.",
"B.K.M.H..X{.{.{.*X:X{.E.Y.V.oXR.V.' R _.3XOX).'.{..X/.Y.0./ R ( ` 4 R Y ^ ^ 1.;.^ :..X7XoX).{.|.).).OXM.; -.~.V.B.'..X{.{.@X,XOXE.^.m._.{.B.",
"[ D.H.m.Y.OXE.H.L.R.^.K.V.H.B.t.;.~ ^.5X'.).Y.Y.).~.F.m.( ^ 5 5 5 Y 4 Y 4 4 4 R < W t.#X@X'.(.J.Y.'.H.~.] E 9.H.B.m.OX).K.H.Y.E.R.V.D.D.m.7.",
"U ] [ >.2.m.m.m.D.m.7.:.:.8.2.-.] /.-XK.'. XoXoXY.G.8./ < Y Y Y Y Y Y Y Y Y Y 4 = X X ' _..XH.~.{. XY.9.m.8.I =.-.4.8.m.m.D.B.8.2.:.7.7.;.=.",
"Y Y 5 Y 5 ^ , ~ | ~ 5 Y ` ) ' ~ 6.-X{.U.Y.R.{.B.7.R U 5 Y Y Y U Y Y Y Y Y Y Y : = X X X  .K.J.K.K.^.t.'  .8.E ; E Y T 5 4 [ ` R 5 ~ ` ` ' ` ",
"=X-X=X=X>X[.3.[ < Y _.,X$X,XI.~ 6.=.t.Z.B.B.m.7.( 5 U Y Y Y Y Y 5 Y Y Y Y Y U = X # # + X 1.0.2.H.B.] [ ~ ' r.' _.,X#Xr.1.U , u.,X$X$X$X=X$X",
"OXoXOXOXOX X]..XT Y.1X=X#XH.^ !.6X_.-.( -.7.1.| Y Y Y Y Y Y Y Y Y Y 5 Y Y Y : = 8 p p p $   -.2.:.3.( ' N.$X:X5.~ ].OX(.%X<.<.3X#X;X'.@X>XOX",
"'.'.'.).).{.).(.1._.*X.X/.R A.7X,X3X*Xt.R / ' R 5 Y Y Y Y Y Y 5 Y Y Y Y Y Y X 8 a p p p p + X [  .R ` @X6X1X{.{.[ Y (.{.'.t.u.,X.XoX.X.X'._.",
"'.'.{.{.{.(.{.{.2.I.=X XH.~ ;X;X'.{.{.).0.~ Y Y Y Y U 5 Y Y 5 Y Y 5 Y Y Y 4 O p p p p p p p ; X w w.XX3X-X].).oXJ.4 H. X{.B.6.>X{.|.'.'.{.'.",
"'..X X'.^._.(.{.8.H.@X{.9.6.2X'.^.Y.{.^.H.1.< Y Y Y Y Y Y Y Y Y Y Y Y Y Y : ; p p p p p p p p @ ( 6X,X*X X'.'.@X/.T <. X'.B.8.%X).{.'.{.{.{.",
"{. X'.(.G.H.J.I.^ H.|._.' Q.=X(.E.^.{.(.H.1.< Y Y 5 Y Y Y Y U Y Y Y Y Y Y : 8 p p p p p a j p p ; H.7X#X).{.'.oXH.1.~ I.Q. .5. X).'.'.'.'.'.",
"`.R.H.H.B.$XH.3./ B.OX{. ..X.X'.|.).Y.K.V.~ 5 Y Y Y Y Y Y 5 Y Y Y 5 Y Y Y W t p p p p t j x t p 8 [ 3X.XL.'.{.).H.5.< Z.9.| 2.oX|..X{.{.{.{.",
"Y.+X^.U.#XY.-.-.( ~ B.V./ ^.{.).~.~.L.m.5.Y Y Y Y Y Y Y Y Y Y Y Y Y Y Y Y < u p p p p t j k p y j ! ^.%X'.R.(.).U.8.< [ -.| R 0.Z.V.Y._.H.^.",
"S.Z.] ( ] ~ / / R < R R [ {.'.R.).~.F.8. .R U Y Y 5 Y Y Y Y 5 Y Y Y 5 Y Y : u p p y k s S k y y j Z B.E.(.).R.B.V.2.Y ( ] R < 5 ^ ^ ] ] ' ' ",
"^ Y.[.XXXX+X+X@X[.[.+X[. .t.'.~.^.B.0.m.E Y Y Y Y Y Y Y Y Y Y Y 5 Y Y Y I 2 p p p p k a s.x y y k s ( m.).{.^.8.4.m.R U I.+X'.+X+X+X[._.Q.3.",
"N.OXOX&X*XOXOXOX{..X'.=X3.R ] ' ^ / / -.' 4 Y Y Y Y 5 Y 5 Y Y U Y Y Y Y I % a p p p k a s.N p y j C ( ( ] [ [ -.2.-.U Y Y.@X'.'.@X1X|.{._. X",
"_.-X^.).(.L.G.B.Y.'.{.).( [ I.J.I.C.t.~ 4 U Y Y Y Y Y Y Y Y Y Y Y 5 Y Y I % p p a k j s s.k r p D b.I 6.I.P.S.N. ., Y ' m.H.'.(.{.'.`.oX_.^.",
"W.#X{.{.{.}.%X@X.X X}.m. .=X5X;X;X,X(.m.` 4 Y Y Y Y Y Y Y U Y 5 Y Y Y Y I % p p k k k a S b &.g #.O.H.7X5X,X%XoX'.-.< ' Q.@X.X'.{.'.'.`.H.U.",
"B. X(.{.{.'.).'. X X.X8.y.4X(.(.^.).).R.-.< U Y < Y Y Y 5 Y Y Y Y Y Y Y I & p z S j k s S G ,.X _ $ Q.4X'.(.'.E.^.'./ Y H.oX X{.(.(.D.t.9.0.",
"Z.Y.V.L.|.).{.|.;X>XoX8.u.,X(.%X).~.).H.] 4 Y Y Y Y Y Y Y Y U Y Y Y Y Y I & p a b j k l s.j   X E U Q.=X'.(.~..XK.(.' < H.=X,X@XR.(.N.Q.'.B.",
"1.G.H.t.Q.@X^.Y.R.^.'.9.Z.@X'.'.^.'.K.V.] < Y Y 5 Y Y Y Y 5 Y Y Y 5 Y Y I 3 e Z @.a k a S V 7   @ , Z.+XY.{.).{.R.F.~ Y V.~.^.(.Y.H.G.H.D.9.",
"Y 2.5.8.0.H.B.V.G.B.m. .A.@X).'.|.K.Q.V.( < Y Y Y Y Y Y Y Y I Y Y Y Y Y I & * i.t.Z k a S S B 8 p 6 8.^.H.(.{.{.K.5.Y R t.G.B.m.t.7.t.0.2.-.",
"< - - < < R Y [ 1.| 5 , V.oXY.^.R.'.U.V./ I Y Y Y Y 5 Y Y Y 5 Y Y Y Y Y I & @ ;.5.2 b s a.V z.b c d -.H.H.H.H.m.t.9.R 4 ~ 2.=.~ , T ~ ~ ~ ~ ",
"].[.[.].[.I.' T < , I.N.=.t.Y.6.2.t.7.' 5 I Y Y I Y Y Y Y Y Y Y Y Y Y 5 I 2 O = I $ b s S V z.b d.Z I -.:.4.1.[ >.] < R ' < ; 3.XX_.[._.'.].",
"=X=X;X=X;XoX'.'.5 C.6XY.R ~ [ ' ' / ~ < Y Y Y Y Y Y Y Y 5 Y Y Y Y 5 Y Y I % u % X u x s S m l.S p.d.4 T ' ' ` ] ' 5 < ] @X[ [ ,X2X2XoX-X3X=X",
").).).).(.'.`.'.,._.>Xm.] .X,X$X=X'.V.<.Y Y Y Y 5 Y Y Y Y Y Y Y Y Y Y Y U % f t 3 a j b j.b x.D d.F 5 ).<X-X#X;X@X,.: ~ ^.m.M.2X'. X X.X'.).",
"{.'.{.{.{.(.`.{.1.I.1X0.t.7XOX.XoX|.'.Y.-.5 Y Y Y Y Y 5 Y Y Y 5 Y Y Y Y I % e x V k j m j.x x.M d.h /.4X#XoXoX.X].'.` < H.B.3.,X}.oX'.'.{.{.",
"(.|.{.'./.'.'. X9.H.;X8.t.%X(.`.(.).^.K.( < Y Y Y Y Y Y Y Y Y Y Y Y 5 Y I % p s A j j m j.x x.D M $.3X|.).'.).'.'.{.` U Q.J.8.*X'.).'.{.'.'.",
"{.oX{.(.K.H.I.W.~ A.@X9.:.}.`.{.'.(.^.L.] 4 Y Y Y Y Y Y 5 Y Y Y Y Y Y Y I & p s A x V m j.x v.m p...%X X(.'.{.'.{.{.' < W.<.3.|.'.'.'.{.'.'.",
"{.^.K.H.m..XI.9.( A.%Xm.:.{.{.{.{.~.F.H.*.< Y Y Y Y Y Y Y Y Y Y Y 5 Y Y I & e s A x d.x v.x z.D M } &X'.'.~.).'.%X'.~ < t. .3.oX{..X{.'.{.{.",
"K. X`.Y.@X.X3.-.( | ^.8.2.^.E.).Y.B.B.V.' < Y Y Y 5 Y Y Y Y 5 Y Y Y Y Y I & p a A x d.m v.x z.m M +.E.^.%X).).).^.~.` R -.-.~ Z.Y.U.(..X~.).",
"Y.Q.;.| 3.~ ^ / 5 - R ~ 1..X).{.^.9.5.>.~ U Y Y Y Y Y Y Y Y Y Y Y Y Y 5 I & p j V x s.x f.x z.K F } F.G.(.R.K.K.H.^.` 4 ( R 1 < ^ ~ | -.' ;.",
"~ C.J.Y.I.Q.Q.Q.I.I._.m.U M.Y.B.m.7.:.[ R Y Y Y Y Y Y 5 Y Y Y 5 Y Y Y Y Y % e s S k s.b j.x z.D l.C [ m.H.H.G.H.K.2.T ' Q.I.I.Q.W.Q.W.H.S.] ",
"9.OX=X1X,X;X,X>X@XoXXXN.R R ' ~ ~ ' / < < Y Y Y Y Y Y Y Y Y Y Y 5 Y Y 5 I & p 9 V x a.c v.x z.K F h.6 W ,.1.2.5.<.4 ;  .1X&XOX@X-X5X+X.X'.'.",
"/.#X^.).^.H.B.B.H.'.Y.;.<.oX$X$X#X#X=X_.~ 5 Y Y 5 Y Y Y Y Y Y Y Y Y Y Y I 2 e 9 A x a.c j.b z.m k.b 1.+X#X#X.X]..XC.Y ~ V.D.(.^.{.{.(..X/._.",
"Q.;X{.{.{.{.@XoX.X.X{.3.8.6X%XOX@X@XOXOX;.< Y Y Y Y U Y Y 5 Y Y Y Y Y Y U % f U d A S m j.k f.m k.g {.8X,XOX.X{.{.oX' 4 H..X.X{.{.{.'.{.Y.Y.",
"B..X).{.'.{.{.|.{.'.{.2.t.,X(.'.{.'.`.U.=.4 Y Y Y Y Y Y Y Y 5 Y 5 Y Y Y I * #.P $ x.x N h.x z.m H $.;X<XoX(.'.'.).^.' Y 3.{.{.'.'.(.H.m.8.m.",
"Z.^.B.E..X'.'.{.;X,X{.| t.%X'.{..X{.R.F. .< Y Y Y Y Y Y U Y Y Y Y Y Y Y I 3 X.j 9 m b A h.x f.m H ..}.-X).{.{.{.).Y.` U <.@X,X@XR.(.m.I.(.m.",
"5.D.G.m./.@X(.~.). X~.' 8..X'..X`.(.Z.m.-.4 5 Y Y Y Y Y Y Y U Y Y Y Y Y W 2 o.p.%.Z b A v.x f.m J ..}.@XY.^.{.{.L.F./ R >.B. X{.~.I.H.Y.U.m.",
"R 9.m.m.V.~.H.V.G.G.B. .8.R.(.~.m.{./.;. .< Y Y Y Y Y 5 Y 5 Y Y Y Y Y Y I % # G g z b V z.V f.m H ..}.@X^.D.(.^.D.E.] 4 m.m.B.D.B.9.m.M.7.-.",
"- ; ; 4 < / ` 2.8.2.^ 5 3.'.Y.'.+Xy.Z.U. .< Y Y Y Y Y Y Y Y Y Y Y Y Y Y I 3 B 5 ! D D V h.N f.m J ..`.`.`.{.`.H.Y.m.~ 4 [ 9.3.( < ^ / / / / ",
"A.S.A.A.A.y.Y < 5 , 8.t.4 ~..X_.m.B.D.V.' 4 Y Y Y 5 Y Y 5 U Y 5 Y 5 Y Y I 3 b * 0 f.k V h.b z.K k.g B. XU.{.Y.H.0.[ T Y U U , ] S.A.S.A.A.A.",
"1X1X1X1X3X@X~.W.< 8.3X=X] t.m.4.1.3.=.' / Y Y Y Y Y Y 5 Y Y Y U Y Y Y Y I 3 b z C s.b b h.N d.K k.g *.9.4.:.| | ] ~ < ' [.' ~ =X6X4X*X<X6X,X",
").).(.).(.'.'.{. .[.=Xm.^ ' 2.3.3. .' ^ 4 Y Y Y Y Y Y Y Y Y Y Y Y Y 5 Y I 3 x s q F x V h.x h.m J C > | 1.8.9.3.7.~ 4 R Y.t.y.2X'.[.'..X{.(.",
"{.'.'.{.{.`.'.`.,.W.&X2.[ ;X3X<X3X.XK.H./ 4 Y Y Y Y Y Y Y Y Y Y Y Y Y Y I 3 b z q F x A h.k f.%.b.N V.6X3X1X3X1X=X'.^ 5 H.B.8.;X}.OX|.{.).{.",
"`.{.{.{.(.'.'..X8.I.=X:.t.1X(.'.{..X^.F.[ 4 Y Y U Y U 5 Y Y Y Y 5 Y Y 5 I & b s q F x A h.b n.T %.} ^.6XXX'.'.`.`..X' < W.J.5.-X).'.'.'.'.{.",
"{.oX{.'.Y.Y.I./.' H..X:.N.2X(.'.'.R.D.D.*.4 Y Y Y 5 Y Y 5 Y Y 5 Y Y Y Y I & b s q s.x N j.G [ X _ $ I.,X{.'.'..X{.^.~ < ^.3.3.oX'.'.{.{.{.'.",
"{.(.Y.K.t./.Y.m.~ U.oX:.t.;X'.^.{.U.m.Y. .< Y Y Y Y U Y Y Y Y Y Y Y Y Y I & b s q s.b A c.l . = W E Z.oX'.'.^.oXoXm.Y 4 N. .5.oX'.{.'.{.{.'.",
"Y._.^.R.XX#X9.-.] 1.'.2.6.%X{.R.m.Y.`.0./ 5 Y Y Y Y Y 5 Y 5 Y Y 5 Y Y Y I 3 b s q F x x z.D 7 . O ; M.}./.^.{.%XH.=.T T -.-./ Y.)./.{..X'.{.",
"/.'.9.2.V.] / ( Y - ( / ~ t.;.Y Y ' -.U 5 U Y Y Y Y Y Y Y Y Y Y Y Y Y Y I 3 b s q F c D z.S N + u * -.B.2.<.2.1.R R 4 T -.~ - ^ ' ' :.8.=.9.",
"' t.9.t.w.u.u.u.t.u.w.3.N.t.w.t.8.<.6.t.7.5 U Y 5 Y Y Y Y Y 5 Y Y Y Y Y U 3 b s q S c b c.V z.z v _ M.M.w.w.6.,.3.t. .~ ^ y.y.y.u.u.N.e.t.~ ",
"1.@X>X5X2X3X3X3X&X-XT.Q..XZ.I.^.^.(..XY._.< Y Y Y Y Y Y Y Y Y Y Y Y Y Y I & b S C s.c b v.k z.S p.q.*XN.Y.Y._.~. X.XXX .^ :X@X=X,X6X@X@X].^.",
"^.@X(.).(.L.D.D.L.(.;.H.3.<.7.;.-.2.>.[ S.T 4 Y Y Y Y Y Y Y Y Y Y Y Y Y I & b s.q s.c b c.k z.A n q.V.[ 8.2.*.2.1.[ C.,.U H.).R.'.oX(.{./.'.",
"_.-X).{.'.`.{.{.'.{.2.Z.N.N.3.6.1.3.2.=.H.E U U Y Y 5 U Y Y Y 5 5 Y Y Y I % s.b q s.c c j.V z.S M $.M.C.w.2.1.3.2.=.V.*.R /..X{.{.'.{..X^.R.",
"Z..X{.{.{.|..X.X{.'.2.S.N.]  ._.A.Z.;.~ t.W 4 Y Y Y Y Y 5 Y Y Y Y Y Y 5 5 = N j q a.c x h.k z.b H O.m.5.~ !.Y.Z.5.E e.,.Y  X'.'.'.(.Y.Z.9.m.",
"Z.`.H.^.{.).`.{.=X%X2.N.N.t.N.Y.T.Y.9./ r.R 5 Y 5 Y Y Y Y Y Y Y Y Y Y Y Y = B a N d.x b h.V z.S H O.0.m.8.^.B._.m.] w.,.U @X;X@X~.).m.Z.Y.m.",
"r.F.B.V.'.@X'.(.oX X2.r.9.2.] -.' ;.-.' r.R 5 Y Y Y Y Y Y Y Y Y Y Y Y Y Y = j S V d.x V h.x h.V D O.9.8.| -.]  .;.' t.,.Y {.@X X~.Y.B.~.~.M.",
"E B.G.0.B./.K.V.G.G.2.m.5.L.H.9.8.=.3.1.t.W U Y 5 Y Y Y Y Y 5 U Y Y Y Y 4 = B s.q s.x A j.k h.D p.O.5.B.Y.0.8.1.>.1.t.,.< B.H.K.H.m.B.B.8.;."
};
