/* XPM */
static char *tomb1647029477[] = {
/* columns rows colors chars-per-pixel */
"70 70 203 2 ",
"   c None",
".  c #0D0C0C",
"X  c #060505",
"o  c #141413",
"O  c #1D1C1C",
"+  c #181717",
"@  c #110F10",
"#  c #211E1E",
"$  c #22211E",
"%  c #1A1F23",
"&  c #1B242A",
"*  c #1E2A35",
"=  c #242322",
"-  c #282624",
";  c #2B2926",
":  c #282728",
">  c #2C2B2B",
",  c #24282A",
"<  c #312E2C",
"1  c #33322D",
"2  c #262D34",
"3  c #2D3234",
"4  c #24333B",
"5  c #2C353A",
"6  c #2F383E",
"7  c #353433",
"8  c #393633",
"9  c #3B3935",
"0  c #333A3D",
"q  c #3C3B3B",
"w  c #363739",
"e  c #2E302F",
"r  c #403C36",
"t  c #413E3A",
"y  c #43403A",
"u  c #1E3440",
"i  c #2D3C44",
"p  c #283B48",
"a  c #323C44",
"s  c #3C3E43",
"d  c #323A45",
"f  c #253F51",
"g  c #413F40",
"h  c #2D414D",
"j  c #3C4243",
"k  c #36434B",
"l  c #39454A",
"z  c #2C4453",
"x  c #2E4A59",
"c  c #324955",
"v  c #324C5B",
"b  c #384955",
"n  c #3C515B",
"m  c #2F5365",
"M  c #355364",
"N  c #3A5564",
"B  c #345A6C",
"V  c #3A5C6B",
"C  c #375768",
"Z  c #375E73",
"A  c #314F60",
"S  c #3D657B",
"D  c #386579",
"F  c #444344",
"G  c #454649",
"H  c #494749",
"J  c #4B4A4B",
"K  c #454949",
"L  c #444E54",
"P  c #4D4E52",
"I  c #514F51",
"U  c #4C5256",
"Y  c #49555C",
"T  c #545354",
"R  c #565558",
"E  c #59575B",
"W  c #5C5B5C",
"Q  c #575859",
"!  c #504E4F",
"~  c #605E5F",
"^  c #425562",
"/  c #445A69",
"(  c #5C5D62",
")  c #535D63",
"_  c #615F62",
"`  c #596268",
"'  c #466777",
"]  c #556775",
"[  c #58707C",
"{  c #646364",
"}  c #686667",
"|  c #66656B",
" . c #696769",
".. c #6C6B6C",
"X. c #65696C",
"o. c #706F6F",
"O. c #6B6E74",
"+. c #626C76",
"@. c #716F71",
"#. c #68737A",
"$. c #747374",
"%. c #787779",
"&. c #7C7B7C",
"*. c #777778",
"=. c #70706F",
"-. c #807E7F",
";. c #3D6C82",
":. c #396A84",
">. c #3C728A",
",. c #3E7693",
"<. c #49778A",
"1. c #5A7988",
"2. c #417A94",
"3. c #406D83",
"4. c #677C8B",
"5. c #7E7E82",
"6. c #757D83",
"7. c #817F81",
"8. c #807F8A",
"9. c #3F819C",
"0. c #3B84A2",
"q. c #43839B",
"w. c #548091",
"e. c #7B8389",
"r. c #6F8999",
"t. c #4484A2",
"y. c #7D90A4",
"u. c #848384",
"i. c #85868B",
"p. c #8C8B8C",
"a. c #878788",
"s. c #918E8F",
"d. c #8B8B93",
"f. c #878894",
"g. c #918F91",
"h. c #8C939B",
"j. c #949394",
"k. c #989697",
"l. c #969599",
"z. c #999798",
"x. c #9C9A9C",
"c. c #95999D",
"v. c #A09E9F",
"b. c #8F92A1",
"n. c #9B9CA2",
"m. c #979AA6",
"M. c #A19FA0",
"N. c #A09FA9",
"B. c #9AA2AB",
"V. c #A4A2A3",
"C. c #A8A6A7",
"Z. c #A6A5AA",
"A. c #A9A7A9",
"S. c #ACAAAC",
"D. c #AAA8A6",
"F. c #B0AEAF",
"G. c #ADAEB2",
"H. c #A8A9B6",
"J. c #B1AFB0",
"K. c #AAB2BB",
"L. c #B4B2B3",
"P. c #B8B6B7",
"I. c #B5B4BA",
"U. c #B9B7B9",
"Y. c #BCBABC",
"T. c #B1B0AF",
"R. c #C0BEBF",
"E. c #BDBBC4",
"W. c #B8B9C7",
"Q. c #C1BFC0",
"!. c #C2BFCD",
"~. c #C4C2C3",
"^. c #C8C6C7",
"/. c #C5C4CA",
"(. c #C9C7C9",
"). c #CCCACC",
"_. c #C4C9CE",
"`. c #D0CECE",
"'. c #CDCCD2",
"]. c #C5C4D1",
"[. c #D1CFD1",
"{. c #D2CFD8",
"}. c #D4D3D4",
"|. c #D8D6D7",
" X c #D6D5D9",
".X c #D9D7D9",
"XX c #DDDBDC",
"oX c #D9D8D7",
"OX c #CFD0D4",
"+X c #E0DEDF",
"@X c #DFDCE1",
"#X c #E1DFE1",
"$X c #E4E2E4",
"%X c #E6E5E9",
"&X c #E8E6EA",
"*X c #EBEAED",
"=X c #E8E6E7",
"-X c #EEEBF1",
";X c #F1EEF3",
":X c #F3F2F6",
">X c #F6F5FA",
",X c #F8F7FC",
"<X c #FAF9FD",
/* pixels */
"                                                                                                                                            ",
"                                                              %.u.z.V.S.Y.^.~.~.Y.L.J.u.                                                    ",
"                                                        O W (.|.~.S.o.T =.u.u...&.@. .{ q 7 F Q                                             ",
"                                                    = J p.D.^.z.Q H W &.T. X}.^.$X).[.'.E.v.5.$.T T                                         ",
"                                            j.T.C.j.a.S.L.x.W 9 -.x.U.$X,X&XXX<X>X,X,X,X,X>X#XW.Q.&.W                                       ",
"                                        a.).).V.&.W W Q T K 1 ..Y.$X;X;X XQ. X&X;X-X:X:X>X,X,X:X:X&X5.` u.                                  ",
"                                      Z.$X:X}.U.U.~ 9 q 9 q T ` K L.:X'. XXX^. X-X*X-X-X-X-X:X>X<X>XI.-.p.p.                                ",
"                                    G.=X~.~.U.L.p.=...g.S.l.J K Q U ). X'..X*X*X-X-X*X-X-X-X-X;X,X<X:X:X;XL...                              ",
"                                  A.`.Y.j.g.V.{ e.(.;X,X<X,Xl.R X.q 5.P.$X;X-X-X-X-X-X-X-X-X-X-X-X,X<X,X:X:X'.d.                            ",
"                                x.`.z.z.x.J.} %.#X<X>X>X,X<X.XT J ~ F X.x.L.XX*X-X-X-X-X-X-X-X-X-X-X,X<X>X>X,X~.                            ",
"                              &.(.j.a.v.C.g.-.^.;X;X-X-X;X,X{.G Q X.F T e.7.X.*.M./.%X-X-X-X-X-X-X-X-X,X>X<X*Xi.H                           ",
"                            T (.P.s.v.F.~.@.A.$X;X-X-X-X-X-X#Xl.T.p.p.x.T.L.^.OX}.7.d.S.'.#X*X-X-X-X-X@X}.G.$.T X.J                         ",
"                            V.}.v.P.P.R.S.{ Q.-X-X-X-X-X-X*X-X;X$XS.j.*.*X:X;X;X>X'.v.(.U.Y.#X-X-X*XG.l.x.l.d.l.~.*.                        ",
"                          { oXY.v.%.V.R.$.} }.-X-X-X-X-X*X*X*X;X).OX`.W XX-X-X-X*X*X!.S..X-X-X-X-X*XXX%X-X:X:X:Xv.W H                       ",
"                          V.^.J.^.-.$.^.@.%.Y.%X#X). X#X#X#X#X#X#X*X$X` g.#X;X*X;X-X;X{.A.#X;X-X-X-X-X-X*X-X:X`.=.x.T.J                     ",
"                        T ^.A.M.`.p.~ Y.$.z.~.XX}.Y.Y.oXXXXX+XXX#X&X-X X-.X.).;X*X-X-X*X).C.@X*X*X-X-X-X;X;X~.c.Y.:X,Xu.                    ",
"                        &.F.P.^.D.R.~ @.H ~.=X$X.X|.|..XXXXXXXXXXXXX#X;X*XM.s.;X;X-X%X'.@X X'.-X-X*X-X-X*XM.V. X-X%X$Xx..                   ",
"                        p.a.Y.).P.C.p.< 7 ..p.V.l.g.u.A.+XXXXXXXXXXX+X%X;X*X).*X$X/. X#XXX*X-X-X-X-X-X>X@XE.*X-X-X@X'.L.o                   ",
"                      t j.u.).~.Y.k.} o : T a.|.#X#X|.|.XXXX+X|.XXXX.X(.[.'.+X&XU.[. X@XXX%X-X-X-X-X>X;X*X*X;X-X-X%X'.j.+                   ",
"                      ! s.j.P.~.F.F.} . 7 L.=X$X+X+XoX+XXXXX|.Y.|.+XXX[.'.#X#X%X.X&X^./.@X-X*X*X%XE.l.*.*.%.x.oX-X*XE.}                     ",
"                      W k.F.U.s.7.s.u.7 $.=XXXXX.X+X.XoX+X+XU.v.J.(..X+X+X#X;X;X.X7.*.G.-X-X-X'.p.$.%.W R J E _ [.:XXX~.$.                  ",
"                      -.p.L.D.~ F.R.C.F j.XXXXXX+X+X+X`.v.$.~ W W _ z.#X+X#X&X;X^.E E a.-X-X-X'.} 5...S.l.W I R $.*X=X}.W                   ",
"                    . -.a.D.-.a.^.).&.W C.XXXXXX+X.X+Xu.t H I T { ..E A.=X.X#X%X.XH W 7. X-X-X%X*...R (.;X.XO._ W |.=X).{                   ",
"                    . %.u.).R.F.U.).$.$.V.oXXXXX.X+X+X-.J { D.s.H J ....&X{.|.{.#XR 7  .~.$X-X-Xg.( R A.:X;XI.H J U.+X~.J                   ",
"                    . $.s.~.).F.D.L.$.o.k.+XoX.X+XoX#X7.8 _ {.;X$.9 T &.*XoX|.(.XX=.O Q ~.^.@X:XS.W T p.;X;XR.E J Y.E.Y.R                   ",
"                    @ -.v.).~.~.D.A. .I C.`.+X+X.X+X.Xk.< g P.Q.T { $.).%X.XXX).).j.e ! R.*XOX$XL.H E %.;X;Xz.R {  XI.[.a.                  ",
"                    + ~ s.~.~.~.J.u.~ t V.U.+X+X(..X`.v.q g I E F W T.}.(.[.XX.XXXL.q ! V.%X XL.s.q | ( C.j.7.O.g.-X/.%XV.                  ",
"                    J J.U.|.~.R.Q.M.J 8 C.^.+X.XR.|.(.D.F t F o.T Q ~ } ~.%XXX.XoX^.j J p.$XXX#XL.q } W F _ i.V.%X-X(.*XS.=                 ",
"                    W S.x.~.).~.Y.~.@.+ @.`.+X+XQ.}.^.L.8 H } (.R.%.g  .W Q.%XXXXXoXK y $.$X@X*X XK J R j.I..X-X-X*XXX-X}.H                 ",
"                    $.C.j.~.~.`.J.a.$.t M.C.+X+XQ.P.F.F.7 H } +X+XoX} q _ _ XX@XXXXXW F ..@XXX*X.XK q ( -X;X-X-X-X-X-X-X Xs                 ",
"                    %.v.s.R.R.R.Q.s.g J Y.s.{.L.~.U.`.Y.q ! } `.oX.XQ.w T T L.#XoX+X$.! E .X@X%XXXP s P %X;X*X-X-X-X%X@X'.7                 ",
"                    s.x.k.Y.~.R.J.j.H J U.F.k.u.R.R.`.P.H J T Q..X|.oX..q T d.=X}.+X&.w H }..X}.=XT : H $X-X-X-X%X'.Y.U.S.=                 ",
"                    v.V.v.U.R.^.J.o.q I k.}..XY.M.v.`.R.E ~ E F.#X+X#Xk.> H a.=X[.#Xp.> 7 ^.+X#X*XI : J #X-X-X-X-X@X[.[.$.>                 ",
"                    s.v.v.~.Y.R.(.F.g 8 v.{.+XXX{.C.Y.P.~ T J z.+X|.oXJ.G F v.=X`.XXj.7 > U.+X$X&XI q R #X-X-X-X&X{.!.p.T !                 ",
"                    s.-.s.).`.U.Y.(.s.t ~.+XXXXX.X`.[.R.o.t _ p.+XoX+XY.J F ~.=X}.oXx.9 , C.XXXX+XI g T #X*X;X|...I I _ { } 7               ",
"                    a.@.-.~.}.~.Y.P.g.= a.`.+XXX.X.X.XR.%.t } %.+X.XoXY.q G oX$XoX$Xc.9 : C.$XXX}.T ! I [.#XXX%.d.XX.X%X^.u.:               ",
"                    } u.k.F.~.Y.R.C.} : 7.Z.|.XX+X+X.XP.8.t E ..+XoXXX).s F |.+XoX$Xz.q F v.+X.X}.R T -.}.+Xv.@.*X-X*X;X$XV.j               ",
"                    T u.M.Q.~.R.L.A.} # ( 6.A.+X.X+X+XR.k.7 ~ _ ).+X+X$Xl.H V.+XXX+XV.H { P.+X+X+X^.`.+X+X).s.v.%XXX+X%X=X[.H               ",
"                    # u.P.P.[.~.A.M._ = R | J.+X+X.X.XU.z.8 } J ^.+X=X*X&XY.Y.oX+X+X|.).|.oX+X+X+X|..X+X+XJ.R.A.XXXXXXXX#X`.H               ",
"                    7 R.`.L.J.`.Q.&.W = w @.z.R.|.+X+XR.Q.k.k.L.oX`.}.+XL.L.(.+XoX+XoX$X#X.X|.[.~.D.-.g.s.Y.+X`.XXXXXXXXXX}.q               ",
"                    q S.+X`.F.S.[.S...$ > T f.Z.R..X+X!.|.+X+X+X~.L.^.P.A..X+XXXXX.X).(.^.P.S.P.^.p.^.k.P.+X+X`.(.XXXXXXXX}.F               ",
"                    > a.|.}.R.v.7.L.&.9 w G ) | z.Q.+X^.`.|.|.`.D.L.~.~.|.+XoX+XXXXX~.R.Y.R.Q.~.Y.S.L.T.XXXX).R.|.XXXXXXXXoXK               ",
"                    : $.x.}.^.J.$.H 7 = g g 7 I a.v.).|.p.u.a.k.R.+X+X+XXXXXXXXX+X.X+X+X+X+X+X+X$X*X&.Q.+XoX^.oXXXXXXXXXXX}.F               ",
"                    $.^.F.~.~.^.U.z.T % s I @.7.z.s.o.-.-.`.|.+X+X+X|.|.XXXXXXXX.X+X+XoX+XoX+X.X&X:Xk.S.+XXXXXXXXXXXXXXXXX[.j               ",
"                  L | L.L.U.R.R.R.S.v.~ > I i.).).M.} W Y.oX+X.X`.P.Q.|.XXXX+XXX+X+X.XoX+X+X.X+XXXT.V.}.XXXXXXXXXXXXXXXX+X`.y o             ",
"                  L U V.F.F.P.P.U.C.A.E + s -.#X+X|.%._ o.F.+X}.`.}.oX+XXXXXoX+X|.R.P..X+X.X+X#XY.D.@XXXXXXXXXXXXXXXXXXXXX}.K >             ",
"                  % j x.k.Y.F.x.a.-.j.o.@ J %.[.+X.X[.[.V.} U.}.+XoX+X.XXXXXXX.XJ.C.A.~.`.+XoXoX(.~.XXXXXXXXXXXXXXXXXXXX+XQ.q %             ",
"                    2 a.g.Y.L.s.x..._ a.# } J.Y.|.|.+X`.[.D.g.V.S.^.|.^.XXXXXXoX.X.X|.}.oX+X+X+XXXXXXXXXXXXXXXXXXXXXXXXXoX&.5 &             ",
"                    p #.a.j.x.-.-.o.! } = E k.U.L.P.).}.Q.Q.}.k.S.|.XX|.oXXXXXXXXXXX+XXXXXXXXXXXXXXXXXXXXXXXXXXXXXXXoXXX^.5.Y 4             ",
"                    c [ $.a.p.-.o.~ { ~ O k.R.x.Y.XXoX|..XR.(.R.P.*X$XoX+XXXXXXXXXXXXXXXXXXXXXXXXXXXXXXXXXXXXXXXXX^.U.oX+X'.6.i ,           ",
"                :   n ' X.s.p.-.a.E $.$.= v.A.g.P.`.[.+X.X|.+X[.Y.|.=X+XXXXXXXXXXXXXXXXXoX|.XXXXXXXXXXXXXXXXXXXXI.V.T.oXXX_.m.* &   7       ",
"            j   L & v ^ *.u.{ z.&.$.{ ..= @.V.z.J.~.Q.|.+XoX.X+XoX$XY.Y.+X+XXXXXoXoXXXXX[.z.XXXXXXXXXXXXXXXXXX.XY.S.S.oX@X_.H.h ^ U         ",
"              c C z * Y c.U T j.&.W H T : 7.O...o.p.S.|.XX.X.X+XoX@XS.{ oX^.).oX~.|.oX@X).&.XXXXXXXXXXXXXXXXXXL.[.{.{.#XXX].H.s M '         ",
"    > G       v x S * N e.k ..a.&.g F H = f.P 5.%.p.P.|.oX}.+X.X.X/.).g S.U.).~.}.XX}.'.Y.{ oX+XXX[.oXoX}.(.OXh.V.XX!./.@XW.W.d z 1.        ",
"      b N     c B >.f C W j } &.7.g = > > b.] O.a.-.C.`.oX+XXX+X@X_.'.| $.^.L.Q..X@X[.].a.F |.oXT.x.Y.^.).E.(.K.#.OXH.#._.W.W.P m <.k       ",
"        C ;.  h Z D 4 M ` n ( =.7.( = g q b.' ] k.A.V.I.~.XX|.|.XX'.!.i.l U.C.}.(.@X{.W.*.3 G.+XY.V.^.`.XX}.!.W.] W.m./ K.W.f._ C D ' #.    ",
"          >.q.  D B % p U 5 k ` $.{ q + s f.c S 6.N.f.Z.L.}.~.(.[.{.!.n.i n.j.}.oX#X'.W.| 2 j.(.[.[.}.[. XOXW.W.N m.y.:.m.E.h.5.' m ;.^     ",
"          C 9.m :.Z % 0 j 6 5 T o...K = G O.i M ) l.8.f.z.Q.S.Y./.}.!.N.z e.p.V.oXoX'.W.U x f.s.`.`.Y.S.Q.K.H.K.^ h.r.,.+.J.d.1.Z S 2.z     ",
"          n q.C >.:.f l g 3 2 j ..W H 7 q ) d p L f.8.| j.J.V.V.S.Y.K.n.c e.j.a.~.).W.Z.L B +.7.Q.Y.L.M.T.y.h.m.N b.1.0.N i.8.+.D S q.c -   ",
"          i ;.m ,.>.>.N F 3 4 3 ..%.W g I U a & G x.d.i.( L.C.j.v.n.b.f.c O.&.7.I.U.S.m.s Z ^ ( z.L.z.j.X.<.4.r./ W.4.2.:.d n.h.h v M 2 O   ",
"        = , C m M c C e > 7 d s H H _ 0 T j d * 7 5.a.#.5 j.L.D.F.n.f.+.v U { a.s.x.D.m.l D S 0 p.M.a.j.) ' ' ' 3.1.w.0.,.;.1.+.x p l j     ",
"    : > : > q j 0 3 7 ; > - : > 7 $ , S B f 2 l * / #.) z 6.z.D.J.M.d.^ x s F ( k.T.).I.5 D t.h *.a.e.) Y v >.2.D c B 2.V D n j Y K y       ",
"    9 >     = > : 1 > ; ; = = = < r 3 z 3.N p V p Z 3.<.D v L O.O.+.O.n A 2 n 0 p.D.u.=.3 m 9.B c V S S m x Z B j 1 7 i 7 t y y y y 9       ",
"                < = $ 1 8 1 ; > 7 t 8 # : 3 k z p d 4 M B N v z Z 3.d z N p ;.c n : # ; 7 i n V D ' l V C 4 6 7 9 9 8 1 > ; ; < 9           ",
"                    = : 1 w > - - 8 9 8 : : 1 1 1 9 9 : 7 q 3 5 5 0 w i c 5 n j , $ - ; 9 y 8 9 K F 9 9 7 < ; ; 1 y y 8 1 1 8 1 8 9         ",
"                            + $ ; < > > 8 7 : 8 t 9 y t 9 1 1 ; $ ; 8 k l < 9 t 1 1 1 1 8 t t t 8 = ; 1 w 7 < ; = ; e 7 1 $ = :             ",
"                                w 9 9 = $ : 1 q 9 8 t t t 9 t 9 1 8 r 9 q 8 9 8 8 8 r t t y   t 8 O $ : < 1 9 9 9 9 9                       ",
"                                                  9 9 < 9 7 - ; - < 1 8 9 8 1 $ $ > 1 1 7 :                                                 ",
"                                                    1 7 t 1 o $ $ 1 9 ; 9 y < . $ - - = #                                                   ",
"                                                                9 1 1 ; y t 8 o X                                                           "
};
